<svg id="svg" version="1.1" xmlns="http://www.w3.org/2000/svg" xmlns:xlink="http://www.w3.org/1999/xlink" width="400" height="152.57586450247" viewBox="0, 0, 400,152.57586450247"><g id="svgg"><path id="path0" d="M197.833 57.833 L 197.833 115.667 201.678 115.667 L 205.522 115.667 205.416 69.458 C 205.305 21.499,205.294 20.696,204.599 12.333 C 204.367 9.537,204.095 6.050,203.994 4.583 C 203.894 3.117,203.768 1.485,203.715 0.958 L 203.619 -0.000 200.726 -0.000 L 197.833 0.000 197.833 57.833 M67.875 1.953 C 68.127 1.991,68.540 1.991,68.792 1.953 C 69.044 1.915,68.837 1.883,68.333 1.883 C 67.829 1.883,67.623 1.915,67.875 1.953 M61.917 2.706 C 61.275 2.792,60.000 3.047,59.083 3.273 C 58.167 3.499,57.167 3.710,56.862 3.743 C 56.556 3.776,55.656 4.002,54.862 4.245 C 51.645 5.231,49.060 6.082,48.667 6.284 C 48.438 6.402,48.150 6.498,48.027 6.499 C 47.904 6.500,47.318 6.725,46.724 7.000 C 46.130 7.275,45.580 7.500,45.502 7.500 C 45.425 7.500,44.886 7.752,44.306 8.060 C 43.725 8.368,43.192 8.628,43.121 8.637 C 42.404 8.732,42.450 9.305,43.411 12.250 C 43.620 12.892,43.982 14.054,44.216 14.833 C 45.179 18.052,45.246 18.225,45.542 18.264 C 45.702 18.286,45.833 18.241,45.833 18.163 C 45.833 18.086,46.002 17.974,46.208 17.914 C 46.415 17.855,46.996 17.615,47.500 17.380 C 52.263 15.169,57.952 13.423,63.750 12.394 C 65.125 12.151,66.264 11.942,66.281 11.931 C 66.325 11.902,65.772 9.945,65.334 8.583 C 64.938 7.353,64.237 5.063,63.765 3.458 C 63.610 2.931,63.393 2.511,63.283 2.525 C 63.173 2.539,62.558 2.621,61.917 2.706 M66.875 11.948 C 67.035 11.990,67.298 11.990,67.458 11.948 C 67.619 11.906,67.487 11.872,67.167 11.872 C 66.846 11.872,66.715 11.906,66.875 11.948 M71.333 29.250 C 71.333 29.387,71.271 29.500,71.194 29.500 C 71.117 29.500,70.438 30.269,69.684 31.208 C 68.931 32.148,68.187 33.067,68.032 33.250 C 67.877 33.433,67.532 33.883,67.265 34.250 C 66.998 34.617,66.736 34.954,66.682 35.000 C 66.628 35.046,66.508 35.205,66.417 35.353 C 66.325 35.502,65.856 36.206,65.375 36.918 C 64.894 37.630,64.500 38.268,64.500 38.336 C 64.500 38.404,64.382 38.557,64.237 38.677 C 64.092 38.798,63.783 39.275,63.548 39.740 C 63.314 40.204,63.071 40.621,63.007 40.667 C 62.943 40.712,62.774 40.975,62.632 41.250 C 60.326 45.711,59.000 48.387,59.000 48.578 C 59.000 48.708,58.843 49.081,58.650 49.407 C 58.458 49.733,58.364 50.001,58.442 50.003 C 58.520 50.004,58.507 50.060,58.414 50.128 C 58.320 50.195,58.066 50.764,57.848 51.391 L 57.452 52.533 61.174 56.257 C 64.581 59.666,65.340 60.312,65.048 59.551 C 64.984 59.384,65.011 59.320,65.117 59.386 C 65.221 59.450,65.325 59.244,65.377 58.872 C 65.502 57.982,65.564 57.764,65.729 57.644 C 65.809 57.586,65.875 57.343,65.875 57.105 C 65.875 56.867,65.935 56.710,66.007 56.754 C 66.080 56.799,66.192 56.592,66.255 56.293 C 66.319 55.994,66.539 55.375,66.746 54.917 C 66.952 54.458,67.177 53.896,67.246 53.667 C 67.527 52.738,70.106 47.462,70.669 46.667 C 70.831 46.438,70.969 46.192,70.976 46.122 C 71.005 45.840,71.879 44.390,72.994 42.775 C 73.364 42.239,73.667 41.770,73.667 41.735 C 73.667 41.603,76.568 37.742,76.862 37.480 C 77.030 37.332,77.167 37.130,77.167 37.032 C 77.167 36.933,77.298 36.753,77.458 36.633 C 77.619 36.512,77.896 36.242,78.074 36.033 L 78.399 35.652 75.076 32.326 C 71.908 29.155,71.333 28.683,71.333 29.250 M167.022 47.125 C 167.096 47.652,167.199 48.983,167.251 50.083 C 167.560 56.555,167.974 59.667,168.526 59.667 C 168.603 59.667,168.667 59.817,168.667 60.000 C 168.667 60.200,168.778 60.333,168.944 60.333 C 169.097 60.333,169.176 60.380,169.119 60.437 C 169.062 60.494,169.199 60.811,169.424 61.142 C 169.649 61.473,169.833 61.853,169.833 61.986 C 169.833 62.120,169.985 62.390,170.171 62.588 C 170.357 62.786,170.538 63.091,170.573 63.266 C 170.679 63.794,170.970 64.462,171.138 64.566 C 171.225 64.619,171.345 64.870,171.404 65.123 C 171.572 65.843,171.862 66.502,171.978 66.430 C 172.036 66.395,172.095 66.527,172.109 66.724 C 172.140 67.153,172.540 68.548,172.666 68.667 C 172.813 68.804,173.333 70.939,173.333 71.402 C 173.333 71.639,173.408 71.833,173.500 71.833 C 173.592 71.833,173.667 72.048,173.667 72.310 C 173.667 73.076,173.868 74.331,173.980 74.262 C 174.164 74.149,174.178 75.158,174.265 95.542 L 174.351 115.667 178.102 115.667 L 181.853 115.667 181.779 94.708 C 181.694 70.547,181.692 70.510,180.155 65.734 C 179.886 64.900,179.667 64.134,179.667 64.030 C 179.667 63.601,177.201 58.482,176.467 57.387 C 176.210 57.003,176.000 56.653,176.000 56.607 C 176.000 56.273,173.069 52.320,172.433 51.795 C 172.241 51.637,172.143 51.506,172.217 51.504 C 172.290 51.502,172.159 51.323,171.925 51.106 C 171.691 50.889,171.500 50.630,171.500 50.531 C 171.500 50.431,171.162 50.117,170.750 49.833 C 170.337 49.550,170.000 49.207,170.000 49.071 C 170.000 48.936,169.813 48.754,169.583 48.667 C 169.354 48.580,169.167 48.464,169.167 48.411 C 169.167 48.357,169.242 48.360,169.333 48.417 C 169.659 48.618,169.491 48.399,168.883 47.828 C 168.544 47.510,168.334 47.362,168.415 47.500 C 168.543 47.715,168.525 47.718,168.284 47.523 C 168.130 47.398,168.045 47.229,168.095 47.148 C 168.145 47.067,168.121 47.000,168.042 47.000 C 167.962 47.000,167.751 46.882,167.574 46.738 C 167.396 46.593,167.362 46.524,167.500 46.583 C 167.637 46.643,167.604 46.573,167.426 46.429 C 166.924 46.022,166.880 46.098,167.022 47.125 M169.126 99.958 C 169.205 105.433,169.264 105.944,169.299 101.458 C 169.318 99.006,169.277 97.000,169.208 97.000 C 169.140 97.000,169.103 98.331,169.126 99.958 M169.957 126.708 C 168.612 127.944,168.167 128.317,168.167 128.208 C 168.167 128.144,168.050 128.259,167.907 128.463 C 167.765 128.667,167.553 128.833,167.436 128.833 C 167.320 128.833,167.049 129.021,166.833 129.250 C 166.618 129.479,166.342 129.667,166.221 129.667 C 166.099 129.667,166.000 129.731,166.000 129.810 C 166.000 129.934,165.578 130.250,163.747 131.500 C 162.493 132.356,161.386 133.059,161.053 133.211 C 160.840 133.308,160.667 133.438,160.667 133.500 C 160.667 133.562,160.235 133.823,159.708 134.079 C 159.181 134.336,158.712 134.602,158.667 134.670 C 158.564 134.822,154.639 136.833,154.445 136.833 C 154.369 136.833,153.794 137.090,153.169 137.404 C 152.543 137.718,151.986 137.931,151.932 137.877 C 151.878 137.822,151.833 137.865,151.833 137.972 C 151.833 138.079,151.713 138.167,151.566 138.167 C 151.419 138.167,150.932 138.351,150.485 138.575 C 150.037 138.800,149.407 139.034,149.084 139.094 C 148.761 139.155,148.459 139.264,148.414 139.338 C 148.369 139.411,148.032 139.522,147.666 139.583 C 147.300 139.645,147.000 139.762,147.000 139.843 C 147.000 139.923,146.897 139.950,146.772 139.902 C 145.852 139.549,146.733 140.645,150.016 143.937 C 152.024 145.951,153.667 147.535,153.667 147.456 C 153.667 147.378,153.739 147.358,153.827 147.413 C 153.915 147.467,154.365 147.321,154.826 147.087 C 155.287 146.853,155.684 146.674,155.707 146.689 C 155.818 146.758,156.629 146.424,157.019 146.150 C 157.258 145.981,157.492 145.881,157.538 145.927 C 157.643 146.032,163.799 142.892,164.121 142.569 C 164.251 142.439,164.502 142.333,164.679 142.333 C 164.855 142.333,165.000 142.277,165.000 142.208 C 165.000 142.140,165.394 141.863,165.875 141.593 C 166.356 141.324,166.852 141.003,166.976 140.879 C 167.100 140.756,167.480 140.514,167.820 140.340 C 168.161 140.166,168.537 139.906,168.657 139.762 C 168.776 139.618,168.971 139.500,169.090 139.500 C 169.208 139.500,169.331 139.437,169.361 139.359 C 169.392 139.282,169.942 138.856,170.583 138.414 C 171.225 137.972,171.984 137.417,172.269 137.180 C 172.555 136.944,173.038 136.563,173.344 136.333 C 173.650 136.104,174.146 135.681,174.448 135.394 C 174.750 135.106,175.114 134.825,175.259 134.770 C 175.403 134.714,175.473 134.592,175.415 134.497 C 175.356 134.402,175.372 134.346,175.449 134.371 C 175.592 134.417,175.851 134.228,176.591 133.534 C 177.157 133.004,177.340 133.253,173.759 129.676 C 171.977 127.895,170.556 126.377,170.602 126.302 C 170.771 126.029,170.533 126.179,169.957 126.708 M120.042 127.782 C 120.202 127.823,120.465 127.823,120.625 127.782 C 120.785 127.740,120.654 127.705,120.333 127.705 C 120.013 127.705,119.881 127.740,120.042 127.782 M102.292 134.604 C 101.673 134.916,101.167 135.128,101.167 135.076 C 101.167 135.023,100.735 135.204,100.208 135.478 C 99.681 135.751,99.075 136.025,98.860 136.087 C 98.646 136.148,98.141 136.344,97.738 136.522 C 97.335 136.701,96.967 136.845,96.921 136.843 C 96.874 136.841,96.216 137.053,95.459 137.315 C 91.463 138.698,87.824 139.582,83.627 140.189 C 82.355 140.373,82.339 140.382,82.434 140.813 C 82.537 141.279,83.273 143.776,83.914 145.833 C 84.128 146.521,84.350 147.293,84.406 147.548 C 84.463 147.804,84.662 148.420,84.848 148.916 L 85.185 149.819 86.301 149.718 C 86.915 149.662,87.454 149.562,87.500 149.497 C 87.546 149.432,87.996 149.338,88.500 149.290 C 90.221 149.124,93.645 148.293,96.333 147.390 C 97.021 147.159,97.763 146.945,97.983 146.914 C 98.202 146.883,98.427 146.785,98.483 146.696 C 98.538 146.607,98.921 146.444,99.333 146.334 C 99.746 146.223,100.379 145.990,100.740 145.816 C 101.101 145.642,101.463 145.500,101.545 145.500 C 101.695 145.500,103.364 144.804,104.917 144.094 C 105.375 143.885,105.919 143.660,106.126 143.595 C 106.451 143.493,106.469 143.446,106.262 143.238 C 106.131 143.107,105.903 142.569,105.756 142.042 C 105.387 140.719,104.702 138.484,104.228 137.054 C 104.010 136.397,103.738 135.449,103.624 134.948 L 103.417 134.037 102.292 134.604 M68.544 140.620 C 68.797 140.658,69.172 140.657,69.377 140.617 C 69.582 140.578,69.375 140.546,68.917 140.548 C 68.458 140.549,68.291 140.581,68.544 140.620 M79.542 140.619 C 79.794 140.658,80.206 140.658,80.458 140.619 C 80.710 140.581,80.504 140.550,80.000 140.550 C 79.496 140.550,79.290 140.581,79.542 140.619 M109.500 141.750 C 109.271 141.881,109.158 141.988,109.250 141.988 C 109.342 141.988,109.604 141.881,109.833 141.750 C 110.063 141.619,110.175 141.512,110.083 141.512 C 109.992 141.512,109.729 141.619,109.500 141.750 " stroke="none" fill="#1c2f97" fill-rule="evenodd"></path><path id="path1" d="M42.349 8.958 C 42.341 9.073,42.277 9.149,42.208 9.127 C 42.005 9.062,41.000 9.528,41.000 9.687 C 41.000 9.767,40.944 9.820,40.875 9.804 C 40.701 9.763,39.112 10.539,37.917 11.250 C 37.367 11.576,36.767 11.908,36.583 11.986 C 36.278 12.117,34.647 13.138,34.246 13.450 C 34.152 13.524,33.290 14.105,32.329 14.743 C 31.369 15.381,30.546 15.944,30.500 15.994 C 30.454 16.044,30.117 16.304,29.750 16.571 C 28.825 17.244,26.785 18.877,26.583 19.105 C 26.492 19.209,25.892 19.728,25.250 20.260 C 23.924 21.357,18.833 26.460,18.833 26.692 C 18.833 26.775,18.383 27.295,17.833 27.847 C 16.918 28.765,16.606 29.160,16.979 28.930 C 17.143 28.828,17.541 29.804,17.892 31.170 C 18.022 31.676,18.315 32.651,18.543 33.336 C 18.772 34.022,19.148 35.221,19.380 36.000 C 19.611 36.779,19.975 37.998,20.189 38.708 C 20.564 39.958,20.877 40.313,21.071 39.708 C 21.123 39.548,21.353 39.199,21.582 38.932 C 21.812 38.666,22.000 38.365,22.000 38.264 C 22.000 38.162,22.188 37.938,22.417 37.766 C 22.646 37.594,22.833 37.363,22.833 37.252 C 22.833 37.142,22.994 36.909,23.191 36.734 C 23.388 36.560,23.768 36.117,24.036 35.750 C 26.441 32.462,32.240 26.823,35.293 24.804 C 35.525 24.651,35.760 24.463,35.816 24.387 C 35.963 24.185,37.800 22.833,37.927 22.833 C 37.987 22.833,38.258 22.646,38.530 22.417 C 38.803 22.188,39.123 22.000,39.242 22.000 C 39.362 22.000,39.557 21.882,39.677 21.738 C 39.796 21.594,40.199 21.321,40.572 21.132 C 40.945 20.943,41.287 20.737,41.333 20.674 C 41.379 20.610,41.754 20.377,42.167 20.154 C 42.579 19.932,43.016 19.656,43.137 19.542 C 43.258 19.427,43.427 19.324,43.512 19.313 C 44.039 19.242,44.507 18.979,44.403 18.812 C 44.351 18.727,44.370 18.676,44.446 18.698 C 44.522 18.720,44.740 18.650,44.932 18.544 L 45.281 18.350 44.958 17.300 C 44.781 16.722,44.444 15.612,44.211 14.833 C 43.977 14.054,43.579 12.742,43.326 11.917 C 43.074 11.092,42.754 10.042,42.616 9.583 C 42.478 9.125,42.358 8.844,42.349 8.958 M137.500 37.334 C 136.904 37.412,135.779 37.552,135.000 37.646 C 132.869 37.902,128.680 39.135,126.336 40.196 C 124.898 40.846,122.979 41.834,122.667 42.083 C 122.529 42.193,122.298 42.324,122.154 42.375 C 121.572 42.579,118.357 44.851,118.042 45.280 C 117.927 45.436,117.833 45.504,117.833 45.431 C 117.833 45.358,117.618 45.528,117.355 45.810 C 117.092 46.091,116.841 46.286,116.797 46.242 C 116.753 46.198,115.862 47.003,114.817 48.033 L 112.917 49.904 112.962 52.160 C 112.986 53.401,113.124 55.757,113.267 57.395 C 113.411 59.033,113.492 60.514,113.446 60.687 C 113.298 61.253,113.630 61.014,113.993 60.292 C 114.320 59.642,114.560 59.221,114.867 58.759 C 114.931 58.662,115.250 58.274,115.575 57.896 C 115.900 57.519,116.167 57.143,116.167 57.062 C 116.167 56.644,120.513 52.199,121.792 51.310 C 122.181 51.039,122.500 50.746,122.500 50.659 C 122.500 50.571,122.598 50.500,122.719 50.500 C 122.839 50.500,123.100 50.348,123.299 50.163 C 128.854 44.987,141.672 42.775,150.750 45.426 C 151.483 45.640,152.271 45.867,152.500 45.930 C 152.729 45.993,153.287 46.222,153.740 46.439 C 154.192 46.656,154.650 46.833,154.758 46.833 C 154.865 46.833,155.243 47.030,155.597 47.270 C 155.951 47.510,156.318 47.720,156.412 47.735 C 156.647 47.773,158.137 48.647,158.766 49.116 C 159.049 49.327,159.368 49.500,159.474 49.500 C 159.580 49.500,159.667 49.562,159.667 49.638 C 159.667 49.715,159.985 50.006,160.375 50.287 C 160.985 50.727,163.255 52.776,163.750 53.335 C 163.842 53.439,164.198 53.815,164.542 54.172 C 164.885 54.528,165.167 54.885,165.167 54.963 C 165.167 55.042,165.354 55.270,165.583 55.469 C 165.813 55.668,166.000 55.940,166.000 56.073 C 166.000 56.206,166.135 56.412,166.299 56.532 C 166.464 56.652,166.770 57.031,166.980 57.375 C 167.189 57.719,167.429 58.000,167.514 58.000 C 167.598 58.000,167.667 58.125,167.667 58.278 C 167.667 58.431,167.711 58.511,167.766 58.456 C 167.820 58.402,167.747 56.833,167.603 54.970 C 167.327 51.409,166.969 46.572,166.954 46.194 C 166.949 46.071,166.751 45.848,166.514 45.698 C 166.277 45.548,166.022 45.328,165.948 45.209 C 165.874 45.090,165.742 45.037,165.655 45.090 C 165.569 45.144,165.453 45.071,165.398 44.927 C 165.343 44.784,165.193 44.667,165.066 44.667 C 164.938 44.667,164.833 44.568,164.833 44.448 C 164.833 44.327,164.574 44.127,164.258 44.003 C 163.941 43.879,163.719 43.717,163.764 43.643 C 163.810 43.570,163.656 43.462,163.423 43.403 C 163.191 43.345,163.000 43.244,163.000 43.178 C 163.000 43.113,162.681 42.892,162.292 42.687 C 161.902 42.483,161.358 42.176,161.083 42.007 C 159.227 40.861,154.898 39.056,153.083 38.672 C 152.717 38.594,151.629 38.341,150.667 38.109 C 147.504 37.348,140.535 36.937,137.500 37.334 M57.314 52.575 C 57.303 52.671,57.302 52.803,57.311 52.867 C 57.320 52.932,57.179 53.332,56.997 53.757 C 56.815 54.182,56.715 54.610,56.775 54.707 C 56.836 54.806,56.807 54.837,56.710 54.777 C 56.557 54.682,56.240 55.393,56.301 55.694 C 56.313 55.754,56.134 56.354,55.903 57.027 C 55.672 57.700,55.419 58.550,55.340 58.917 C 55.262 59.283,55.013 60.296,54.786 61.167 C 53.146 67.474,52.393 77.634,53.076 84.250 C 53.228 85.717,53.415 87.557,53.493 88.341 C 53.653 89.949,54.300 93.434,54.521 93.873 C 54.601 94.032,54.667 94.370,54.667 94.625 C 54.667 94.879,54.860 95.686,55.096 96.419 C 55.332 97.151,55.560 98.029,55.603 98.369 C 55.646 98.710,55.791 99.197,55.925 99.453 C 56.060 99.708,56.216 100.198,56.273 100.542 C 56.330 100.885,56.433 101.167,56.502 101.167 C 56.571 101.167,56.667 101.317,56.715 101.500 C 56.767 101.700,56.735 101.792,56.634 101.730 C 56.534 101.668,56.540 101.764,56.650 101.969 C 56.988 102.600,57.220 103.248,57.185 103.461 C 57.166 103.577,57.216 103.652,57.295 103.628 C 57.374 103.603,64.213 110.258,72.492 118.417 C 83.591 129.354,87.462 133.265,87.230 133.308 C 87.058 133.340,86.850 133.429,86.768 133.507 C 86.561 133.702,87.341 133.491,87.750 133.241 C 87.933 133.129,88.365 132.948,88.708 132.839 C 89.052 132.730,89.333 132.572,89.333 132.487 C 89.333 132.403,89.446 132.333,89.583 132.333 C 89.721 132.333,89.833 132.254,89.833 132.157 C 89.833 132.060,89.900 132.022,89.983 132.073 C 90.099 132.145,90.333 131.828,90.333 131.598 C 90.333 131.575,90.020 131.304,89.637 130.997 C 89.255 130.689,89.003 130.545,89.079 130.677 C 89.154 130.809,89.052 130.748,88.851 130.542 C 88.651 130.335,88.411 130.167,88.317 130.167 C 88.223 130.167,88.191 130.095,88.245 130.008 C 88.299 129.921,88.179 129.762,87.979 129.655 C 87.778 129.548,87.070 129.019,86.405 128.480 C 85.741 127.941,85.115 127.500,85.015 127.500 C 84.915 127.500,84.833 127.396,84.833 127.269 C 84.833 127.075,84.104 126.461,83.833 126.427 C 83.787 126.421,83.525 126.158,83.250 125.842 C 82.975 125.526,82.460 125.001,82.105 124.675 C 81.750 124.350,81.305 123.915,81.117 123.708 C 80.928 123.502,80.674 123.333,80.553 123.333 C 80.432 123.333,80.333 123.230,80.333 123.105 C 80.333 122.979,79.977 122.505,79.542 122.052 C 79.106 121.598,78.375 120.792,77.917 120.260 C 77.458 119.728,76.965 119.164,76.821 119.008 C 76.676 118.852,76.510 118.599,76.451 118.446 C 76.392 118.292,76.266 118.167,76.172 118.167 C 76.077 118.167,76.000 118.092,76.000 118.000 C 76.000 117.908,75.869 117.691,75.708 117.517 C 75.548 117.343,75.229 116.928,75.000 116.596 C 74.771 116.263,74.452 115.832,74.292 115.637 C 74.131 115.442,74.000 115.233,74.000 115.173 C 74.000 115.112,73.866 114.917,73.702 114.740 C 73.538 114.562,73.111 113.929,72.754 113.333 C 72.396 112.737,72.054 112.212,71.994 112.167 C 71.887 112.085,71.652 111.670,71.050 110.500 C 70.885 110.179,70.704 109.879,70.647 109.833 C 70.518 109.730,69.054 106.817,68.343 105.250 C 68.051 104.608,67.667 103.795,67.490 103.443 C 67.312 103.090,67.167 102.736,67.167 102.656 C 67.167 102.576,66.979 102.100,66.750 101.599 C 66.521 101.098,66.333 100.581,66.333 100.450 C 66.333 100.320,66.108 99.667,65.833 99.000 C 65.558 98.333,65.333 97.690,65.333 97.571 C 65.333 97.451,65.154 96.768,64.934 96.052 C 62.603 88.451,61.747 75.796,63.088 68.750 C 63.228 68.017,63.378 67.045,63.421 66.592 C 63.465 66.138,63.688 65.062,63.917 64.201 C 64.146 63.340,64.292 62.567,64.240 62.484 C 64.189 62.401,64.219 62.333,64.306 62.333 C 64.448 62.333,64.647 61.413,64.677 60.625 C 64.683 60.465,64.766 60.333,64.862 60.333 C 64.957 60.333,64.993 60.223,64.942 60.089 C 64.890 59.954,64.920 59.800,65.007 59.746 C 65.095 59.691,65.167 59.562,65.167 59.458 C 65.167 59.355,65.073 59.398,64.958 59.556 C 64.772 59.810,64.337 59.429,61.041 56.121 C 59.002 54.074,57.324 52.479,57.314 52.575 M110.333 69.250 C 110.226 69.769,110.171 70.226,110.212 70.267 C 110.252 70.308,110.371 69.914,110.476 69.393 C 110.581 68.871,110.636 68.413,110.598 68.376 C 110.560 68.338,110.441 68.731,110.333 69.250 M30.165 71.542 C 30.164 71.656,30.309 72.200,30.487 72.750 C 30.666 73.300,30.924 74.125,31.062 74.583 L 31.313 75.417 31.323 73.375 L 31.333 71.333 30.750 71.333 C 30.395 71.333,30.166 71.415,30.165 71.542 M109.570 77.500 C 109.570 79.379,109.595 80.148,109.624 79.208 C 109.654 78.269,109.654 76.731,109.624 75.792 C 109.595 74.852,109.570 75.621,109.570 77.500 M174.247 96.583 C 174.247 107.033,174.267 111.333,174.292 106.138 C 174.316 100.943,174.316 92.393,174.292 87.138 C 174.267 81.883,174.247 86.133,174.247 96.583 M168.442 97.425 C 168.107 97.750,167.833 98.076,167.833 98.149 C 167.833 98.222,167.693 98.350,167.522 98.433 C 167.351 98.516,166.807 98.933,166.314 99.361 C 165.553 100.020,164.370 101.000,162.333 102.656 C 161.509 103.327,160.918 103.753,159.843 104.453 C 159.242 104.845,158.637 105.241,158.500 105.333 C 157.786 105.811,156.274 106.667,156.143 106.667 C 156.061 106.667,155.696 106.854,155.333 107.083 C 154.970 107.313,154.603 107.500,154.517 107.500 C 154.431 107.500,153.999 107.657,153.555 107.849 C 148.492 110.039,139.054 110.450,132.913 108.747 C 130.270 108.013,126.790 106.630,126.140 106.054 C 125.987 105.919,125.762 105.791,125.640 105.770 C 125.417 105.732,123.492 104.539,123.333 104.341 C 123.287 104.284,122.688 103.834,122.000 103.341 C 121.313 102.848,120.600 102.287,120.417 102.094 C 120.233 101.900,119.931 101.631,119.745 101.496 C 119.560 101.361,119.240 101.032,119.034 100.766 C 118.829 100.500,118.448 100.125,118.188 99.932 C 117.928 99.740,117.723 99.544,117.732 99.496 C 117.742 99.447,117.460 99.054,117.105 98.621 C 116.458 97.831,116.007 97.557,116.321 98.144 C 116.412 98.314,116.565 99.983,116.661 101.852 C 116.756 103.721,116.909 105.951,117.001 106.807 C 117.092 107.664,117.130 108.424,117.085 108.497 C 116.979 108.669,117.414 109.030,117.557 108.887 C 117.617 108.827,117.667 108.885,117.667 109.015 C 117.667 109.267,118.307 109.749,118.450 109.605 C 118.497 109.559,118.704 109.703,118.912 109.927 C 119.119 110.150,119.373 110.333,119.477 110.333 C 119.582 110.333,119.667 110.408,119.667 110.500 C 119.667 110.592,119.779 110.667,119.917 110.667 C 120.054 110.667,120.167 110.737,120.167 110.822 C 120.167 110.908,120.317 111.025,120.501 111.084 C 120.685 111.142,121.063 111.381,121.341 111.616 C 121.620 111.850,121.895 111.994,121.953 111.936 C 122.011 111.878,122.245 112.000,122.473 112.207 C 122.701 112.414,122.832 112.471,122.765 112.333 C 122.673 112.147,122.699 112.152,122.865 112.353 C 123.073 112.604,125.514 113.833,125.806 113.833 C 125.878 113.833,126.308 114.011,126.760 114.229 C 127.213 114.446,127.843 114.681,128.160 114.750 C 128.477 114.819,129.064 115.016,129.465 115.187 C 129.866 115.359,130.581 115.568,131.055 115.651 C 131.529 115.735,132.779 115.990,133.833 116.218 C 137.171 116.940,143.292 117.096,148.333 116.586 C 149.598 116.459,152.692 115.722,154.004 115.236 C 154.602 115.015,155.146 114.833,155.212 114.833 C 155.364 114.833,157.919 113.566,159.250 112.831 C 159.800 112.528,160.475 112.164,160.750 112.023 C 161.025 111.883,161.325 111.707,161.417 111.632 C 161.813 111.308,162.860 110.667,162.994 110.667 C 163.073 110.667,163.164 110.610,163.194 110.540 C 163.225 110.471,163.794 110.045,164.458 109.594 C 165.123 109.143,165.667 108.725,165.667 108.663 C 165.667 108.602,165.929 108.411,166.250 108.238 C 166.571 108.066,166.833 107.865,166.833 107.792 C 166.833 107.719,167.021 107.574,167.250 107.470 C 167.479 107.365,167.667 107.179,167.667 107.057 C 167.667 106.934,167.779 106.833,167.917 106.833 C 168.054 106.833,168.167 106.758,168.167 106.667 C 168.167 106.575,168.245 106.500,168.340 106.500 C 169.121 106.500,169.180 106.123,169.130 101.441 C 169.100 98.593,169.143 96.975,169.250 96.930 C 169.350 96.888,169.343 96.854,169.234 96.846 C 169.133 96.839,168.777 97.099,168.442 97.425 M49.716 136.284 C 49.844 136.540,50.042 137.125,50.157 137.583 C 50.272 138.042,50.535 138.942,50.741 139.583 C 50.947 140.225,51.363 141.575,51.664 142.583 C 51.965 143.592,52.389 144.961,52.606 145.626 C 53.085 147.098,53.104 147.405,52.708 147.267 C 52.449 147.177,52.451 147.192,52.725 147.405 C 52.894 147.536,53.123 147.609,53.233 147.567 C 53.343 147.525,53.938 147.680,54.554 147.912 C 55.170 148.144,55.939 148.333,56.264 148.333 C 56.588 148.333,56.811 148.402,56.759 148.485 C 56.707 148.569,56.984 148.686,57.374 148.747 C 57.764 148.807,58.983 149.034,60.083 149.253 C 61.183 149.471,62.908 149.766,63.917 149.907 C 64.925 150.049,66.275 150.246,66.917 150.347 C 70.749 150.947,84.348 150.541,85.084 149.805 C 85.119 149.770,84.973 149.218,84.761 148.579 C 84.548 147.940,84.184 146.779,83.951 146.000 C 83.718 145.221,83.303 143.833,83.029 142.917 C 82.755 142.000,82.483 141.037,82.425 140.777 C 82.344 140.414,82.252 140.330,82.035 140.416 C 81.878 140.478,80.119 140.599,78.125 140.684 C 69.226 141.062,62.147 140.137,54.094 137.543 C 53.642 137.397,53.173 137.278,53.053 137.278 C 52.932 137.278,52.833 137.215,52.833 137.139 C 52.833 137.063,52.702 137.000,52.542 136.999 C 52.381 136.998,52.035 136.886,51.773 136.749 C 51.510 136.612,51.188 136.500,51.058 136.500 C 50.927 136.500,50.519 136.347,50.152 136.159 L 49.484 135.818 49.716 136.284 M144.958 140.418 C 144.340 140.634,143.833 140.764,143.833 140.706 C 143.833 140.648,143.743 140.690,143.633 140.800 C 143.523 140.910,143.253 141.000,143.032 141.000 C 142.811 141.000,142.020 141.147,141.273 141.326 C 132.728 143.377,121.961 143.335,112.359 141.213 C 111.210 140.959,111.107 140.961,110.692 141.231 C 110.449 141.390,109.912 141.676,109.500 141.866 C 109.087 142.056,108.563 142.337,108.333 142.490 C 107.965 142.736,107.237 143.079,104.750 144.179 C 102.820 145.033,101.675 145.500,101.511 145.500 C 101.411 145.500,101.161 145.594,100.956 145.708 C 100.751 145.823,100.558 145.929,100.528 145.944 C 100.498 145.959,101.023 146.504,101.695 147.154 C 102.367 147.803,102.767 148.285,102.583 148.224 C 102.400 148.163,102.298 148.167,102.357 148.233 C 102.416 148.299,102.710 148.384,103.011 148.422 C 103.312 148.460,103.602 148.550,103.654 148.621 C 103.795 148.812,105.654 149.405,106.024 149.377 C 106.198 149.364,106.297 149.424,106.244 149.510 C 106.191 149.596,106.329 149.667,106.552 149.667 C 106.774 149.667,107.435 149.821,108.020 150.010 C 108.605 150.199,109.233 150.358,109.417 150.363 C 109.600 150.367,109.900 150.431,110.083 150.504 C 110.620 150.716,114.427 151.500,114.944 151.504 C 115.204 151.506,116.279 151.656,117.333 151.837 C 120.105 152.314,128.880 152.620,132.167 152.354 C 135.386 152.094,139.920 151.455,142.333 150.922 C 142.929 150.790,143.867 150.589,144.417 150.475 C 144.967 150.360,145.791 150.132,146.248 149.967 C 146.705 149.802,147.204 149.667,147.357 149.667 C 147.510 149.667,148.186 149.473,148.859 149.237 C 149.532 149.000,150.256 148.782,150.466 148.751 C 150.677 148.720,150.946 148.614,151.065 148.515 C 151.184 148.417,151.330 148.386,151.390 148.446 C 151.451 148.506,151.500 148.468,151.500 148.361 C 151.500 148.254,151.672 148.167,151.883 148.167 C 152.094 148.167,152.340 148.094,152.429 148.005 C 152.518 147.916,152.756 147.818,152.958 147.787 C 153.160 147.756,153.379 147.676,153.446 147.609 C 153.513 147.542,151.937 145.856,149.944 143.861 C 147.951 141.867,146.374 140.182,146.438 140.117 C 146.649 139.907,146.105 140.017,144.958 140.418 M98.782 146.450 C 98.442 146.538,98.481 146.863,98.844 146.961 C 99.042 147.014,99.044 146.998,98.856 146.866 C 98.681 146.743,98.738 146.667,99.106 146.533 C 99.582 146.360,99.354 146.302,98.782 146.450 " stroke="none" fill="#15248c" fill-rule="evenodd"></path><path id="path2" d="M16.704 29.165 C 16.507 29.377,16.381 29.609,16.425 29.680 C 16.469 29.752,16.418 29.865,16.310 29.931 C 16.181 30.011,16.156 29.973,16.237 29.817 C 16.303 29.689,16.185 29.808,15.973 30.083 C 15.760 30.358,15.436 30.738,15.252 30.927 C 15.067 31.116,14.810 31.472,14.680 31.719 C 14.550 31.965,14.381 32.167,14.305 32.167 C 14.229 32.167,14.167 32.273,14.167 32.403 C 14.167 32.533,14.103 32.664,14.026 32.694 C 13.949 32.725,13.557 33.237,13.155 33.833 C 12.753 34.429,12.367 34.942,12.296 34.972 C 12.225 35.003,12.167 35.123,12.167 35.238 C 12.167 35.354,12.035 35.605,11.875 35.797 C 11.372 36.396,9.140 40.167,9.288 40.167 C 9.341 40.167,9.270 40.298,9.129 40.458 C 8.847 40.780,8.014 42.393,6.869 44.833 C 6.632 45.337,6.261 46.105,6.044 46.539 C 5.826 46.973,5.618 47.484,5.582 47.674 C 5.545 47.864,5.324 48.437,5.091 48.947 C 4.858 49.457,4.667 49.963,4.667 50.072 C 4.667 50.181,4.517 50.581,4.333 50.961 C 4.150 51.340,3.895 52.048,3.766 52.534 C 3.637 53.019,3.444 53.642,3.336 53.917 C 3.228 54.192,3.000 54.942,2.831 55.583 C 2.661 56.225,2.401 57.163,2.253 57.667 C 2.105 58.171,1.922 58.958,1.846 59.417 C 1.771 59.875,1.554 60.962,1.365 61.833 C -0.174 68.933,-0.457 78.581,0.663 85.750 C 0.834 86.850,1.021 88.162,1.077 88.667 C 1.134 89.171,1.319 90.183,1.489 90.917 C 1.660 91.650,1.886 92.737,1.992 93.333 C 2.208 94.540,3.013 97.424,3.876 100.083 C 4.279 101.324,5.830 105.353,5.993 105.583 C 6.058 105.675,6.209 106.013,6.329 106.333 C 6.515 106.831,7.563 109.023,8.125 110.089 C 8.220 110.269,8.386 110.604,8.493 110.833 C 8.601 111.063,8.906 111.625,9.172 112.083 C 9.437 112.542,9.884 113.329,10.165 113.833 C 10.446 114.337,10.805 114.946,10.963 115.186 C 11.121 115.426,11.512 116.038,11.833 116.546 C 12.952 118.317,14.385 120.333,14.525 120.333 C 14.603 120.333,14.667 120.417,14.667 120.520 C 14.667 120.622,14.894 120.978,15.172 121.311 C 15.451 121.644,15.733 121.992,15.800 122.083 C 16.186 122.615,18.179 125.004,18.712 125.576 C 20.868 127.887,21.305 128.357,21.796 128.898 C 22.096 129.229,22.385 129.500,22.438 129.500 C 22.491 129.500,22.970 129.931,23.502 130.458 C 25.289 132.229,29.824 136.000,30.166 136.000 C 30.258 136.000,30.333 136.067,30.333 136.148 C 30.333 136.230,30.783 136.586,31.332 136.940 C 31.881 137.294,32.331 137.640,32.332 137.708 C 32.333 137.777,32.435 137.833,32.559 137.833 C 32.683 137.833,32.987 138.021,33.234 138.250 C 33.482 138.479,33.763 138.667,33.860 138.667 C 33.956 138.667,34.343 138.910,34.719 139.208 C 35.095 139.506,35.423 139.712,35.446 139.667 C 35.470 139.621,35.640 139.713,35.825 139.870 C 36.009 140.028,36.555 140.357,37.038 140.601 C 37.521 140.844,37.954 141.100,38.000 141.170 C 38.046 141.239,38.346 141.413,38.667 141.556 C 38.987 141.698,39.438 141.921,39.667 142.050 C 40.571 142.561,41.836 143.193,43.000 143.715 C 43.504 143.942,44.292 144.297,44.750 144.505 C 46.418 145.263,49.833 146.525,49.833 146.384 C 49.833 146.334,49.927 146.369,50.042 146.463 C 50.156 146.557,50.681 146.733,51.208 146.855 C 51.735 146.976,52.167 147.124,52.167 147.184 C 52.167 147.243,52.354 147.292,52.583 147.292 C 53.100 147.292,53.102 147.149,52.606 145.626 C 52.389 144.961,51.966 143.592,51.664 142.583 C 51.363 141.575,50.978 140.333,50.808 139.823 C 50.639 139.313,50.359 138.356,50.186 137.697 C 49.821 136.307,49.452 135.667,49.017 135.667 C 48.847 135.667,48.614 135.554,48.500 135.417 C 48.386 135.279,48.197 135.167,48.079 135.167 C 47.846 135.167,43.997 133.214,42.453 132.313 C 41.922 132.003,41.285 131.637,41.036 131.499 C 40.040 130.946,35.667 127.940,35.667 127.808 C 35.667 127.730,35.610 127.685,35.542 127.707 C 34.664 127.993,25.122 118.335,22.245 114.250 C 21.793 113.608,21.365 113.058,21.295 113.028 C 21.224 112.997,21.167 112.885,21.166 112.778 C 21.166 112.671,20.979 112.365,20.750 112.099 C 20.521 111.833,20.333 111.547,20.333 111.464 C 20.333 111.381,20.071 110.970,19.750 110.549 C 19.429 110.129,19.167 109.718,19.167 109.636 C 19.167 109.553,19.085 109.395,18.986 109.285 C 18.492 108.735,14.667 101.137,14.667 100.707 C 14.667 100.556,14.306 99.715,13.989 99.127 C 13.904 98.968,13.833 98.737,13.833 98.614 C 13.833 98.491,13.637 97.909,13.398 97.320 C 12.932 96.176,12.000 92.573,12.000 91.918 C 12.000 91.701,11.775 90.625,11.500 89.527 C 11.225 88.429,11.000 87.280,11.000 86.974 C 11.000 86.667,10.895 85.854,10.766 85.167 C 10.637 84.479,10.479 83.298,10.415 82.542 L 10.299 81.167 20.816 81.167 L 31.333 81.167 31.333 78.352 C 31.333 76.259,31.265 75.309,31.067 74.644 C 30.921 74.152,30.639 73.208,30.442 72.545 L 30.083 71.339 20.071 71.336 L 10.060 71.333 10.117 70.042 C 10.148 69.331,10.327 67.887,10.513 66.833 C 10.699 65.779,10.920 64.429,11.003 63.833 C 11.086 63.237,11.343 62.112,11.574 61.333 C 11.804 60.554,11.995 59.771,11.997 59.593 C 12.001 59.184,12.734 56.801,13.358 55.167 C 13.620 54.479,13.835 53.823,13.834 53.708 C 13.834 53.592,14.021 53.110,14.250 52.635 C 14.479 52.160,14.667 51.691,14.667 51.594 C 14.667 51.496,14.883 50.967,15.148 50.417 C 16.537 47.528,16.861 46.867,17.145 46.333 C 17.316 46.012,17.581 45.487,17.735 45.167 C 18.062 44.482,18.230 44.193,18.958 43.062 C 19.256 42.599,19.500 42.166,19.500 42.099 C 19.500 42.031,19.594 41.872,19.708 41.744 C 20.210 41.184,20.339 41.000,20.228 41.000 C 20.162 41.000,20.288 40.809,20.508 40.575 C 20.744 40.324,20.841 40.101,20.744 40.033 C 20.558 39.901,20.261 39.038,19.499 36.417 C 19.206 35.408,18.757 33.946,18.501 33.167 C 18.245 32.387,17.939 31.375,17.822 30.917 C 17.704 30.458,17.486 29.790,17.336 29.431 L 17.064 28.779 16.704 29.165 M112.645 50.208 C 112.535 50.415,112.102 50.934,111.681 51.363 C 110.781 52.280,110.500 52.613,110.500 52.761 C 110.500 52.820,110.330 53.003,110.121 53.166 C 109.913 53.330,109.638 53.731,109.510 54.058 C 109.382 54.384,109.215 54.613,109.139 54.566 C 109.062 54.519,109.000 54.594,109.000 54.732 C 109.000 54.870,108.895 55.043,108.768 55.117 C 108.640 55.190,108.307 55.625,108.029 56.083 C 107.383 57.144,106.101 59.391,106.079 59.500 C 106.069 59.546,105.868 59.996,105.630 60.500 C 104.515 62.871,103.379 65.946,103.254 66.932 C 103.221 67.199,103.035 68.017,102.842 68.750 C 102.133 71.442,101.778 78.100,102.163 81.500 C 102.251 82.279,102.364 83.404,102.413 84.000 C 102.538 85.506,103.975 91.031,104.624 92.501 C 105.777 95.111,106.395 96.427,106.501 96.500 C 106.567 96.546,106.791 96.916,106.997 97.323 C 107.203 97.730,107.476 98.166,107.603 98.293 C 107.730 98.420,107.833 98.594,107.833 98.679 C 107.833 98.827,109.120 100.590,110.121 101.815 C 110.375 102.126,110.606 102.438,110.634 102.509 C 110.662 102.579,111.254 103.225,111.951 103.943 C 112.648 104.662,113.157 105.145,113.083 105.016 C 112.993 104.859,113.012 104.821,113.141 104.901 C 113.247 104.966,113.333 105.096,113.333 105.188 C 113.333 105.428,113.773 105.838,113.897 105.714 C 113.954 105.658,114.000 105.718,114.000 105.849 C 114.000 105.980,114.202 106.237,114.449 106.419 C 114.696 106.601,115.109 106.967,115.366 107.233 C 115.623 107.499,115.833 107.665,115.833 107.601 C 115.833 107.538,115.938 107.584,116.066 107.702 C 116.194 107.820,116.271 107.962,116.238 108.017 C 116.174 108.123,117.004 108.551,117.096 108.460 C 117.125 108.431,117.040 107.022,116.908 105.329 C 116.775 103.635,116.601 101.350,116.520 100.250 C 116.355 97.995,116.311 97.744,116.032 97.465 C 115.923 97.356,115.832 97.188,115.830 97.092 C 115.829 96.995,115.642 96.740,115.414 96.525 C 115.187 96.309,115.050 96.054,115.110 95.957 C 115.169 95.861,115.140 95.830,115.045 95.889 C 114.950 95.948,114.779 95.772,114.666 95.498 C 114.552 95.224,114.389 95.000,114.303 95.000 C 114.217 95.000,114.194 94.924,114.251 94.832 C 114.308 94.740,114.238 94.619,114.095 94.565 C 113.952 94.510,113.877 94.398,113.927 94.316 C 113.978 94.234,113.959 94.167,113.884 94.167 C 113.750 94.167,113.308 93.302,113.312 93.047 C 113.312 92.975,113.155 92.748,112.961 92.542 C 112.767 92.335,112.664 92.167,112.732 92.167 C 112.800 92.167,112.686 91.928,112.479 91.637 C 112.271 91.345,112.181 91.156,112.279 91.216 C 112.376 91.276,112.340 91.069,112.197 90.755 C 112.055 90.442,111.894 90.213,111.838 90.247 C 111.783 90.281,111.731 90.183,111.721 90.029 C 111.702 89.698,111.327 88.459,110.841 87.117 C 110.648 86.585,110.535 86.079,110.588 85.992 C 110.642 85.905,110.612 85.833,110.520 85.833 C 110.429 85.833,110.360 85.702,110.368 85.542 C 110.375 85.381,110.263 84.688,110.119 84.000 C 109.190 79.584,109.322 73.605,110.448 69.000 C 110.594 68.404,110.721 67.755,110.732 67.558 C 110.742 67.360,110.799 67.229,110.859 67.266 C 111.018 67.364,111.348 66.326,111.222 66.122 C 111.160 66.021,111.196 65.998,111.308 66.067 C 111.431 66.143,111.500 66.055,111.500 65.822 C 111.500 65.364,112.650 62.457,112.893 62.301 C 112.992 62.237,113.021 62.132,112.956 62.067 C 112.891 62.003,112.959 61.862,113.106 61.754 C 113.509 61.459,113.542 60.534,113.262 57.333 C 113.121 55.729,112.986 53.386,112.962 52.126 C 112.937 50.866,112.901 49.835,112.881 49.834 C 112.861 49.834,112.755 50.002,112.645 50.208 M57.289 103.600 C 57.201 103.688,57.642 104.660,57.850 104.833 C 57.905 104.879,57.955 105.029,57.961 105.167 C 57.998 105.930,58.693 107.409,58.920 107.204 C 58.993 107.138,58.997 107.180,58.929 107.299 C 58.861 107.418,58.889 107.616,58.991 107.740 C 59.094 107.864,59.168 108.029,59.154 108.107 C 59.114 108.352,59.366 109.000,59.501 109.000 C 59.572 109.000,59.681 109.206,59.742 109.458 C 59.902 110.116,60.377 111.167,60.514 111.167 C 60.578 111.167,60.757 111.485,60.912 111.875 C 61.068 112.265,61.355 112.845,61.551 113.164 C 61.748 113.483,61.922 113.837,61.939 113.949 C 61.955 114.062,62.126 114.375,62.318 114.645 C 62.510 114.914,62.667 115.185,62.667 115.246 C 62.667 115.307,62.892 115.684,63.167 116.083 C 63.442 116.483,63.667 116.885,63.667 116.976 C 63.667 117.068,63.760 117.245,63.875 117.371 C 64.603 118.166,64.884 118.535,64.667 118.408 C 64.529 118.328,64.642 118.560,64.917 118.924 C 65.192 119.287,65.492 119.707,65.583 119.856 C 66.086 120.676,67.047 122.000,67.141 122.003 C 67.201 122.005,67.475 122.388,67.750 122.856 C 68.025 123.323,68.456 123.896,68.708 124.130 C 68.960 124.364,69.167 124.606,69.167 124.668 C 69.167 124.786,69.935 125.721,70.696 126.527 C 70.941 126.787,71.091 127.001,71.029 127.002 C 70.967 127.004,71.348 127.411,71.875 127.908 C 72.402 128.405,72.833 128.848,72.833 128.891 C 72.833 129.053,76.824 133.000,76.987 133.000 C 77.081 133.000,77.323 133.225,77.526 133.500 C 77.730 133.775,77.986 134.000,78.097 134.000 C 78.207 134.000,78.338 134.105,78.387 134.232 C 78.691 135.024,79.621 135.380,80.791 135.152 C 81.410 135.032,82.013 134.952,82.130 134.975 C 82.247 134.998,82.997 134.812,83.797 134.561 C 84.596 134.310,85.362 134.094,85.500 134.080 C 85.968 134.034,86.582 133.785,86.749 133.573 C 86.841 133.457,87.055 133.336,87.225 133.306 C 87.451 133.265,86.237 131.971,82.636 128.417 C 62.734 108.770,57.370 103.519,57.289 103.600 M50.333 136.250 C 50.563 136.381,50.825 136.488,50.917 136.488 C 51.008 136.488,50.896 136.381,50.667 136.250 C 50.438 136.119,50.175 136.012,50.083 136.012 C 49.992 136.012,50.104 136.119,50.333 136.250 M119.042 142.448 C 119.202 142.490,119.465 142.490,119.625 142.448 C 119.785 142.406,119.654 142.372,119.333 142.372 C 119.013 142.372,118.881 142.406,119.042 142.448 M134.708 142.448 C 134.869 142.490,135.131 142.490,135.292 142.448 C 135.452 142.406,135.321 142.372,135.000 142.372 C 134.679 142.372,134.548 142.406,134.708 142.448 M99.528 146.380 C 98.678 146.707,98.628 146.872,99.334 147.029 C 99.467 147.059,99.677 147.178,99.801 147.293 C 99.925 147.409,100.101 147.457,100.191 147.402 C 100.282 147.346,100.444 147.406,100.553 147.537 C 100.661 147.667,101.157 147.872,101.654 147.993 C 102.152 148.114,102.808 148.360,103.113 148.539 C 103.428 148.725,103.667 148.787,103.667 148.683 C 103.667 148.582,103.547 148.500,103.400 148.500 C 103.254 148.500,102.635 148.028,102.025 147.452 C 100.418 145.933,100.548 145.989,99.528 146.380 M53.333 147.667 C 53.471 147.756,53.733 147.824,53.917 147.819 L 54.250 147.810 53.917 147.667 C 53.418 147.453,53.002 147.453,53.333 147.667 M123.381 152.457 C 123.912 152.490,124.737 152.490,125.214 152.456 C 125.692 152.422,125.258 152.395,124.250 152.396 C 123.242 152.396,122.851 152.424,123.381 152.457 " stroke="none" fill="#111981" fill-rule="evenodd"></path><path id="path3" d="M80.211 1.953 C 80.464 1.991,80.839 1.990,81.044 1.951 C 81.249 1.911,81.042 1.880,80.583 1.881 C 80.125 1.882,79.957 1.915,80.211 1.953 M87.500 2.953 C 87.500 3.018,87.604 3.375,87.731 3.744 C 87.857 4.114,88.168 5.129,88.421 6.000 C 88.963 7.868,89.697 10.257,90.262 12.000 C 90.505 12.748,90.600 13.272,90.500 13.306 C 90.407 13.337,90.372 13.427,90.421 13.507 C 90.470 13.587,90.607 13.615,90.725 13.570 C 90.842 13.525,91.585 13.708,92.375 13.977 C 93.166 14.245,93.855 14.423,93.906 14.372 C 93.958 14.320,94.000 14.370,94.000 14.482 C 94.000 14.594,94.069 14.644,94.153 14.592 C 94.298 14.502,95.786 15.017,98.164 15.979 C 98.759 16.220,99.267 16.394,99.294 16.367 C 99.320 16.340,99.696 16.499,100.129 16.722 C 100.562 16.944,102.004 17.670,103.333 18.334 C 105.738 19.537,108.213 20.883,108.794 21.304 C 108.962 21.426,109.433 21.741,109.841 22.005 C 110.249 22.269,111.221 22.939,112.000 23.494 C 112.779 24.048,113.604 24.632,113.833 24.790 C 114.063 24.948,114.348 25.210,114.468 25.372 C 114.588 25.534,114.786 25.667,114.908 25.667 C 115.031 25.667,115.168 25.763,115.213 25.881 C 115.495 26.616,116.619 27.038,117.783 26.847 C 121.283 26.272,124.988 25.897,128.237 25.789 L 129.391 25.750 128.288 24.583 C 127.682 23.942,127.081 23.304,126.953 23.167 C 126.754 22.952,125.062 21.397,123.510 20.000 C 123.255 19.771,122.721 19.321,122.324 19.000 C 120.689 17.681,120.233 17.304,119.893 16.993 C 119.697 16.814,119.462 16.667,119.372 16.667 C 119.281 16.667,119.105 16.541,118.979 16.388 C 118.853 16.235,118.206 15.753,117.541 15.318 C 116.391 14.565,116.354 14.522,116.791 14.434 C 124.453 12.890,136.979 13.632,144.869 16.098 C 145.576 16.319,146.245 16.500,146.355 16.500 C 146.465 16.500,147.124 16.714,147.819 16.976 C 148.514 17.238,149.346 17.546,149.667 17.662 C 151.775 18.420,152.378 18.667,152.885 18.981 C 153.199 19.175,153.542 19.333,153.646 19.333 C 153.751 19.333,154.455 19.644,155.210 20.023 C 155.965 20.402,157.008 20.923,157.526 21.181 C 158.045 21.439,158.518 21.728,158.578 21.825 C 158.638 21.921,158.797 22.000,158.933 22.000 C 159.186 22.000,160.206 22.650,160.306 22.875 C 160.336 22.944,160.481 23.000,160.628 23.000 C 160.775 23.000,161.050 23.135,161.239 23.301 C 161.428 23.466,162.071 23.891,162.667 24.246 C 163.262 24.601,163.929 25.066,164.148 25.279 C 164.366 25.492,164.648 25.667,164.773 25.667 C 164.898 25.667,165.000 25.725,165.000 25.797 C 165.000 25.869,165.219 26.058,165.487 26.216 C 166.038 26.541,168.201 28.287,168.835 28.917 C 169.065 29.146,169.340 29.333,169.446 29.333 C 169.552 29.333,169.664 29.396,169.694 29.474 C 169.725 29.551,170.444 30.271,171.291 31.075 L 172.832 32.537 174.367 31.143 C 175.211 30.377,176.025 29.637,176.176 29.500 C 176.427 29.272,176.835 28.932,178.000 27.983 C 178.229 27.797,178.679 27.425,179.000 27.157 C 179.321 26.889,179.715 26.627,179.875 26.574 C 180.348 26.418,180.251 26.287,178.384 24.563 C 177.403 23.657,176.359 22.692,176.065 22.417 C 175.770 22.142,175.302 21.729,175.025 21.500 C 174.748 21.271,174.310 20.896,174.052 20.666 C 173.794 20.437,173.077 19.879,172.458 19.426 C 171.840 18.973,171.333 18.542,171.333 18.468 C 171.333 18.394,171.226 18.333,171.095 18.333 C 170.964 18.333,170.738 18.215,170.593 18.069 C 170.198 17.674,168.824 16.714,168.208 16.403 C 167.910 16.252,167.667 16.067,167.667 15.992 C 167.667 15.917,167.498 15.802,167.292 15.737 C 167.085 15.672,166.671 15.431,166.370 15.203 C 165.807 14.774,165.121 14.366,164.250 13.941 C 163.975 13.807,163.563 13.556,163.333 13.383 C 163.104 13.211,162.392 12.821,161.750 12.517 C 161.108 12.212,160.396 11.866,160.167 11.747 C 159.134 11.212,158.690 10.995,157.833 10.604 C 156.236 9.875,154.533 9.167,154.378 9.167 C 154.296 9.167,153.840 8.979,153.365 8.750 C 152.890 8.521,152.370 8.331,152.209 8.329 C 152.048 8.326,151.394 8.101,150.755 7.829 C 150.116 7.556,149.483 7.333,149.348 7.333 C 149.213 7.333,148.499 7.148,147.760 6.922 C 144.696 5.983,139.680 4.906,137.250 4.665 C 136.517 4.593,134.679 4.405,133.167 4.249 C 126.510 3.561,115.983 4.358,109.786 6.019 C 108.798 6.283,107.888 6.500,107.764 6.500 C 107.572 6.500,106.424 6.843,104.465 7.485 C 103.987 7.641,103.182 7.434,101.906 6.824 C 101.533 6.646,101.158 6.500,101.072 6.501 C 100.987 6.501,100.354 6.285,99.667 6.020 C 98.468 5.557,97.253 5.171,94.167 4.271 C 92.961 3.920,91.540 3.622,90.917 3.592 C 90.825 3.587,90.712 3.538,90.667 3.483 C 90.436 3.206,87.500 2.715,87.500 2.953 M284.833 37.498 C 283.504 37.657,281.779 37.956,281.000 38.161 C 280.221 38.367,279.283 38.595,278.917 38.667 C 278.175 38.813,275.927 39.612,274.809 40.127 C 272.536 41.173,271.061 41.915,270.865 42.111 C 270.743 42.233,270.582 42.333,270.508 42.333 C 270.300 42.333,268.485 43.456,268.085 43.832 C 267.889 44.016,267.677 44.167,267.614 44.167 C 267.426 44.167,265.500 45.709,265.500 45.860 C 265.500 45.937,265.407 46.000,265.293 46.000 C 265.180 46.000,264.899 46.187,264.668 46.416 C 264.438 46.645,263.499 47.564,262.581 48.458 C 260.978 50.020,259.000 52.275,258.159 53.500 C 257.939 53.821,257.626 54.229,257.463 54.406 C 257.300 54.584,257.167 54.792,257.167 54.869 C 257.167 54.945,256.795 55.568,256.341 56.254 C 255.888 56.939,255.569 57.501,255.633 57.503 C 255.697 57.504,255.675 57.560,255.583 57.628 C 255.492 57.695,255.127 58.350,254.773 59.083 C 254.419 59.817,254.063 60.547,253.981 60.706 C 253.900 60.865,253.833 61.076,253.833 61.175 C 253.833 61.274,253.634 61.781,253.391 62.302 C 253.148 62.824,252.956 63.381,252.964 63.542 C 252.973 63.702,252.911 63.833,252.828 63.833 C 252.745 63.833,252.720 63.946,252.773 64.083 C 252.826 64.221,252.780 64.333,252.671 64.333 C 252.561 64.333,252.504 64.427,252.543 64.542 C 252.581 64.656,252.515 64.984,252.396 65.270 C 252.277 65.557,252.225 65.836,252.280 65.891 C 252.336 65.947,252.289 66.103,252.176 66.239 C 252.063 66.374,252.020 66.564,252.079 66.659 C 252.138 66.755,252.114 66.833,252.027 66.833 C 251.939 66.833,251.831 67.152,251.787 67.542 C 251.743 67.931,251.546 69.112,251.348 70.167 C 250.848 72.831,250.610 77.585,251.042 76.292 C 251.132 76.022,251.406 81.398,251.378 82.907 C 251.365 83.661,251.411 83.980,251.510 83.823 C 251.613 83.660,251.671 83.875,251.691 84.500 C 251.747 86.242,251.800 86.630,252.057 87.189 C 252.199 87.498,252.367 88.125,252.430 88.583 C 252.494 89.042,252.618 89.463,252.706 89.520 C 252.794 89.577,252.877 89.820,252.891 90.061 C 252.905 90.303,252.957 90.500,253.007 90.500 C 253.116 90.500,253.570 91.996,253.551 92.290 C 253.544 92.403,253.614 92.449,253.707 92.392 C 253.801 92.334,253.842 92.391,253.799 92.518 C 253.756 92.646,253.827 92.829,253.957 92.924 C 254.088 93.020,254.233 93.395,254.280 93.758 C 254.328 94.120,254.472 94.535,254.600 94.680 C 254.728 94.825,254.833 95.031,254.833 95.138 C 254.833 95.245,254.907 95.333,254.997 95.333 C 255.087 95.333,255.211 95.540,255.272 95.792 C 255.334 96.044,255.433 96.287,255.492 96.333 C 255.762 96.543,256.475 97.970,256.369 98.088 C 256.304 98.161,256.344 98.166,256.458 98.100 C 256.573 98.034,256.667 98.064,256.667 98.166 C 256.667 98.269,256.991 98.817,257.388 99.385 C 257.785 99.952,258.117 100.489,258.126 100.577 C 258.135 100.665,258.279 100.791,258.446 100.857 C 258.613 100.923,258.687 100.982,258.611 100.988 C 258.461 101.001,259.382 102.242,259.870 102.686 C 260.033 102.834,260.167 103.027,260.167 103.113 C 260.167 103.199,260.542 103.615,261.000 104.035 C 261.458 104.456,261.833 104.853,261.833 104.917 C 261.833 105.063,262.928 106.167,263.073 106.167 C 263.131 106.167,263.498 106.485,263.887 106.875 C 264.739 107.728,266.229 108.984,266.820 109.348 C 267.057 109.494,267.353 109.737,267.479 109.890 C 267.605 110.042,267.792 110.170,267.895 110.173 C 267.999 110.177,268.343 110.402,268.660 110.673 C 268.978 110.945,269.309 111.167,269.397 111.167 C 269.485 111.167,269.675 111.272,269.820 111.400 C 270.110 111.656,271.577 112.474,273.000 113.171 C 276.261 114.770,281.779 116.391,284.583 116.574 C 285.133 116.610,286.633 116.719,287.917 116.816 C 290.890 117.040,296.554 116.700,298.568 116.176 C 299.293 115.988,300.031 115.833,300.208 115.833 C 300.608 115.833,303.256 114.979,305.250 114.206 C 307.717 113.251,311.624 111.224,312.427 110.484 C 312.617 110.309,312.819 110.167,312.878 110.167 C 313.084 110.167,315.167 108.639,315.167 108.487 C 315.167 108.403,315.251 108.333,315.353 108.333 C 315.544 108.333,316.423 107.645,317.168 106.912 C 317.399 106.685,317.635 106.500,317.693 106.500 C 317.965 106.500,322.497 101.675,322.499 101.383 C 322.499 101.273,322.604 101.123,322.730 101.050 C 322.857 100.977,323.210 100.542,323.516 100.083 C 323.821 99.625,324.168 99.151,324.286 99.030 C 324.404 98.909,324.500 98.702,324.500 98.571 C 324.500 98.440,324.563 98.333,324.640 98.333 C 324.716 98.333,324.983 97.940,325.232 97.458 C 325.481 96.977,325.790 96.396,325.919 96.167 C 326.377 95.350,327.167 93.654,327.167 93.486 C 327.167 93.392,327.329 92.963,327.528 92.533 C 328.674 90.051,329.817 84.176,329.828 80.705 L 329.833 79.160 326.208 79.205 L 322.583 79.250 322.474 81.083 C 322.413 82.092,322.288 83.254,322.196 83.667 C 322.104 84.079,321.907 84.979,321.758 85.667 C 321.609 86.354,321.347 87.219,321.176 87.589 C 321.006 87.958,320.779 88.582,320.673 88.975 C 320.567 89.369,320.335 89.929,320.158 90.220 C 319.980 90.512,319.834 90.852,319.834 90.976 C 319.833 91.169,319.291 92.190,318.005 94.417 C 317.153 95.892,315.007 98.869,313.917 100.089 C 312.765 101.376,311.306 102.833,311.168 102.833 C 311.086 102.833,310.912 102.986,310.781 103.173 C 310.574 103.468,307.610 105.667,307.418 105.667 C 307.380 105.667,306.970 105.890,306.507 106.162 C 306.045 106.435,305.667 106.622,305.667 106.578 C 305.667 106.533,305.267 106.723,304.778 106.999 C 304.290 107.274,303.779 107.500,303.643 107.500 C 303.507 107.500,303.101 107.642,302.740 107.815 C 299.388 109.425,291.503 110.257,286.167 109.565 C 283.732 109.249,280.745 108.509,279.318 107.870 C 278.914 107.688,278.401 107.484,278.178 107.416 C 277.571 107.230,275.144 105.945,274.048 105.230 C 272.369 104.133,270.000 102.340,270.000 102.167 C 270.000 102.075,269.922 102.000,269.826 102.000 C 269.639 102.000,266.333 98.805,266.333 98.625 C 266.333 98.565,266.082 98.269,265.775 97.966 C 265.468 97.664,265.008 97.098,264.753 96.708 C 264.498 96.319,264.224 96.000,264.145 96.000 C 264.065 96.000,264.000 95.888,264.000 95.750 C 264.000 95.612,263.941 95.500,263.868 95.500 C 263.795 95.500,263.443 94.994,263.084 94.375 C 262.726 93.756,262.386 93.212,262.329 93.167 C 262.062 92.953,259.833 88.304,259.833 87.961 C 259.833 87.844,259.640 87.224,259.403 86.583 C 259.166 85.941,258.944 85.192,258.909 84.917 C 258.874 84.642,258.733 83.956,258.595 83.392 C 257.718 79.798,257.761 72.054,258.674 69.083 C 258.759 68.808,258.861 68.321,258.901 68.000 C 259.116 66.287,261.495 60.588,262.467 59.458 C 262.605 59.298,262.670 59.167,262.610 59.167 C 262.551 59.167,262.745 58.842,263.043 58.444 C 263.340 58.047,263.808 57.402,264.083 57.012 C 264.358 56.621,264.790 56.109,265.042 55.873 C 265.294 55.638,265.500 55.383,265.500 55.307 C 265.500 55.191,266.714 53.838,267.345 53.250 C 267.444 53.158,267.687 52.927,267.887 52.736 C 268.545 52.107,270.412 50.568,270.667 50.445 C 270.804 50.379,271.367 49.992,271.917 49.585 C 272.467 49.178,273.479 48.565,274.167 48.222 C 274.854 47.880,275.696 47.427,276.038 47.217 C 276.380 47.006,276.760 46.833,276.882 46.833 C 277.004 46.833,277.488 46.648,277.957 46.422 C 278.425 46.196,279.010 45.975,279.255 45.930 C 279.501 45.885,280.275 45.666,280.976 45.443 C 287.062 43.504,295.998 43.952,301.917 46.491 C 303.049 46.977,304.898 47.893,305.000 48.019 C 305.046 48.075,305.508 48.360,306.028 48.652 C 306.548 48.944,307.063 49.292,307.174 49.425 C 307.284 49.558,307.443 49.667,307.528 49.667 C 307.713 49.667,309.560 51.006,309.639 51.198 C 309.669 51.272,309.769 51.333,309.860 51.333 C 310.124 51.333,312.379 53.346,313.009 54.144 C 313.325 54.544,313.726 55.010,313.900 55.180 C 314.232 55.503,314.049 56.000,313.598 56.000 C 313.491 56.000,313.144 56.222,312.827 56.493 C 312.510 56.765,312.180 56.990,312.095 56.993 C 312.010 56.997,311.326 57.413,310.576 57.917 C 309.826 58.421,309.134 58.833,309.037 58.833 C 308.940 58.833,308.836 58.892,308.806 58.965 C 308.741 59.117,306.425 60.667,306.262 60.667 C 306.202 60.667,305.996 60.813,305.804 60.992 C 305.612 61.170,305.206 61.435,304.901 61.579 C 304.597 61.724,304.298 61.923,304.237 62.021 C 304.176 62.119,303.929 62.287,303.688 62.393 C 303.447 62.500,302.350 63.179,301.250 63.901 C 297.161 66.587,296.514 67.000,296.384 67.007 C 296.310 67.010,295.990 67.235,295.673 67.507 C 295.356 67.778,295.025 68.000,294.939 68.000 C 294.852 68.000,294.536 68.188,294.235 68.417 C 293.935 68.646,293.653 68.833,293.609 68.833 C 293.565 68.833,292.916 69.246,292.167 69.750 C 291.418 70.254,290.769 70.667,290.725 70.667 C 290.681 70.667,290.385 70.865,290.067 71.107 C 289.750 71.349,289.274 71.668,289.009 71.815 C 288.745 71.963,288.091 72.381,287.556 72.745 C 286.352 73.564,286.295 73.600,284.939 74.410 C 284.331 74.774,283.833 75.130,283.833 75.202 C 283.833 75.274,283.726 75.333,283.595 75.333 C 283.464 75.333,283.258 75.432,283.137 75.553 C 283.016 75.673,282.567 75.977,282.139 76.227 C 281.712 76.477,281.271 76.791,281.160 76.924 C 281.050 77.058,280.818 77.167,280.646 77.167 C 280.474 77.167,280.333 77.226,280.333 77.298 C 280.333 77.370,279.902 77.688,279.375 78.004 C 278.848 78.320,278.318 78.673,278.196 78.789 C 278.075 78.905,277.903 79.000,277.814 79.000 C 277.726 79.000,277.496 79.146,277.304 79.325 C 277.112 79.504,276.721 79.762,276.436 79.899 C 276.150 80.036,275.767 80.267,275.583 80.412 C 274.993 80.881,273.476 81.833,273.319 81.833 C 273.235 81.833,273.167 81.892,273.167 81.965 C 273.167 82.082,271.675 83.033,270.520 83.651 C 270.280 83.779,270.046 83.936,270.000 83.998 C 269.930 84.094,269.355 84.480,267.650 85.578 C 267.503 85.673,266.959 86.001,266.441 86.308 C 265.924 86.614,265.500 86.938,265.500 87.027 C 265.500 87.278,265.840 87.878,266.217 88.292 C 266.404 88.498,266.494 88.667,266.417 88.667 C 266.339 88.667,266.426 88.835,266.610 89.042 C 266.794 89.248,267.163 89.782,267.431 90.228 C 268.180 91.478,268.231 91.560,268.528 91.978 C 268.682 92.194,268.869 92.343,268.945 92.310 C 269.300 92.156,271.607 90.734,271.795 90.554 C 271.911 90.442,272.380 90.147,272.837 89.899 C 273.293 89.650,273.667 89.391,273.667 89.323 C 273.667 89.255,273.873 89.115,274.125 89.012 C 274.377 88.909,275.033 88.527,275.583 88.162 C 276.133 87.797,276.696 87.448,276.833 87.387 C 276.971 87.325,277.121 87.221,277.167 87.155 C 277.212 87.090,277.700 86.762,278.250 86.427 C 280.207 85.234,281.895 84.163,282.154 83.951 C 282.298 83.833,282.612 83.639,282.850 83.520 C 283.088 83.401,283.493 83.123,283.751 82.902 C 284.008 82.681,284.276 82.500,284.347 82.500 C 284.418 82.500,285.042 82.125,285.734 81.667 C 286.426 81.208,287.050 80.830,287.121 80.827 C 287.192 80.823,287.510 80.598,287.827 80.327 C 288.144 80.055,288.482 79.833,288.577 79.833 C 288.672 79.833,288.968 79.646,289.234 79.416 C 289.501 79.187,289.775 79.000,289.845 79.000 C 289.915 79.000,290.584 78.587,291.333 78.083 C 292.082 77.579,292.729 77.167,292.771 77.167 C 292.896 77.167,293.912 76.426,293.972 76.292 C 294.003 76.223,294.129 76.167,294.252 76.167 C 294.375 76.167,294.575 76.072,294.696 75.956 C 294.818 75.840,295.348 75.487,295.875 75.171 C 296.402 74.855,296.833 74.537,296.833 74.465 C 296.833 74.392,296.974 74.333,297.146 74.333 C 297.318 74.333,297.553 74.220,297.668 74.082 C 297.782 73.944,298.242 73.632,298.688 73.389 C 299.135 73.146,299.500 72.889,299.500 72.818 C 299.500 72.747,299.652 72.641,299.838 72.582 C 300.024 72.523,300.780 72.068,301.519 71.571 C 302.257 71.073,302.898 70.667,302.942 70.667 C 302.986 70.667,303.268 70.479,303.569 70.250 C 303.869 70.021,304.183 69.833,304.266 69.833 C 304.349 69.833,304.679 69.608,305.000 69.333 C 305.321 69.059,305.651 68.834,305.734 68.834 C 305.817 68.834,306.131 68.646,306.431 68.417 C 306.732 68.188,307.018 68.000,307.068 68.000 C 307.163 68.000,309.283 66.624,309.596 66.359 C 309.695 66.276,309.939 66.156,310.138 66.092 C 310.337 66.029,310.500 65.920,310.500 65.849 C 310.500 65.778,310.865 65.521,311.312 65.278 C 311.758 65.035,312.218 64.723,312.332 64.585 C 312.447 64.446,312.612 64.333,312.699 64.333 C 312.786 64.333,313.184 64.108,313.583 63.833 C 313.983 63.558,314.372 63.333,314.447 63.333 C 314.522 63.333,314.801 63.146,315.068 62.916 C 315.334 62.687,315.623 62.500,315.710 62.500 C 315.797 62.500,316.153 62.275,316.500 62.000 C 316.847 61.725,317.182 61.500,317.243 61.500 C 317.305 61.500,317.601 61.313,317.902 61.083 C 318.202 60.854,318.505 60.667,318.575 60.667 C 318.645 60.667,318.986 60.442,319.333 60.167 C 319.681 59.892,320.036 59.667,320.123 59.667 C 320.210 59.667,320.499 59.479,320.766 59.250 C 321.032 59.021,321.328 58.834,321.423 58.834 C 321.518 58.833,321.856 58.611,322.173 58.340 C 322.490 58.069,322.808 57.844,322.879 57.840 C 323.126 57.827,324.333 56.954,324.333 56.788 C 324.333 56.576,322.827 54.269,322.640 54.194 C 322.563 54.164,322.500 54.061,322.500 53.966 C 322.500 53.656,320.336 51.208,318.427 49.359 C 317.607 48.566,316.694 47.673,316.396 47.375 C 316.099 47.077,315.777 46.833,315.682 46.833 C 315.586 46.833,315.385 46.646,315.235 46.417 C 315.085 46.188,314.862 46.000,314.739 46.000 C 314.617 46.000,314.457 45.895,314.383 45.768 C 314.310 45.640,313.612 45.058,312.833 44.476 C 312.054 43.893,311.392 43.360,311.361 43.292 C 311.331 43.223,311.208 43.167,311.090 43.167 C 310.971 43.167,310.776 43.048,310.656 42.904 C 310.536 42.759,310.095 42.455,309.677 42.227 C 309.259 42.000,308.392 41.521,307.750 41.164 C 307.108 40.806,306.488 40.511,306.372 40.507 C 306.255 40.503,305.865 40.314,305.504 40.086 C 305.142 39.858,304.525 39.598,304.132 39.509 C 303.739 39.420,303.102 39.194,302.716 39.007 C 302.331 38.820,301.834 38.667,301.612 38.667 C 301.390 38.667,300.880 38.551,300.479 38.409 C 297.307 37.286,290.101 36.867,284.833 37.498 M359.833 38.665 C 358.871 38.727,357.446 38.935,356.667 39.128 C 355.887 39.320,354.950 39.551,354.583 39.641 C 352.396 40.176,349.010 41.735,346.772 43.236 C 345.407 44.151,342.833 46.738,342.833 47.194 C 342.833 47.283,342.646 47.601,342.417 47.902 C 342.188 48.202,342.000 48.526,342.000 48.621 C 342.000 48.715,341.814 49.200,341.586 49.696 C 340.661 51.717,340.100 56.434,340.480 59.000 C 340.878 61.688,341.177 63.043,341.554 63.879 C 341.771 64.358,342.084 65.069,342.249 65.458 C 342.415 65.848,342.614 66.167,342.692 66.167 C 342.770 66.167,342.833 66.274,342.833 66.405 C 342.833 66.536,342.928 66.742,343.043 66.863 C 343.158 66.984,343.626 67.553,344.084 68.128 C 344.807 69.035,347.216 71.260,348.005 71.750 C 349.312 72.561,349.913 72.960,350.207 73.208 C 350.396 73.369,350.690 73.500,350.859 73.500 C 351.028 73.500,351.167 73.566,351.167 73.646 C 351.167 73.925,353.454 74.752,357.000 75.755 C 357.871 76.001,359.258 76.409,360.083 76.662 C 361.610 77.129,364.312 77.924,366.417 78.526 C 367.058 78.709,368.281 79.085,369.133 79.362 C 369.985 79.638,370.848 79.883,371.050 79.905 C 371.252 79.927,372.017 80.138,372.750 80.373 C 373.483 80.609,374.871 81.037,375.833 81.324 C 376.796 81.612,377.996 81.975,378.500 82.132 C 379.004 82.288,379.473 82.398,379.542 82.375 C 379.610 82.352,379.667 82.390,379.667 82.458 C 379.667 82.527,379.836 82.594,380.042 82.608 C 380.248 82.621,380.904 82.853,381.500 83.124 C 382.821 83.724,383.609 84.036,383.785 84.029 C 383.857 84.026,384.029 84.113,384.167 84.222 C 384.304 84.330,384.717 84.569,385.083 84.751 C 385.450 84.933,385.849 85.176,385.970 85.291 C 386.091 85.406,386.298 85.500,386.429 85.500 C 386.560 85.500,386.667 85.575,386.667 85.667 C 386.667 85.758,386.773 85.833,386.904 85.833 C 387.034 85.833,387.354 86.040,387.615 86.292 C 387.876 86.544,388.201 86.774,388.337 86.804 C 388.472 86.833,388.658 86.938,388.750 87.036 C 388.866 87.161,388.841 87.176,388.667 87.083 C 388.529 87.011,388.603 87.131,388.830 87.350 C 389.058 87.570,389.301 87.731,389.372 87.708 C 389.442 87.685,389.500 87.732,389.500 87.813 C 389.500 87.893,389.787 88.264,390.139 88.637 C 391.068 89.624,391.311 89.934,391.016 89.756 C 390.857 89.660,390.820 89.677,390.901 89.808 C 391.162 90.230,391.333 89.956,391.328 89.125 C 391.318 87.317,390.528 79.593,390.347 79.532 C 390.247 79.499,390.214 79.391,390.275 79.293 C 390.336 79.195,390.307 79.163,390.211 79.222 C 390.116 79.281,389.946 79.219,389.833 79.083 C 389.721 78.948,389.562 78.878,389.481 78.928 C 389.400 78.979,389.333 78.940,389.333 78.843 C 389.333 78.746,389.216 78.667,389.073 78.667 C 388.920 78.667,388.862 78.588,388.933 78.474 C 389.007 78.354,388.978 78.327,388.857 78.402 C 388.751 78.468,388.468 78.368,388.229 78.180 C 387.990 77.992,387.716 77.886,387.621 77.945 C 387.526 78.003,387.495 77.976,387.553 77.883 C 387.610 77.790,387.415 77.596,387.120 77.453 C 386.162 76.986,385.371 76.667,385.174 76.667 C 385.068 76.667,384.667 76.528,384.283 76.357 C 382.452 75.548,376.692 73.691,375.681 73.584 C 375.444 73.559,374.613 73.344,373.833 73.106 C 373.054 72.868,372.287 72.672,372.129 72.670 C 371.971 72.668,370.996 72.448,369.963 72.181 C 367.444 71.530,365.310 71.006,364.024 70.723 C 363.441 70.595,362.543 70.342,362.029 70.162 C 361.515 69.981,361.001 69.833,360.886 69.833 C 360.771 69.833,360.281 69.655,359.797 69.436 C 359.313 69.218,358.729 68.983,358.500 68.914 C 357.562 68.633,353.833 66.679,353.833 66.469 C 353.833 66.394,353.737 66.333,353.620 66.333 C 353.311 66.333,350.548 63.730,350.026 62.946 C 346.831 58.154,347.470 51.208,351.361 48.412 C 351.805 48.094,352.251 47.833,352.353 47.833 C 352.455 47.833,352.886 47.650,353.311 47.425 C 354.301 46.903,356.913 46.016,357.762 45.914 C 358.122 45.871,358.754 45.760,359.167 45.668 C 361.046 45.248,363.604 45.169,375.478 45.168 L 388.039 45.167 387.939 44.792 C 387.885 44.585,387.798 43.404,387.746 42.167 C 387.694 40.929,387.613 39.598,387.566 39.208 L 387.480 38.500 374.531 38.527 C 367.410 38.541,360.796 38.604,359.833 38.665 M250.874 79.141 C 250.942 80.393,251.070 81.792,251.159 82.250 L 251.320 83.083 251.243 82.250 C 251.201 81.792,251.118 80.420,251.058 79.203 C 250.998 77.985,250.905 76.961,250.850 76.927 C 250.795 76.893,250.806 77.889,250.874 79.141 M392.167 80.652 C 392.396 80.839,392.658 80.993,392.750 80.994 C 392.928 80.995,392.627 80.764,392.083 80.483 C 391.862 80.369,391.890 80.425,392.167 80.652 M392.705 94.167 C 392.705 94.487,392.740 94.619,392.782 94.458 C 392.823 94.298,392.823 94.035,392.782 93.875 C 392.740 93.715,392.705 93.846,392.705 94.167 M392.705 97.833 C 392.705 98.154,392.740 98.285,392.782 98.125 C 392.823 97.965,392.823 97.702,392.782 97.542 C 392.740 97.381,392.705 97.513,392.705 97.833 M391.917 101.000 C 391.973 101.092,391.932 101.167,391.825 101.167 C 391.718 101.167,391.671 101.272,391.721 101.401 C 391.770 101.530,391.664 101.768,391.485 101.931 C 391.305 102.093,391.184 102.303,391.215 102.396 C 391.322 102.717,389.118 105.045,388.021 105.769 C 386.794 106.580,384.272 107.868,384.052 107.797 C 383.978 107.772,383.467 107.879,382.917 108.034 C 380.207 108.798,379.028 108.838,359.125 108.835 L 340.333 108.833 340.333 112.250 L 340.333 115.667 359.292 115.663 C 378.896 115.660,378.476 115.672,382.667 114.993 C 383.354 114.882,384.609 114.570,385.454 114.300 C 386.300 114.030,387.041 113.821,387.102 113.835 C 387.163 113.850,387.265 113.778,387.328 113.675 C 387.392 113.572,387.663 113.452,387.930 113.408 C 388.198 113.364,389.017 113.039,389.750 112.687 C 390.483 112.335,391.215 112.001,391.375 111.946 C 391.535 111.890,391.667 111.766,391.667 111.672 C 391.667 111.577,391.784 111.500,391.927 111.500 C 392.069 111.500,392.137 111.420,392.076 111.322 C 392.016 111.224,392.068 111.158,392.192 111.175 C 392.649 111.238,392.850 111.162,392.732 110.972 C 392.651 110.839,392.704 110.812,392.898 110.886 C 393.063 110.950,393.142 110.929,393.085 110.836 C 392.994 110.689,392.172 102.060,392.168 101.208 C 392.167 101.002,392.087 100.833,391.990 100.833 C 391.893 100.833,391.860 100.908,391.917 101.000 M320.016 122.685 C 317.051 123.249,315.833 124.436,315.833 126.765 C 315.833 127.250,315.908 127.693,316.000 127.750 C 316.092 127.807,316.167 127.966,316.167 128.104 C 316.167 128.435,316.984 129.500,317.237 129.500 C 317.346 129.500,317.685 129.684,317.991 129.910 C 318.298 130.136,318.891 130.364,319.315 130.418 C 320.188 130.529,321.159 130.743,322.526 131.124 C 324.753 131.745,323.344 134.109,320.943 133.779 C 320.240 133.683,318.005 132.771,317.837 132.512 C 317.500 131.993,317.064 132.199,316.376 133.201 L 315.669 134.232 316.030 134.616 C 316.229 134.827,316.519 135.000,316.675 135.000 C 316.831 135.000,317.054 135.114,317.169 135.253 C 317.923 136.161,320.859 136.583,323.300 136.133 C 325.427 135.741,326.850 133.541,326.344 131.426 C 326.258 131.064,326.212 130.727,326.243 130.676 C 326.378 130.451,324.534 128.805,323.994 128.668 C 323.676 128.588,322.817 128.359,322.083 128.160 C 321.350 127.961,320.487 127.744,320.167 127.678 C 318.424 127.320,318.140 126.105,319.640 125.429 C 320.326 125.119,322.522 125.297,322.759 125.682 C 322.811 125.765,322.999 125.833,323.177 125.833 C 323.354 125.833,323.500 125.896,323.500 125.973 C 323.500 126.050,323.697 126.203,323.938 126.313 C 324.361 126.505,325.333 125.802,325.333 125.303 C 325.333 125.228,325.483 125.017,325.667 124.833 C 326.155 124.345,326.114 124.290,324.792 123.623 C 323.034 122.737,321.416 122.419,320.016 122.685 M196.167 129.417 L 196.167 136.000 201.083 136.000 L 206.000 136.000 206.000 134.750 L 206.000 133.500 202.500 133.500 L 199.000 133.500 199.000 132.083 L 199.000 130.667 202.083 130.667 L 205.167 130.667 205.167 129.417 L 205.167 128.167 202.083 128.167 L 199.000 128.167 199.000 126.667 L 199.000 125.167 202.500 125.167 L 206.000 125.167 206.000 124.000 L 206.000 122.833 201.083 122.833 L 196.167 122.833 196.167 129.417 M211.667 129.417 L 211.667 136.000 213.080 136.000 L 214.494 136.000 214.538 132.333 L 214.583 128.665 215.917 129.857 C 217.599 131.359,220.255 133.795,221.572 135.041 C 223.270 136.648,223.167 137.013,223.167 129.417 L 223.167 122.833 221.833 122.833 L 220.500 122.833 220.497 126.708 C 220.496 128.840,220.440 130.508,220.372 130.416 C 220.305 130.325,219.012 129.126,217.500 127.754 C 215.987 126.381,214.450 124.974,214.083 124.626 C 211.424 122.104,211.667 121.623,211.667 129.417 M228.167 124.000 L 228.167 125.167 230.000 125.167 L 231.833 125.167 231.833 130.583 L 231.833 136.000 233.250 136.000 L 234.667 136.000 234.667 130.583 L 234.667 125.167 236.500 125.167 L 238.333 125.167 238.333 124.000 L 238.333 122.833 233.250 122.833 L 228.167 122.833 228.167 124.000 M243.333 129.417 L 243.333 136.000 248.250 136.000 L 253.167 136.000 253.167 134.750 L 253.167 133.500 249.583 133.500 L 246.000 133.500 246.000 132.083 L 246.000 130.667 249.167 130.667 L 252.333 130.667 252.333 129.417 L 252.333 128.167 249.167 128.167 L 246.000 128.167 246.000 126.667 L 246.000 125.167 249.583 125.167 L 253.167 125.167 253.167 124.000 L 253.167 122.833 248.250 122.833 L 243.333 122.833 243.333 129.417 M258.833 129.398 L 258.833 136.000 260.250 136.000 L 261.667 136.000 261.667 134.000 L 261.667 132.000 262.625 132.005 C 263.762 132.012,263.826 132.057,264.998 133.667 C 265.499 134.354,265.973 134.963,266.053 135.019 C 266.132 135.076,266.286 135.301,266.395 135.519 C 266.581 135.894,266.690 135.919,268.296 135.964 C 270.108 136.015,270.253 135.941,269.586 135.309 C 269.359 135.093,269.171 134.835,269.170 134.734 C 269.168 134.634,269.008 134.409,268.813 134.234 C 267.656 133.194,266.836 131.353,267.522 131.336 C 268.639 131.309,269.725 128.381,269.332 126.454 C 268.742 123.562,267.645 122.991,262.458 122.877 L 258.833 122.797 258.833 129.398 M275.000 129.398 L 275.000 136.000 276.417 136.000 L 277.833 136.000 277.833 134.180 L 277.833 132.360 279.958 132.305 C 283.853 132.204,285.772 130.588,285.634 127.526 C 285.569 126.097,284.692 124.000,284.159 124.000 C 284.071 124.000,283.855 123.855,283.677 123.677 C 283.106 123.106,282.182 122.962,278.542 122.878 L 275.000 122.796 275.000 129.398 M290.500 129.417 L 290.500 136.000 291.917 136.000 L 293.333 136.000 293.333 134.000 L 293.333 132.000 294.405 132.000 C 295.424 132.000,295.497 132.027,295.861 132.539 C 296.073 132.836,296.346 133.192,296.469 133.331 C 296.592 133.470,297.085 134.108,297.564 134.750 L 298.436 135.917 300.051 135.964 C 300.940 135.991,301.667 135.966,301.667 135.909 C 301.667 135.797,300.239 133.794,299.833 133.336 C 299.696 133.181,299.508 132.940,299.417 132.800 C 299.325 132.661,299.106 132.342,298.930 132.092 C 298.661 131.711,298.648 131.616,298.847 131.499 C 301.098 130.176,301.787 127.986,300.751 125.444 C 300.439 124.680,300.157 124.246,299.893 124.126 C 299.677 124.027,299.500 123.885,299.500 123.811 C 299.500 123.221,297.100 122.833,293.445 122.833 L 290.500 122.833 290.500 129.417 M307.167 129.417 L 307.167 136.000 308.500 136.000 L 309.833 136.000 309.833 129.417 L 309.833 122.833 308.500 122.833 L 307.167 122.833 307.167 129.417 M331.833 129.417 L 331.833 136.000 336.750 136.000 L 341.667 136.000 341.667 134.750 L 341.667 133.500 338.083 133.500 L 334.500 133.500 334.500 132.083 L 334.500 130.667 337.667 130.667 L 340.833 130.667 340.833 129.417 L 340.833 128.167 337.667 128.167 L 334.500 128.167 334.500 126.667 L 334.500 125.167 338.083 125.167 L 341.667 125.167 341.667 124.000 L 341.667 122.833 336.750 122.833 L 331.833 122.833 331.833 129.417 M265.176 125.333 C 266.762 125.774,267.212 127.868,265.969 129.029 C 265.477 129.489,265.420 129.500,263.566 129.500 L 261.667 129.500 261.667 127.333 L 261.667 125.167 263.125 125.168 C 263.927 125.168,264.850 125.243,265.176 125.333 M281.681 125.556 C 283.259 126.320,283.418 128.800,281.928 129.423 C 281.541 129.584,280.753 129.667,279.589 129.667 L 277.833 129.667 277.833 127.397 L 277.833 125.128 279.458 125.198 C 280.536 125.244,281.285 125.365,281.681 125.556 M297.621 125.634 C 298.714 126.413,298.730 128.163,297.651 129.071 C 297.168 129.477,297.039 129.500,295.237 129.500 L 293.333 129.500 293.333 127.315 L 293.333 125.131 295.208 125.191 C 296.842 125.243,297.153 125.300,297.621 125.634 M125.580 128.458 C 125.819 129.065,125.863 129.800,125.679 130.144 C 125.363 130.734,125.616 130.547,126.242 129.726 C 126.567 129.300,126.833 128.995,126.833 129.047 C 126.833 129.099,127.017 128.978,127.242 128.779 L 127.651 128.417 127.034 128.301 C 125.882 128.086,125.451 128.132,125.580 128.458 " stroke="none" fill="#273fa8" fill-rule="evenodd"></path><path id="path4" d="M203.671 0.375 C 203.673 0.581,203.750 1.500,203.841 2.417 C 203.933 3.333,204.078 5.358,204.165 6.917 C 204.251 8.475,204.527 11.850,204.777 14.417 L 205.231 19.083 205.328 48.583 L 205.425 78.083 205.463 39.042 L 205.500 0.000 204.583 0.000 C 203.743 0.000,203.667 0.031,203.671 0.375 M226.875 57.792 L 226.917 115.583 230.708 115.628 L 234.500 115.673 234.500 57.836 L 234.500 0.000 230.666 0.000 L 226.833 0.000 226.875 57.792 M69.083 1.885 C 67.433 1.974,66.037 2.118,65.981 2.205 C 65.925 2.292,65.700 2.348,65.481 2.330 C 64.600 2.256,63.818 2.340,63.915 2.498 C 63.976 2.596,63.901 2.618,63.730 2.552 C 63.498 2.464,63.466 2.505,63.566 2.763 C 63.635 2.939,63.791 3.468,63.914 3.939 C 64.134 4.777,64.530 6.076,65.483 9.083 C 65.745 9.908,66.042 10.890,66.144 11.264 L 66.330 11.944 67.290 11.881 C 67.818 11.846,69.173 11.746,70.301 11.659 C 73.352 11.422,76.332 11.470,80.333 11.819 C 83.725 12.115,85.009 12.299,88.333 12.964 C 89.112 13.120,89.825 13.248,89.917 13.249 C 90.008 13.249,90.123 13.302,90.171 13.366 C 90.570 13.895,90.620 13.104,90.258 11.991 C 89.860 10.768,89.249 8.780,88.417 6.000 C 87.387 2.559,87.556 2.868,86.600 2.673 C 82.560 1.850,75.576 1.536,69.083 1.885 M90.917 13.667 C 91.100 13.745,91.362 13.810,91.500 13.810 C 91.658 13.810,91.627 13.757,91.417 13.667 C 91.233 13.588,90.971 13.523,90.833 13.523 C 90.676 13.523,90.707 13.576,90.917 13.667 M121.875 13.786 C 122.127 13.824,122.540 13.824,122.792 13.786 C 123.044 13.748,122.837 13.717,122.333 13.717 C 121.829 13.717,121.623 13.748,121.875 13.786 M131.295 13.787 C 131.594 13.825,132.044 13.824,132.295 13.786 C 132.545 13.748,132.300 13.717,131.750 13.718 C 131.200 13.719,130.995 13.750,131.295 13.787 M85.000 16.975 C 85.000 17.053,84.362 17.549,83.583 18.079 C 82.804 18.608,82.167 19.107,82.167 19.187 C 82.167 19.268,82.063 19.333,81.936 19.333 C 81.810 19.333,81.491 19.548,81.228 19.810 C 80.965 20.073,80.000 20.891,79.083 21.629 C 77.570 22.847,74.892 25.397,72.500 27.901 L 71.583 28.860 74.994 32.254 C 78.319 35.563,78.410 35.639,78.660 35.293 C 79.208 34.535,83.345 30.551,85.167 29.027 C 86.221 28.146,87.178 27.334,87.293 27.223 C 87.639 26.890,90.161 25.101,90.639 24.849 C 90.883 24.721,91.121 24.563,91.167 24.498 C 91.345 24.248,94.013 22.603,95.833 21.621 C 96.337 21.349,96.783 21.096,96.823 21.060 C 96.911 20.979,96.312 20.542,96.102 20.534 C 96.021 20.531,95.905 20.449,95.845 20.353 C 95.703 20.122,92.422 18.500,92.098 18.500 C 91.959 18.500,91.455 18.346,90.978 18.158 C 89.684 17.648,85.000 16.721,85.000 16.975 M387.577 39.375 C 387.621 39.856,387.700 41.187,387.752 42.332 C 387.897 45.512,387.449 45.167,391.435 45.167 L 394.833 45.167 394.833 41.833 L 394.833 38.500 391.165 38.500 L 387.497 38.500 387.577 39.375 M250.861 76.443 C 250.716 76.600,250.694 76.752,250.797 76.883 C 250.933 77.055,251.181 80.229,251.233 82.458 C 251.243 82.848,251.316 83.167,251.397 83.167 C 251.479 83.167,251.488 82.638,251.417 81.958 C 251.347 81.294,251.244 79.727,251.187 78.477 C 251.100 76.571,251.047 76.243,250.861 76.443 M390.143 79.337 C 390.553 79.680,391.400 86.933,391.307 89.294 C 391.287 89.794,391.357 90.257,391.469 90.369 C 391.578 90.478,391.667 90.664,391.667 90.783 C 391.667 90.902,391.739 91.000,391.828 91.000 C 391.917 91.000,391.942 91.125,391.883 91.277 C 391.806 91.479,391.837 91.517,391.997 91.418 C 392.151 91.323,392.179 91.346,392.088 91.493 C 392.016 91.609,392.027 91.752,392.112 91.810 C 392.719 92.229,393.093 97.081,392.647 98.750 C 392.549 99.117,392.430 99.660,392.383 99.958 C 392.336 100.256,392.232 100.500,392.153 100.500 C 392.073 100.500,392.046 100.706,392.092 100.958 C 392.405 102.682,392.972 110.748,392.787 110.865 C 392.654 110.950,392.648 110.996,392.769 110.997 C 392.990 111.000,393.859 110.354,394.052 110.044 C 394.126 109.924,394.249 109.865,394.325 109.911 C 394.764 110.183,397.553 106.577,398.446 104.583 C 399.825 101.504,400.518 95.361,399.850 92.144 C 399.228 89.149,396.948 84.333,396.152 84.333 C 396.068 84.333,396.019 84.271,396.042 84.194 C 396.107 83.977,393.733 81.667,393.445 81.667 C 393.304 81.667,393.142 81.517,393.083 81.333 C 393.025 81.150,392.884 81.000,392.769 81.000 C 392.654 81.000,392.308 80.775,392.000 80.500 C 391.692 80.225,391.341 80.000,391.220 80.000 C 391.099 80.000,391.000 79.921,391.000 79.823 C 391.000 79.726,390.925 79.693,390.833 79.750 C 390.742 79.807,390.666 79.755,390.665 79.635 C 390.665 79.515,390.458 79.325,390.207 79.212 L 389.750 79.008 390.143 79.337 M251.545 84.333 C 251.545 84.746,251.578 84.915,251.618 84.708 C 251.657 84.502,251.657 84.165,251.618 83.958 C 251.578 83.752,251.545 83.921,251.545 84.333 M284.375 116.615 C 284.535 116.657,284.798 116.657,284.958 116.615 C 285.119 116.573,284.987 116.539,284.667 116.539 C 284.346 116.539,284.215 116.573,284.375 116.615 M171.720 125.044 C 171.553 125.251,171.207 125.584,170.950 125.783 C 170.306 126.282,170.144 126.057,173.773 129.690 C 176.077 131.996,177.004 133.030,176.911 133.190 C 176.839 133.314,176.977 133.237,177.218 133.017 C 177.459 132.798,177.610 132.543,177.552 132.450 C 177.495 132.358,177.531 132.333,177.631 132.395 C 177.823 132.513,179.333 131.152,179.333 130.859 C 179.333 130.766,179.183 130.642,179.000 130.583 C 178.817 130.525,178.667 130.404,178.667 130.315 C 178.667 130.225,178.559 130.174,178.428 130.201 C 178.296 130.228,178.202 130.205,178.219 130.151 C 178.276 129.968,177.797 129.503,177.648 129.595 C 177.567 129.645,177.500 129.607,177.500 129.510 C 177.500 129.413,177.387 129.333,177.250 129.333 C 177.113 129.333,177.019 129.243,177.042 129.133 C 177.065 129.022,177.008 128.928,176.916 128.924 C 176.824 128.920,176.516 128.673,176.232 128.375 C 175.947 128.077,175.633 127.833,175.535 127.833 C 175.436 127.833,175.309 127.685,175.251 127.503 C 175.193 127.321,174.891 127.051,174.579 126.904 C 174.267 126.756,173.967 126.492,173.912 126.317 C 173.856 126.143,173.708 126.000,173.582 126.000 C 173.455 126.000,173.222 125.779,173.062 125.509 C 172.903 125.239,172.719 125.051,172.654 125.091 C 172.588 125.132,172.492 125.053,172.439 124.916 C 172.305 124.565,172.073 124.606,171.720 125.044 M113.530 127.750 C 112.872 128.254,112.263 128.667,112.176 128.667 C 112.088 128.667,111.957 128.774,111.883 128.905 C 111.810 129.036,111.562 129.244,111.333 129.367 C 110.866 129.619,107.963 131.521,107.833 131.660 C 107.787 131.710,107.638 131.775,107.500 131.805 C 107.362 131.835,107.138 131.954,107.000 132.069 C 106.862 132.184,106.412 132.446,106.000 132.651 C 105.587 132.857,105.161 133.139,105.053 133.279 C 104.941 133.423,104.767 133.479,104.652 133.408 C 104.513 133.321,104.491 133.351,104.585 133.503 C 104.684 133.663,104.645 133.694,104.444 133.617 C 104.291 133.558,104.167 133.574,104.167 133.652 C 104.167 133.731,104.006 133.836,103.810 133.888 C 103.367 134.004,103.439 134.626,104.146 136.795 C 104.630 138.280,105.329 140.553,105.669 141.750 C 106.188 143.578,106.155 143.562,107.667 142.748 C 108.263 142.427,109.162 141.964,109.667 141.718 C 110.171 141.473,110.687 141.169,110.813 141.043 C 110.940 140.917,111.140 140.852,111.259 140.897 C 111.378 140.943,111.565 140.872,111.675 140.740 C 111.784 140.608,111.941 140.500,112.024 140.500 C 112.106 140.500,112.491 140.295,112.878 140.045 C 113.990 139.328,114.083 139.271,114.788 138.883 C 115.155 138.681,115.691 138.318,115.978 138.076 C 116.265 137.835,116.500 137.695,116.500 137.766 C 116.500 137.837,116.706 137.704,116.958 137.469 C 117.210 137.234,117.735 136.835,118.125 136.582 C 118.515 136.329,118.833 136.057,118.833 135.978 C 118.833 135.898,118.937 135.833,119.065 135.833 C 119.272 135.833,119.992 135.264,121.109 134.216 C 121.324 134.014,121.500 133.890,121.500 133.940 C 121.500 134.040,122.614 133.115,123.917 131.934 C 125.858 130.175,126.009 129.911,125.689 128.843 L 125.501 128.216 124.209 128.110 C 120.152 127.775,119.088 127.639,117.531 127.256 C 115.078 126.653,114.937 126.670,113.530 127.750 " stroke="none" fill="#24349c" fill-rule="evenodd"></path></g></svg>