<svg id="svg" version="1.1" xmlns="http://www.w3.org/2000/svg" xmlns:xlink="http://www.w3.org/1999/xlink" width="400" height="335.07312876398055" viewBox="0, 0, 400,335.07312876398055"><g id="svgg"><path id="path0" d="M66.694 32.851 C 66.586 33.025,66.399 33.167,66.279 33.167 C 66.158 33.167,65.808 33.392,65.500 33.667 C 65.192 33.942,64.874 34.167,64.793 34.167 C 64.713 34.167,64.699 34.251,64.763 34.355 C 64.833 34.468,64.790 34.513,64.656 34.469 C 64.435 34.395,64.202 34.546,63.353 35.310 C 63.113 35.527,62.598 35.924,62.208 36.193 C 61.819 36.462,61.500 36.767,61.500 36.869 C 61.500 36.972,61.456 37.011,61.401 36.957 C 61.347 36.903,61.103 37.030,60.860 37.241 C 60.616 37.452,59.779 38.165,59.000 38.827 C 56.938 40.579,55.958 41.429,55.399 41.953 C 55.126 42.208,54.272 42.979,53.501 43.667 C 51.691 45.280,44.929 52.049,43.417 53.761 C 42.775 54.488,42.059 55.270,41.826 55.499 C 41.593 55.729,41.002 56.404,40.513 57.000 C 39.315 58.459,38.218 59.749,37.437 60.616 C 37.082 61.010,36.843 61.333,36.907 61.333 C 36.971 61.333,36.925 61.433,36.804 61.554 C 36.682 61.675,36.396 62.020,36.167 62.321 C 35.938 62.621,35.578 63.047,35.367 63.267 C 35.157 63.487,35.030 63.667,35.084 63.667 C 35.139 63.667,34.987 63.849,34.747 64.071 C 34.056 64.712,34.208 64.796,37.167 65.424 C 37.854 65.570,39.054 65.837,39.833 66.018 C 40.612 66.198,41.587 66.423,42.000 66.516 C 42.412 66.610,43.163 66.790,43.667 66.917 C 44.518 67.130,44.893 67.217,46.917 67.667 C 47.329 67.758,48.004 67.908,48.417 68.000 C 50.440 68.450,50.815 68.536,51.667 68.750 C 52.171 68.877,52.921 69.057,53.333 69.150 C 53.746 69.244,54.734 69.473,55.530 69.660 C 57.706 70.171,57.482 70.250,59.083 68.405 C 59.542 67.877,60.210 67.176,60.570 66.848 C 60.929 66.519,61.341 66.103,61.486 65.924 C 62.177 65.069,66.520 60.862,69.063 58.583 C 69.779 57.942,70.530 57.267,70.732 57.083 C 70.933 56.900,71.422 56.487,71.817 56.167 C 72.212 55.846,72.746 55.391,73.003 55.155 C 73.260 54.919,73.750 54.507,74.092 54.238 C 74.434 53.970,74.796 53.672,74.898 53.577 C 75.000 53.482,75.383 53.182,75.750 52.911 C 76.117 52.639,76.514 52.324,76.634 52.211 C 76.753 52.098,77.728 51.350,78.801 50.548 C 79.873 49.746,80.775 49.032,80.806 48.961 C 80.836 48.891,80.961 48.833,81.083 48.833 C 81.206 48.833,81.331 48.770,81.361 48.692 C 81.392 48.614,81.717 48.353,82.083 48.112 C 82.450 47.871,83.446 47.185,84.296 46.587 C 85.147 45.989,85.915 45.500,86.005 45.500 C 86.094 45.500,86.167 45.430,86.167 45.345 C 86.167 45.259,86.316 45.142,86.499 45.084 C 86.682 45.026,86.926 44.888,87.041 44.779 C 87.255 44.575,88.889 43.524,90.083 42.822 C 90.450 42.607,90.775 42.371,90.806 42.298 C 90.837 42.225,90.931 42.207,91.015 42.260 C 91.100 42.312,91.214 42.237,91.269 42.094 C 91.324 41.951,91.464 41.833,91.581 41.833 C 91.697 41.833,91.887 41.719,92.003 41.579 C 92.119 41.440,92.247 41.358,92.287 41.398 C 92.328 41.439,92.620 41.295,92.938 41.080 C 93.256 40.864,93.737 40.590,94.008 40.470 C 94.278 40.350,94.500 40.195,94.500 40.126 C 94.500 40.057,94.612 40.000,94.750 40.000 C 94.888 40.000,95.000 39.921,95.000 39.823 C 95.000 39.726,95.075 39.693,95.167 39.750 C 95.258 39.807,95.333 39.769,95.333 39.667 C 95.333 39.564,95.400 39.521,95.481 39.572 C 95.562 39.622,95.713 39.561,95.816 39.437 C 96.017 39.196,96.007 39.193,93.417 38.586 C 92.775 38.436,91.950 38.247,91.583 38.166 C 91.217 38.085,90.242 37.860,89.417 37.667 C 88.592 37.473,87.579 37.240,87.167 37.148 C 86.754 37.056,86.004 36.877,85.500 36.750 C 84.275 36.442,83.522 36.273,80.667 35.661 C 79.337 35.377,77.912 35.046,77.500 34.927 C 77.087 34.808,76.337 34.622,75.833 34.514 C 75.329 34.405,74.579 34.240,74.167 34.147 C 73.754 34.053,73.098 33.907,72.708 33.822 C 71.466 33.550,70.621 33.354,69.083 32.981 C 67.068 32.493,66.923 32.485,66.694 32.851 M163.792 55.523 C 163.265 56.075,162.833 56.559,162.833 56.597 C 162.833 56.636,162.533 56.939,162.167 57.270 C 161.800 57.601,161.500 57.988,161.500 58.131 C 161.500 58.273,161.453 58.342,161.396 58.285 C 161.287 58.176,160.626 58.837,159.250 60.434 C 158.792 60.966,158.192 61.642,157.917 61.936 C 157.642 62.231,157.154 62.791,156.833 63.182 C 156.512 63.572,156.100 64.060,155.917 64.266 C 155.733 64.472,155.471 64.779,155.333 64.950 C 155.106 65.232,154.044 66.552,153.550 67.167 C 153.439 67.304,152.968 67.904,152.502 68.500 C 152.037 69.096,151.476 69.808,151.257 70.083 C 151.038 70.358,150.558 70.996,150.192 71.500 C 149.825 72.004,149.329 72.679,149.088 73.000 C 148.000 74.453,147.432 75.265,145.648 77.917 C 143.640 80.902,142.199 83.138,141.835 83.833 C 141.715 84.063,141.572 84.287,141.517 84.333 C 141.407 84.425,141.041 85.067,140.459 86.190 C 140.253 86.590,139.955 87.059,139.797 87.233 C 139.640 87.408,139.551 87.614,139.599 87.692 C 139.647 87.770,139.621 87.833,139.541 87.833 C 139.234 87.833,138.841 88.928,139.145 88.937 C 139.294 88.941,140.204 89.117,141.167 89.326 C 142.129 89.536,143.179 89.764,143.500 89.833 C 143.821 89.901,144.646 90.105,145.333 90.286 C 146.021 90.466,146.996 90.705,147.500 90.815 C 149.486 91.251,151.236 91.647,152.333 91.908 C 152.837 92.028,153.700 92.219,154.250 92.331 C 154.800 92.444,155.438 92.595,155.667 92.667 C 155.896 92.739,156.533 92.889,157.083 93.001 C 157.633 93.113,158.308 93.266,158.583 93.341 C 160.133 93.762,160.411 93.728,160.642 93.089 C 160.760 92.762,160.927 92.538,161.012 92.591 C 161.097 92.643,161.167 92.584,161.167 92.459 C 161.167 92.334,161.352 91.981,161.578 91.674 C 161.804 91.368,161.942 91.042,161.885 90.949 C 161.827 90.854,161.865 90.833,161.975 90.901 C 162.089 90.972,162.235 90.864,162.333 90.635 C 162.555 90.121,162.839 89.689,163.292 89.177 C 163.498 88.944,163.667 88.702,163.667 88.639 C 163.667 88.575,163.762 88.425,163.879 88.304 C 163.996 88.182,164.417 87.596,164.815 87.000 C 165.212 86.404,165.625 85.842,165.732 85.750 C 165.839 85.658,166.253 85.096,166.653 84.500 C 167.052 83.904,167.953 82.704,168.655 81.833 C 169.357 80.962,170.078 80.053,170.257 79.812 C 170.437 79.571,171.146 78.717,171.833 77.914 C 172.521 77.110,173.333 76.145,173.638 75.768 C 175.457 73.523,184.879 63.833,185.244 63.833 C 185.265 63.833,185.776 63.354,186.380 62.767 C 186.984 62.181,187.515 61.737,187.559 61.782 C 187.604 61.826,187.767 61.668,187.923 61.431 C 188.078 61.194,188.313 61.000,188.446 61.000 C 188.578 61.000,188.640 60.925,188.583 60.833 C 188.527 60.742,188.593 60.667,188.730 60.667 C 188.868 60.667,189.035 60.579,189.101 60.472 C 189.181 60.341,189.131 60.311,188.950 60.381 C 188.693 60.480,187.386 60.257,185.917 59.864 C 185.290 59.697,184.623 59.541,182.833 59.143 C 181.235 58.788,180.669 58.658,178.250 58.090 C 176.875 57.767,175.375 57.424,174.917 57.327 C 174.458 57.230,173.765 57.079,173.375 56.992 C 172.985 56.905,172.310 56.754,171.875 56.657 C 171.440 56.560,170.633 56.366,170.083 56.227 C 169.533 56.088,168.821 55.910,168.500 55.833 C 168.179 55.756,167.617 55.620,167.250 55.531 C 166.883 55.442,166.118 55.272,165.549 55.152 C 164.731 54.980,164.551 54.889,164.694 54.717 C 165.132 54.190,164.671 54.601,163.792 55.523 M5.178 124.371 C 5.083 124.646,5.045 124.938,5.095 125.019 C 5.145 125.100,5.117 125.167,5.031 125.167 C 4.946 125.167,4.826 125.560,4.765 126.042 C 4.703 126.523,4.553 127.217,4.430 127.583 C 4.149 128.424,3.803 129.789,3.733 130.333 C 3.704 130.563,3.600 131.087,3.502 131.500 C 3.291 132.385,3.099 133.347,2.835 134.833 C 2.729 135.429,2.542 136.404,2.418 137.000 C 2.159 138.249,1.923 139.835,1.349 144.167 C 0.602 149.799,0.012 157.920,0.130 160.935 L 0.189 162.453 1.720 162.814 C 3.523 163.240,4.409 163.444,5.375 163.655 C 5.765 163.740,6.421 163.887,6.833 163.980 C 7.246 164.074,7.996 164.239,8.500 164.347 C 9.004 164.455,9.754 164.641,10.167 164.761 C 10.579 164.880,12.342 165.285,14.083 165.660 C 15.825 166.035,17.662 166.448,18.167 166.577 C 18.671 166.707,19.458 166.898,19.917 167.001 C 20.375 167.104,21.012 167.253,21.333 167.333 C 21.654 167.413,22.273 167.559,22.708 167.656 C 23.144 167.754,23.819 167.906,24.208 167.996 C 27.091 168.655,28.689 169.017,29.333 169.154 C 29.746 169.242,31.208 169.585,32.583 169.916 C 35.195 170.544,35.870 170.701,37.250 170.995 C 38.281 171.215,41.276 171.900,43.167 172.349 C 44.772 172.730,45.521 172.899,46.833 173.179 C 47.337 173.287,47.975 173.443,48.250 173.527 C 48.525 173.611,49.313 173.794,50.000 173.935 C 50.688 174.075,51.887 174.337,52.667 174.518 C 53.446 174.698,54.421 174.923,54.833 175.016 C 55.246 175.110,55.996 175.290,56.500 175.417 C 57.492 175.666,58.399 175.873,59.833 176.179 C 60.337 176.287,60.967 176.441,61.233 176.521 C 61.499 176.601,63.468 176.667,65.608 176.667 L 69.500 176.667 69.500 165.833 L 69.500 155.000 45.700 155.000 L 21.901 155.000 21.956 153.875 C 21.986 153.256,22.122 151.850,22.258 150.750 C 22.394 149.650,22.584 148.075,22.679 147.250 C 22.775 146.425,22.923 145.281,23.010 144.708 C 23.559 141.062,23.771 139.802,24.083 138.333 C 24.209 137.737,24.361 136.912,24.421 136.500 C 24.480 136.087,24.675 135.166,24.853 134.451 C 25.032 133.737,25.133 133.081,25.079 132.993 C 25.025 132.905,25.050 132.833,25.135 132.833 C 25.220 132.833,25.336 132.552,25.393 132.208 C 25.522 131.430,25.938 129.540,26.089 129.049 C 26.179 128.754,26.124 128.664,25.809 128.594 C 25.593 128.545,24.742 128.351,23.917 128.163 C 23.092 127.975,22.079 127.744,21.667 127.650 C 21.254 127.557,20.504 127.377,20.000 127.250 C 19.068 127.016,17.951 126.758,16.750 126.500 C 16.383 126.421,15.727 126.276,15.292 126.178 C 14.856 126.080,14.144 125.921,13.708 125.823 C 13.273 125.726,12.504 125.543,12.000 125.417 C 10.914 125.144,10.127 124.963,8.000 124.498 C 7.129 124.307,6.177 124.088,5.885 124.011 C 5.392 123.881,5.340 123.908,5.178 124.371 M118.607 150.367 C 118.551 150.577,118.504 151.073,118.502 151.468 C 118.501 151.863,118.428 152.688,118.340 153.301 C 118.172 154.474,117.950 157.354,117.663 162.083 C 117.308 167.916,117.570 179.979,118.155 184.833 C 118.238 185.521,118.312 186.409,118.319 186.807 C 118.326 187.204,118.365 187.583,118.405 187.648 C 118.445 187.713,118.526 188.437,118.585 189.257 C 118.693 190.749,118.833 191.367,118.833 190.348 C 118.833 189.749,118.776 189.755,120.625 190.173 C 121.015 190.261,121.671 190.408,122.083 190.500 C 122.496 190.592,123.152 190.738,123.542 190.824 C 123.931 190.911,125.075 191.177,126.083 191.415 C 127.092 191.653,128.217 191.914,128.583 191.995 C 128.950 192.077,129.606 192.224,130.042 192.322 C 130.477 192.420,131.190 192.579,131.625 192.677 C 132.060 192.774,132.829 192.957,133.333 193.083 C 134.332 193.334,134.936 193.474,137.333 194.009 C 138.204 194.204,139.256 194.456,139.671 194.569 C 140.538 194.806,140.528 194.833,140.209 193.167 C 139.953 191.827,139.688 189.833,139.490 187.762 C 139.394 186.760,139.287 185.893,139.252 185.837 C 139.217 185.780,139.147 185.081,139.098 184.284 C 139.048 183.486,138.935 182.178,138.846 181.375 C 138.236 175.823,138.280 163.410,138.930 158.174 C 139.060 157.123,139.167 155.914,139.167 155.487 L 139.167 154.710 138.375 154.512 C 137.940 154.403,137.171 154.210,136.667 154.083 C 136.162 153.957,135.394 153.774,134.958 153.677 C 134.523 153.579,133.810 153.420,133.375 153.322 C 132.940 153.224,132.265 153.074,131.875 152.988 C 130.263 152.636,129.536 152.468,128.667 152.250 C 128.162 152.123,127.412 151.944,127.000 151.852 C 126.587 151.760,125.612 151.537,124.833 151.355 C 122.634 150.843,119.804 150.203,119.230 150.088 C 118.784 149.998,118.695 150.038,118.607 150.367 " stroke="none" fill="#243ca4" fill-rule="evenodd"></path><path id="path1" d="M149.294 0.785 C 149.501 0.824,149.801 0.823,149.960 0.781 C 150.120 0.739,149.950 0.707,149.583 0.709 C 149.217 0.711,149.086 0.745,149.294 0.785 M181.294 0.785 C 181.501 0.824,181.801 0.823,181.960 0.781 C 182.120 0.739,181.950 0.707,181.583 0.709 C 181.217 0.711,181.086 0.745,181.294 0.785 M114.667 7.988 C 114.162 8.158,112.850 8.583,111.750 8.934 C 110.650 9.284,109.563 9.667,109.333 9.784 C 109.104 9.902,108.800 9.998,108.658 9.999 C 108.516 10.000,108.329 10.060,108.242 10.133 C 108.155 10.206,107.783 10.361,107.417 10.477 C 107.050 10.593,106.600 10.754,106.417 10.835 C 106.233 10.915,105.108 11.366,103.917 11.837 C 102.725 12.308,101.150 12.959,100.417 13.285 C 99.683 13.610,98.746 14.024,98.333 14.204 C 96.145 15.162,94.520 15.942,90.583 17.924 C 88.200 19.124,85.933 20.307,85.545 20.553 C 85.157 20.799,84.798 21.000,84.746 21.000 C 84.694 21.000,83.719 21.563,82.578 22.250 C 81.437 22.938,80.469 23.500,80.426 23.500 C 80.384 23.500,79.176 24.250,77.742 25.167 C 76.308 26.083,75.073 26.833,74.998 26.833 C 74.923 26.833,74.836 26.890,74.806 26.958 C 74.775 27.027,74.188 27.455,73.500 27.909 C 72.400 28.636,71.726 29.119,71.057 29.661 C 70.952 29.747,70.483 30.052,70.016 30.339 C 69.549 30.627,69.167 30.943,69.167 31.042 C 69.167 31.141,69.118 31.174,69.059 31.114 C 68.999 31.055,68.829 31.136,68.681 31.295 C 68.397 31.600,67.993 31.878,67.375 32.195 C 67.169 32.300,67.000 32.454,67.000 32.537 C 67.000 32.619,67.059 32.650,67.130 32.606 C 67.202 32.562,67.933 32.694,68.755 32.901 C 69.577 33.107,70.662 33.367,71.167 33.479 C 71.671 33.591,72.421 33.760,72.833 33.853 C 73.800 34.072,74.690 34.269,75.833 34.514 C 76.337 34.622,77.087 34.808,77.500 34.927 C 77.912 35.046,79.337 35.377,80.667 35.661 C 83.522 36.273,84.275 36.442,85.500 36.750 C 86.004 36.877,86.754 37.056,87.167 37.148 C 87.579 37.240,88.592 37.473,89.417 37.667 C 90.918 38.018,91.167 38.075,93.500 38.600 C 94.188 38.754,95.062 38.976,95.443 39.092 C 96.016 39.266,96.193 39.263,96.463 39.074 C 96.643 38.948,96.837 38.892,96.895 38.950 C 96.953 39.008,97.000 38.979,97.000 38.886 C 97.000 38.793,97.300 38.582,97.667 38.417 C 98.033 38.251,98.333 38.065,98.333 38.002 C 98.333 37.940,98.427 37.886,98.542 37.882 C 98.740 37.875,100.975 36.830,101.500 36.498 C 101.702 36.370,104.614 34.994,106.083 34.333 C 106.267 34.250,107.080 33.879,107.892 33.508 C 108.703 33.137,109.404 32.833,109.450 32.833 C 109.495 32.833,109.807 32.713,110.141 32.566 C 111.096 32.147,111.317 32.058,113.000 31.412 C 113.871 31.078,114.733 30.740,114.917 30.661 C 115.253 30.517,117.047 29.868,118.583 29.335 C 119.042 29.176,120.204 28.802,121.167 28.504 C 122.129 28.206,123.179 27.865,123.500 27.747 C 124.829 27.256,129.341 26.060,132.917 25.250 C 134.292 24.939,135.904 24.573,136.500 24.437 C 137.096 24.301,138.071 24.103,138.667 23.999 C 139.262 23.894,140.087 23.744,140.500 23.666 C 140.912 23.588,141.850 23.437,142.583 23.329 C 143.317 23.221,144.517 23.033,145.250 22.910 C 145.983 22.787,147.146 22.642,147.833 22.588 C 148.521 22.534,149.908 22.385,150.917 22.256 C 157.137 21.459,166.604 21.337,177.083 21.919 C 178.399 21.992,178.605 22.053,174.000 21.014 C 172.304 20.631,170.654 20.251,170.333 20.169 C 169.741 20.017,168.983 19.844,167.333 19.482 C 166.829 19.371,165.883 19.145,165.230 18.979 C 164.577 18.813,162.327 18.296,160.230 17.831 C 158.133 17.365,156.154 16.916,155.833 16.833 C 155.224 16.674,152.760 16.095,151.542 15.824 C 150.716 15.640,150.054 15.489,147.667 14.939 C 146.704 14.717,145.204 14.375,144.333 14.179 C 141.768 13.601,141.298 13.492,140.333 13.250 C 139.434 13.024,138.451 12.797,137.042 12.488 C 136.323 12.331,135.470 12.142,134.042 11.823 C 133.606 11.726,132.837 11.543,132.333 11.417 C 131.829 11.290,131.060 11.107,130.625 11.010 C 130.190 10.913,129.477 10.753,129.042 10.655 C 128.606 10.557,127.931 10.407,127.542 10.322 C 125.930 9.969,125.203 9.802,124.333 9.583 C 123.829 9.457,123.060 9.274,122.625 9.177 C 121.243 8.868,120.446 8.688,119.333 8.432 C 115.406 7.528,115.898 7.575,114.667 7.988 M179.294 22.118 C 179.501 22.158,179.801 22.156,179.960 22.115 C 180.120 22.073,179.950 22.040,179.583 22.042 C 179.217 22.044,179.086 22.078,179.294 22.118 M181.542 22.448 C 181.702 22.490,181.965 22.490,182.125 22.448 C 182.285 22.406,182.154 22.372,181.833 22.372 C 181.512 22.372,181.381 22.406,181.542 22.448 M217.500 31.110 C 217.500 31.198,218.337 31.536,218.746 31.614 C 218.928 31.648,219.149 31.749,219.238 31.838 C 219.327 31.927,219.502 32.000,219.627 32.000 C 219.752 32.000,220.262 32.188,220.760 32.417 C 222.824 33.365,223.461 33.647,224.333 33.996 C 224.838 34.197,225.400 34.444,225.583 34.543 C 226.713 35.158,227.598 35.533,227.734 35.454 C 227.769 35.433,227.937 35.534,228.108 35.677 C 228.419 35.939,231.317 37.408,231.533 37.414 C 231.597 37.415,231.744 37.510,231.858 37.625 C 231.973 37.740,232.164 37.833,232.283 37.833 C 232.403 37.833,232.500 37.908,232.500 38.000 C 232.500 38.092,232.594 38.167,232.708 38.168 C 232.823 38.169,233.509 38.507,234.233 38.921 C 234.956 39.334,235.725 39.717,235.941 39.771 C 236.157 39.825,236.333 39.919,236.333 39.980 C 236.333 40.041,236.690 40.276,237.125 40.503 C 237.560 40.731,237.942 40.973,237.972 41.042 C 238.003 41.110,238.098 41.167,238.184 41.167 C 238.270 41.167,238.657 41.373,239.045 41.625 C 239.433 41.877,239.825 42.121,239.917 42.167 C 240.008 42.212,240.421 42.469,240.833 42.737 C 241.246 43.004,241.846 43.387,242.167 43.587 C 243.021 44.120,247.722 47.217,247.917 47.375 C 248.103 47.526,250.186 49.017,250.833 49.461 C 251.063 49.619,251.625 50.035,252.083 50.386 C 252.542 50.737,253.299 51.312,253.766 51.665 C 254.233 52.018,254.721 52.409,254.850 52.534 C 254.978 52.660,255.383 52.984,255.750 53.255 C 256.117 53.526,256.454 53.790,256.500 53.842 C 256.546 53.894,257.184 54.430,257.919 55.034 L 259.254 56.131 260.752 55.835 C 261.576 55.672,262.775 55.450,263.417 55.341 C 264.058 55.232,264.958 55.077,265.417 54.996 C 265.875 54.916,266.887 54.772,267.667 54.677 C 268.446 54.581,269.946 54.395,271.000 54.263 C 274.656 53.803,277.276 53.665,282.292 53.666 C 285.065 53.666,287.333 53.603,287.333 53.526 C 287.333 53.448,286.389 52.417,285.236 51.234 C 284.082 50.051,282.812 48.735,282.412 48.309 C 282.013 47.884,281.645 47.578,281.593 47.629 C 281.542 47.680,281.500 47.630,281.500 47.518 C 281.500 47.406,281.413 47.367,281.308 47.433 C 281.200 47.499,281.160 47.479,281.217 47.387 C 281.353 47.167,278.960 44.874,278.688 44.965 C 278.571 45.004,278.162 44.958,277.779 44.863 C 277.113 44.697,276.386 44.530,274.750 44.167 C 273.238 43.831,272.546 43.672,270.750 43.248 C 268.874 42.805,267.986 42.602,266.667 42.312 C 266.254 42.221,265.504 42.043,265.000 41.917 C 264.496 41.790,263.727 41.607,263.292 41.510 C 261.863 41.191,261.011 41.002,260.292 40.845 C 258.883 40.537,257.899 40.309,257.000 40.083 C 256.149 39.870,255.773 39.783,253.750 39.333 C 253.338 39.242,252.662 39.092,252.250 39.000 C 250.227 38.550,249.851 38.464,249.000 38.250 C 248.035 38.008,247.565 37.899,245.000 37.321 C 244.129 37.125,242.629 36.783,241.667 36.561 C 240.704 36.339,239.617 36.090,239.250 36.007 C 238.883 35.924,238.246 35.780,237.833 35.686 C 237.421 35.593,236.671 35.426,236.167 35.315 C 235.662 35.205,234.725 34.981,234.083 34.817 C 233.441 34.654,231.041 34.096,228.750 33.578 C 226.458 33.059,224.302 32.567,223.958 32.484 C 222.369 32.101,222.025 32.021,221.167 31.834 C 220.662 31.724,219.912 31.559,219.500 31.467 C 218.025 31.140,217.500 31.046,217.500 31.110 M187.672 35.084 C 186.712 35.765,185.810 36.422,185.668 36.544 C 185.526 36.665,185.036 37.019,184.580 37.330 C 184.123 37.641,183.713 37.942,183.667 38.000 C 183.621 38.057,183.021 38.524,182.333 39.036 C 180.370 40.498,179.257 41.359,179.167 41.486 C 179.121 41.550,178.715 41.880,178.266 42.219 C 177.461 42.827,177.111 43.122,174.099 45.730 C 171.945 47.595,168.568 50.754,166.348 52.980 L 164.446 54.886 165.348 55.103 C 165.844 55.222,166.625 55.401,167.083 55.500 C 167.911 55.679,168.166 55.741,170.083 56.227 C 170.633 56.366,171.440 56.560,171.875 56.657 C 172.310 56.754,172.985 56.905,173.375 56.992 C 173.765 57.079,174.458 57.230,174.917 57.327 C 175.375 57.424,176.875 57.767,178.250 58.090 C 179.625 58.413,181.050 58.745,181.417 58.827 C 181.783 58.909,182.440 59.057,182.875 59.155 C 183.310 59.253,184.023 59.413,184.458 59.510 C 184.894 59.607,185.550 59.767,185.917 59.864 C 188.443 60.540,189.264 60.544,189.648 59.884 C 189.744 59.719,189.825 59.639,189.828 59.707 C 189.833 59.830,190.026 59.690,191.151 58.749 C 191.921 58.104,193.534 56.791,193.750 56.633 C 193.842 56.566,194.179 56.299,194.500 56.039 C 194.821 55.779,195.608 55.198,196.250 54.750 C 196.892 54.301,197.442 53.874,197.472 53.800 C 197.503 53.727,197.600 53.667,197.688 53.667 C 197.775 53.667,198.008 53.517,198.205 53.333 C 198.773 52.804,206.604 47.625,208.167 46.745 C 208.946 46.306,209.808 45.786,210.083 45.590 C 210.358 45.393,211.033 45.005,211.583 44.728 C 212.133 44.451,212.883 44.036,213.250 43.807 C 213.617 43.578,214.160 43.284,214.458 43.155 C 215.098 42.876,215.130 42.747,214.625 42.481 C 214.419 42.372,214.213 42.238,214.167 42.183 C 214.001 41.984,209.289 39.333,209.101 39.333 C 208.993 39.333,208.042 38.924,206.583 38.249 C 205.677 37.830,203.549 37.046,202.750 36.837 C 202.475 36.765,201.650 36.505,200.917 36.260 C 200.183 36.015,199.208 35.736,198.750 35.640 C 198.292 35.545,197.617 35.395,197.250 35.308 C 196.883 35.221,196.246 35.082,195.833 35.000 C 195.421 34.917,194.529 34.730,193.852 34.585 C 193.175 34.439,192.072 34.250,191.401 34.165 C 190.730 34.080,190.009 33.973,189.799 33.928 C 189.515 33.867,188.966 34.166,187.672 35.084 M277.833 44.083 C 278.144 44.404,278.436 44.667,278.482 44.667 C 278.528 44.667,278.311 44.404,278.000 44.083 C 277.689 43.762,277.397 43.500,277.351 43.500 C 277.305 43.500,277.522 43.762,277.833 44.083 M0.712 149.333 C 0.712 149.746,0.745 149.915,0.784 149.708 C 0.824 149.502,0.824 149.165,0.784 148.958 C 0.745 148.752,0.712 148.921,0.712 149.333 M0.105 166.500 C 0.135 170.304,0.229 174.429,0.315 175.667 C 0.543 178.930,0.786 181.583,0.981 182.917 C 1.074 183.558,1.233 184.758,1.334 185.583 C 1.662 188.273,1.844 189.568,2.020 190.463 C 2.115 190.947,2.297 192.035,2.425 192.880 C 2.857 195.734,3.073 196.833,3.204 196.833 C 3.275 196.833,3.334 197.115,3.335 197.458 C 3.338 198.422,3.528 199.357,3.732 199.410 C 3.834 199.437,4.329 199.546,4.833 199.654 C 6.276 199.962,7.177 200.168,8.167 200.417 C 9.030 200.634,9.866 200.828,11.417 201.171 C 12.672 201.449,14.250 201.809,15.750 202.160 C 17.353 202.536,18.219 202.734,19.417 203.000 C 19.829 203.092,20.485 203.238,20.875 203.325 C 21.265 203.412,21.996 203.572,22.500 203.680 C 23.004 203.788,23.754 203.976,24.167 204.097 C 25.337 204.441,26.980 204.742,27.090 204.633 C 27.144 204.578,27.098 204.207,26.988 203.808 C 26.878 203.410,26.768 202.920,26.743 202.721 C 26.719 202.522,26.638 202.110,26.563 201.805 C 26.488 201.500,26.417 201.175,26.407 201.083 C 26.350 200.593,26.126 199.475,25.922 198.667 C 25.794 198.162,25.603 197.300,25.496 196.750 C 25.248 195.477,25.005 194.265,24.828 193.417 C 24.752 193.050,24.605 192.262,24.503 191.667 C 24.400 191.071,24.213 190.058,24.086 189.417 C 23.522 186.568,22.912 181.529,22.745 178.350 L 22.646 176.449 42.114 176.535 C 52.822 176.582,61.396 176.566,61.167 176.499 C 60.938 176.431,60.337 176.288,59.833 176.180 C 58.371 175.867,57.482 175.663,56.500 175.417 C 55.996 175.290,55.246 175.110,54.833 175.016 C 54.421 174.923,53.446 174.698,52.667 174.518 C 51.887 174.337,50.688 174.075,50.000 173.935 C 49.313 173.794,48.525 173.611,48.250 173.527 C 47.975 173.443,47.337 173.287,46.833 173.179 C 45.521 172.899,44.772 172.730,43.167 172.349 C 41.276 171.900,38.281 171.215,37.250 170.995 C 35.870 170.701,35.195 170.544,32.583 169.916 C 31.208 169.585,29.746 169.242,29.333 169.154 C 28.689 169.017,27.091 168.655,24.208 167.996 C 23.819 167.906,23.144 167.754,22.708 167.656 C 22.273 167.559,21.654 167.413,21.333 167.333 C 21.012 167.253,20.375 167.104,19.917 167.001 C 19.458 166.898,18.671 166.707,18.167 166.577 C 17.662 166.448,15.825 166.035,14.083 165.660 C 12.342 165.285,10.579 164.880,10.167 164.761 C 9.754 164.641,9.004 164.455,8.500 164.347 C 7.996 164.239,7.265 164.079,6.875 163.992 C 6.485 163.905,5.848 163.764,5.458 163.678 C 4.626 163.496,3.809 163.307,1.714 162.813 L 0.179 162.450 0.115 161.017 C 0.080 160.228,0.076 162.696,0.105 166.500 M118.205 186.000 C 118.205 186.321,118.240 186.452,118.282 186.292 C 118.323 186.131,118.323 185.869,118.282 185.708 C 118.240 185.548,118.205 185.679,118.205 186.000 M118.833 190.959 C 118.833 191.593,118.910 192.555,119.004 193.097 C 119.184 194.136,119.515 196.131,119.831 198.083 C 119.935 198.725,120.085 199.588,120.164 200.000 C 120.243 200.412,120.394 201.237,120.499 201.833 C 120.717 203.077,120.864 203.782,121.247 205.417 C 121.397 206.058,121.586 206.883,121.668 207.250 C 122.107 209.236,122.537 211.012,122.756 211.750 C 122.892 212.208,123.115 213.015,123.252 213.542 C 123.810 215.698,124.038 216.504,124.608 218.333 C 125.473 221.113,126.653 224.697,126.831 225.083 C 126.915 225.267,127.184 225.996,127.429 226.705 C 127.858 227.946,127.896 227.996,128.479 228.094 C 128.811 228.149,129.308 228.255,129.583 228.328 C 129.858 228.402,130.533 228.554,131.083 228.666 C 131.633 228.779,132.421 228.965,132.833 229.081 C 133.246 229.196,133.996 229.378,134.500 229.486 C 135.004 229.595,135.735 229.754,136.125 229.841 C 136.515 229.929,137.152 230.071,137.542 230.158 C 137.931 230.245,139.075 230.510,140.083 230.748 C 141.879 231.172,142.571 231.331,144.083 231.667 C 144.496 231.758,145.171 231.908,145.583 232.000 C 145.996 232.092,146.690 232.246,147.125 232.343 C 147.560 232.440,148.329 232.626,148.833 232.756 C 149.337 232.886,150.462 233.155,151.333 233.353 C 152.204 233.551,153.058 233.834,153.230 233.981 C 153.435 234.157,153.367 233.962,153.034 233.417 C 152.755 232.958,152.364 232.171,152.166 231.667 C 151.968 231.163,151.721 230.649,151.618 230.525 C 151.516 230.401,151.418 230.209,151.402 230.098 C 151.385 229.987,151.189 229.489,150.965 228.990 C 150.741 228.491,150.383 227.633,150.168 227.083 C 149.954 226.533,149.723 226.008,149.656 225.917 C 149.538 225.758,148.357 222.932,148.262 222.583 C 148.176 222.266,147.978 221.748,147.752 221.250 C 147.496 220.684,147.095 219.545,145.639 215.250 C 145.080 213.600,144.553 211.987,144.468 211.667 C 144.384 211.346,144.250 210.858,144.172 210.583 C 143.732 209.046,142.616 204.872,142.411 204.000 C 142.118 202.757,141.508 199.960,141.085 197.917 C 140.951 197.275,140.752 196.338,140.641 195.833 C 140.531 195.329,140.445 194.729,140.452 194.500 C 140.458 194.251,140.432 194.201,140.386 194.375 C 140.290 194.740,140.734 194.799,136.833 193.901 C 136.237 193.764,135.412 193.576,135.000 193.483 C 134.587 193.390,133.837 193.210,133.333 193.083 C 132.829 192.957,132.079 192.779,131.667 192.688 C 131.254 192.598,130.542 192.438,130.083 192.333 C 129.625 192.229,128.950 192.077,128.583 191.995 C 128.217 191.914,127.092 191.653,126.083 191.415 C 124.305 190.995,123.608 190.836,122.125 190.512 C 121.735 190.426,121.079 190.279,120.667 190.185 C 120.254 190.090,119.673 189.967,119.375 189.910 L 118.833 189.807 118.833 190.959 M27.669 207.597 C 27.671 207.773,27.748 208.029,27.841 208.167 C 27.964 208.349,27.980 208.282,27.898 207.917 C 27.761 207.304,27.666 207.171,27.669 207.597 M381.810 274.379 C 381.319 274.862,380.279 275.818,379.500 276.504 C 378.721 277.189,377.971 277.865,377.834 278.006 C 377.696 278.147,376.796 278.932,375.833 279.750 C 374.871 280.568,374.046 281.282,374.000 281.335 C 373.954 281.388,373.443 281.793,372.864 282.235 C 370.815 283.796,370.783 283.852,371.833 284.053 C 372.197 284.122,375.314 284.826,378.667 285.596 C 379.262 285.733,380.162 285.950,380.667 286.079 C 381.171 286.208,381.921 286.388,382.333 286.478 C 382.746 286.569,383.458 286.729,383.917 286.833 C 384.375 286.938,385.087 287.098,385.500 287.190 C 385.912 287.282,386.550 287.423,386.917 287.505 C 387.283 287.586,388.408 287.847,389.417 288.085 C 391.329 288.536,392.026 288.696,393.417 288.999 C 393.875 289.099,394.662 289.279,395.164 289.400 C 396.058 289.615,396.776 289.478,396.563 289.133 C 396.517 289.060,396.592 289.000,396.729 289.000 C 396.866 289.000,397.025 288.850,397.083 288.667 C 397.142 288.483,397.259 288.333,397.345 288.333 C 397.569 288.333,398.157 287.713,398.042 287.597 C 397.988 287.544,398.069 287.500,398.222 287.500 C 398.603 287.500,398.570 287.289,398.144 286.995 C 397.948 286.860,397.554 286.539,397.269 286.281 C 396.983 286.023,396.544 285.688,396.292 285.537 C 396.040 285.385,395.833 285.203,395.833 285.131 C 395.833 285.059,395.758 285.000,395.667 285.000 C 395.575 285.000,395.363 284.869,395.195 284.708 C 394.847 284.375,394.333 283.935,392.917 282.759 C 392.367 282.302,391.829 281.851,391.723 281.756 C 391.616 281.661,391.093 281.208,390.561 280.750 C 389.285 279.652,387.375 277.864,384.909 275.458 C 382.556 273.164,382.917 273.290,381.810 274.379 " stroke="none" fill="#24349c" fill-rule="evenodd"></path><path id="path2" d="M156.417 0.193 C 155.042 0.270,152.867 0.439,151.583 0.568 C 150.300 0.697,149.025 0.810,148.750 0.818 C 148.475 0.827,147.842 0.909,147.344 1.000 C 146.846 1.092,146.111 1.167,145.710 1.167 C 145.309 1.167,144.666 1.235,144.282 1.319 C 143.898 1.402,142.871 1.556,142.000 1.659 C 141.129 1.763,139.854 1.952,139.167 2.079 C 138.479 2.206,137.392 2.394,136.750 2.497 C 136.108 2.599,135.283 2.750,134.917 2.831 C 134.550 2.912,133.762 3.064,133.167 3.169 C 131.461 3.471,130.438 3.692,130.167 3.819 C 130.029 3.884,129.634 3.953,129.288 3.974 C 128.942 3.994,128.486 4.077,128.275 4.157 C 127.929 4.289,127.314 4.443,124.833 5.023 C 124.421 5.120,123.896 5.259,123.667 5.334 C 122.506 5.711,121.533 5.988,121.091 6.068 C 120.406 6.192,118.907 6.641,117.916 7.020 C 117.457 7.195,116.830 7.371,116.523 7.410 C 115.633 7.522,115.729 7.617,117.030 7.908 C 117.701 8.058,118.737 8.293,119.333 8.431 C 119.929 8.569,120.717 8.748,121.083 8.829 C 122.634 9.172,123.470 9.366,124.333 9.583 C 125.185 9.797,125.560 9.884,127.583 10.333 C 127.996 10.425,128.671 10.575,129.083 10.667 C 131.107 11.116,131.482 11.203,132.333 11.417 C 132.837 11.543,133.606 11.726,134.042 11.823 C 134.477 11.921,135.190 12.080,135.625 12.178 C 136.060 12.276,136.735 12.426,137.125 12.512 C 138.737 12.864,139.464 13.032,140.333 13.250 C 141.298 13.492,141.768 13.601,144.333 14.179 C 145.204 14.375,146.704 14.717,147.667 14.939 C 148.629 15.161,149.717 15.410,150.083 15.493 C 150.450 15.576,151.087 15.719,151.500 15.813 C 152.952 16.140,155.257 16.683,155.833 16.833 C 156.154 16.916,158.133 17.365,160.230 17.831 C 162.327 18.296,164.577 18.813,165.230 18.979 C 165.883 19.145,166.829 19.371,167.333 19.482 C 168.983 19.844,169.741 20.017,170.333 20.169 C 170.959 20.329,176.644 21.614,177.750 21.846 C 178.117 21.923,178.810 21.989,179.292 21.993 C 179.773 21.997,180.167 22.075,180.167 22.167 C 180.167 22.258,180.560 22.333,181.042 22.333 C 181.523 22.333,182.554 22.439,183.333 22.569 C 185.778 22.978,187.391 23.189,188.127 23.198 C 188.518 23.202,188.879 23.272,188.929 23.353 C 188.979 23.434,189.428 23.500,189.927 23.500 C 190.425 23.500,190.833 23.575,190.833 23.667 C 190.833 23.758,191.128 23.833,191.489 23.833 C 191.850 23.833,192.349 23.911,192.599 24.006 C 192.848 24.101,193.359 24.219,193.734 24.269 C 194.110 24.319,194.567 24.380,194.750 24.405 C 194.933 24.431,195.404 24.541,195.796 24.650 C 196.187 24.759,196.575 24.807,196.656 24.756 C 196.738 24.706,196.830 24.740,196.861 24.833 C 196.892 24.926,197.229 25.020,197.610 25.042 C 197.991 25.065,198.269 25.117,198.229 25.158 C 198.147 25.242,200.750 25.849,201.205 25.852 C 201.364 25.854,201.537 25.925,201.590 26.011 C 201.643 26.096,201.901 26.167,202.163 26.167 C 202.425 26.167,202.964 26.305,203.361 26.475 C 203.758 26.644,204.383 26.837,204.750 26.903 C 205.375 27.016,206.664 27.391,207.417 27.680 C 207.732 27.800,208.620 28.040,208.861 28.070 C 208.922 28.077,209.028 28.140,209.097 28.208 C 209.166 28.277,209.435 28.333,209.694 28.333 C 209.954 28.333,210.167 28.392,210.167 28.463 C 210.167 28.561,211.693 29.115,212.333 29.249 C 212.656 29.317,213.375 29.569,214.083 29.864 C 215.474 30.442,215.554 30.470,216.450 30.684 C 216.927 30.799,217.286 30.943,217.247 31.004 C 217.209 31.066,217.419 31.123,217.714 31.131 C 218.009 31.140,218.569 31.226,218.958 31.323 C 219.348 31.421,220.004 31.575,220.417 31.667 C 222.814 32.199,223.270 32.307,224.583 32.646 C 224.950 32.741,226.966 33.199,229.063 33.664 C 231.161 34.129,233.411 34.646,234.063 34.812 C 234.716 34.978,235.662 35.205,236.167 35.315 C 236.671 35.426,237.421 35.593,237.833 35.686 C 238.246 35.780,238.883 35.924,239.250 36.007 C 239.617 36.090,240.704 36.339,241.667 36.561 C 242.629 36.783,244.129 37.125,245.000 37.321 C 247.565 37.899,248.035 38.008,249.000 38.250 C 249.504 38.377,250.273 38.560,250.708 38.657 C 251.144 38.754,251.856 38.914,252.292 39.012 C 252.727 39.110,253.402 39.260,253.792 39.345 C 255.403 39.698,256.130 39.865,257.000 40.083 C 257.851 40.297,258.227 40.384,260.250 40.833 C 260.662 40.925,261.337 41.075,261.750 41.167 C 263.773 41.616,264.149 41.703,265.000 41.917 C 265.504 42.043,266.254 42.221,266.667 42.312 C 267.986 42.602,268.874 42.805,270.750 43.248 C 271.758 43.486,272.902 43.752,273.292 43.840 C 274.815 44.184,275.451 44.324,276.333 44.513 C 276.837 44.620,277.467 44.774,277.733 44.854 C 278.374 45.048,278.833 45.039,278.833 44.833 C 278.833 44.742,278.733 44.667,278.610 44.667 C 278.488 44.667,278.084 44.348,277.713 43.958 C 277.342 43.569,276.898 43.123,276.727 42.967 C 276.556 42.811,276.332 42.596,276.228 42.489 C 275.716 41.959,275.000 41.317,275.000 41.387 C 275.000 41.431,274.747 41.230,274.437 40.942 C 273.645 40.203,273.373 40.000,273.174 40.000 C 273.078 40.000,273.000 39.890,273.000 39.756 C 273.000 39.622,272.837 39.424,272.638 39.318 C 272.439 39.211,272.109 38.965,271.906 38.770 C 271.073 37.974,270.525 37.500,270.437 37.500 C 270.386 37.500,270.079 37.235,269.756 36.911 C 269.432 36.587,269.167 36.371,269.167 36.431 C 269.167 36.490,268.880 36.286,268.530 35.978 C 267.527 35.095,267.141 34.785,266.263 34.164 C 265.813 33.845,265.215 33.377,264.935 33.125 C 264.655 32.873,264.379 32.667,264.322 32.667 C 264.265 32.667,264.001 32.479,263.734 32.250 C 263.468 32.021,263.205 31.834,263.151 31.834 C 263.096 31.833,262.871 31.675,262.651 31.482 C 262.430 31.288,261.800 30.825,261.250 30.452 C 260.700 30.080,260.212 29.724,260.167 29.661 C 260.121 29.598,259.840 29.422,259.542 29.269 C 259.244 29.116,259.000 28.927,259.000 28.849 C 259.000 28.771,258.773 28.613,258.495 28.498 C 258.217 28.383,258.012 28.266,258.039 28.238 C 258.176 28.101,261.721 27.581,266.417 27.007 C 276.945 25.722,290.336 25.853,301.500 27.351 C 302.627 27.502,303.541 27.647,306.750 28.182 C 309.551 28.649,312.798 29.286,314.333 29.670 C 314.746 29.773,315.721 30.006,316.500 30.187 C 318.548 30.664,320.393 31.146,321.917 31.603 C 322.650 31.823,323.512 32.077,323.833 32.167 C 325.254 32.566,326.782 33.035,327.151 33.186 C 327.371 33.276,328.646 33.715,329.984 34.161 C 331.322 34.608,332.971 35.204,333.648 35.487 C 334.325 35.769,334.945 36.000,335.025 36.000 C 335.105 36.000,335.526 36.158,335.960 36.351 C 336.957 36.794,337.636 37.086,338.167 37.299 C 338.396 37.391,338.939 37.624,339.373 37.817 C 339.808 38.009,340.194 38.167,340.232 38.167 C 340.500 38.167,347.960 41.803,350.083 42.969 C 351.000 43.472,352.238 44.146,352.833 44.466 C 354.184 45.191,357.554 47.191,357.667 47.333 C 357.712 47.391,358.200 47.691,358.750 47.999 C 359.712 48.539,361.699 49.817,362.119 50.167 C 362.230 50.259,362.511 50.421,362.744 50.527 C 362.976 50.633,363.167 50.783,363.167 50.860 C 363.167 50.937,363.261 51.000,363.377 51.000 C 363.492 51.000,363.780 51.179,364.016 51.398 C 364.253 51.618,364.676 51.916,364.957 52.061 C 365.238 52.207,365.569 52.424,365.693 52.545 C 365.816 52.666,366.442 53.134,367.083 53.586 C 368.031 54.253,369.773 55.579,371.500 56.948 C 372.898 58.056,375.000 59.762,375.333 60.059 C 375.563 60.263,376.387 60.971,377.167 61.631 C 377.946 62.292,378.670 62.926,378.776 63.041 C 378.882 63.156,379.472 63.700,380.089 64.250 C 380.705 64.800,381.692 65.719,382.282 66.292 C 382.873 66.865,383.396 67.333,383.446 67.333 C 383.495 67.333,383.688 67.527,383.875 67.765 L 384.214 68.196 384.607 67.739 C 384.823 67.487,385.000 67.346,385.000 67.424 C 385.000 67.503,385.300 67.255,385.667 66.873 C 386.033 66.492,386.333 66.089,386.333 65.979 C 386.333 65.868,386.382 65.827,386.442 65.887 C 386.502 65.947,386.765 65.772,387.027 65.498 C 387.289 65.224,387.547 65.000,387.601 65.000 C 387.655 65.000,387.898 64.793,388.141 64.539 C 388.384 64.286,389.140 63.592,389.821 62.998 C 390.502 62.403,391.252 61.728,391.488 61.497 C 391.724 61.266,392.292 60.781,392.750 60.419 C 393.208 60.057,393.621 59.719,393.667 59.667 C 393.712 59.615,394.124 59.275,394.582 58.911 C 395.039 58.547,395.564 58.112,395.748 57.943 C 395.933 57.773,396.421 57.404,396.833 57.122 C 397.246 56.840,397.816 56.416,398.101 56.180 C 399.137 55.321,399.339 55.167,399.430 55.167 C 399.578 55.167,400.000 54.706,400.000 54.545 C 400.000 54.302,394.742 49.238,391.906 46.750 C 391.279 46.200,390.648 45.637,390.504 45.500 C 390.360 45.362,389.794 44.875,389.246 44.417 C 388.698 43.958,388.212 43.542,388.167 43.491 C 388.121 43.440,387.258 42.738,386.250 41.932 C 385.242 41.125,384.267 40.340,384.083 40.188 C 383.900 40.036,383.451 39.687,383.087 39.414 C 382.722 39.140,382.309 38.828,382.170 38.719 C 381.414 38.129,378.931 36.318,377.996 35.674 C 377.402 35.265,376.892 34.871,376.861 34.799 C 376.831 34.726,376.717 34.667,376.609 34.667 C 376.502 34.667,376.211 34.479,375.964 34.250 C 375.717 34.021,375.471 33.833,375.418 33.833 C 375.365 33.833,374.497 33.271,373.489 32.583 C 372.481 31.896,371.618 31.333,371.571 31.333 C 371.524 31.333,371.395 31.256,371.285 31.162 C 371.174 31.068,370.708 30.759,370.250 30.475 C 369.792 30.191,369.096 29.743,368.703 29.479 C 368.311 29.216,367.958 29.000,367.919 29.000 C 367.880 29.000,367.451 28.764,366.966 28.477 C 366.480 28.189,365.746 27.765,365.333 27.535 C 364.921 27.304,364.546 27.069,364.500 27.012 C 364.454 26.955,364.042 26.723,363.583 26.496 C 363.125 26.269,362.725 26.027,362.694 25.958 C 362.664 25.890,362.538 25.833,362.415 25.833 C 362.291 25.833,362.091 25.740,361.970 25.625 C 361.849 25.510,361.075 25.082,360.250 24.673 C 359.425 24.264,358.712 23.888,358.667 23.838 C 358.621 23.788,358.321 23.624,358.000 23.474 C 357.146 23.073,355.646 22.334,355.167 22.076 C 353.674 21.274,351.248 20.167,350.983 20.167 C 350.809 20.167,350.667 20.092,350.667 20.000 C 350.667 19.908,350.517 19.833,350.333 19.833 C 350.150 19.833,350.000 19.777,350.000 19.707 C 350.000 19.638,349.756 19.483,349.458 19.363 C 349.160 19.243,348.786 19.075,348.627 18.989 C 348.468 18.903,348.239 18.833,348.119 18.833 C 347.999 18.833,347.815 18.749,347.712 18.645 C 347.436 18.369,345.818 17.808,345.333 17.820 C 345.042 17.827,344.984 17.787,345.140 17.688 C 345.284 17.596,345.123 17.545,344.685 17.545 C 344.313 17.545,343.687 17.462,343.295 17.361 C 342.571 17.173,340.359 16.657,337.500 16.010 C 336.629 15.813,335.129 15.465,334.167 15.236 C 333.204 15.007,332.098 14.748,331.708 14.660 C 329.726 14.213,329.366 14.132,328.750 14.000 C 327.549 13.742,326.432 13.484,325.500 13.250 C 324.996 13.123,324.246 12.943,323.833 12.850 C 323.421 12.756,322.446 12.532,321.667 12.351 C 320.887 12.171,319.688 11.908,319.000 11.768 C 318.313 11.628,317.525 11.444,317.250 11.361 C 316.975 11.277,316.337 11.120,315.833 11.013 C 314.521 10.733,313.772 10.563,312.167 10.182 C 310.276 9.733,307.281 9.048,306.250 8.828 C 304.890 8.538,304.211 8.381,301.583 7.751 C 299.092 7.154,298.303 6.971,296.958 6.680 C 296.569 6.595,295.762 6.412,295.167 6.273 C 294.571 6.133,293.671 5.929,293.167 5.820 C 292.662 5.710,291.987 5.551,291.667 5.465 C 289.953 5.009,275.812 5.140,269.167 5.674 C 263.937 6.094,254.946 7.303,252.309 7.939 C 251.792 8.064,251.177 8.167,250.942 8.167 C 250.708 8.167,250.343 8.233,250.133 8.314 C 249.922 8.396,249.262 8.548,248.667 8.653 C 247.179 8.915,246.069 9.155,245.083 9.428 C 244.625 9.554,243.575 9.813,242.750 10.004 C 241.925 10.194,240.987 10.421,240.667 10.508 C 238.433 11.117,237.520 11.369,237.083 11.499 C 236.808 11.581,236.321 11.721,236.000 11.810 C 235.679 11.899,234.892 12.135,234.250 12.333 C 233.608 12.532,232.857 12.751,232.579 12.821 C 232.302 12.891,231.913 13.035,231.715 13.141 C 231.218 13.407,230.643 13.382,230.204 13.074 C 230.000 12.931,229.833 12.860,229.833 12.917 C 229.833 12.973,229.590 12.891,229.292 12.736 C 228.353 12.245,228.176 12.167,228.000 12.167 C 227.847 12.167,227.486 12.020,225.750 11.256 C 225.475 11.135,224.987 10.945,224.667 10.834 C 224.346 10.724,223.933 10.573,223.750 10.500 C 223.567 10.427,223.154 10.277,222.833 10.167 C 222.512 10.056,222.100 9.904,221.917 9.828 C 221.733 9.753,221.133 9.540,220.583 9.355 C 220.033 9.170,219.058 8.836,218.417 8.612 C 216.932 8.093,214.069 7.163,213.417 6.987 C 212.498 6.739,211.758 6.531,210.833 6.259 C 209.431 5.848,206.170 4.991,205.364 4.823 C 204.968 4.740,204.580 4.633,204.502 4.585 C 204.424 4.536,204.147 4.465,203.888 4.426 C 203.629 4.387,202.934 4.236,202.343 4.089 C 200.671 3.674,194.373 2.457,191.583 2.011 C 186.937 1.267,179.113 0.447,174.000 0.168 C 170.444 -0.027,160.085 -0.012,156.417 0.193 M298.333 6.009 C 299.339 6.187,300.127 6.172,299.250 5.990 C 298.883 5.915,298.358 5.858,298.083 5.864 C 297.708 5.872,297.771 5.908,298.333 6.009 M3.754 199.999 C 3.789 200.274,3.893 200.773,3.986 201.109 C 4.078 201.444,4.115 201.782,4.067 201.859 C 4.019 201.937,4.052 202.000,4.139 202.000 C 4.226 202.000,4.334 202.244,4.380 202.542 C 4.667 204.418,5.174 206.828,5.580 208.250 C 5.737 208.800,5.926 209.512,6.000 209.833 C 6.358 211.390,8.639 218.695,9.252 220.250 C 9.469 220.800,9.756 221.588,9.891 222.000 C 10.180 222.888,10.490 223.724,11.283 225.750 C 12.128 227.909,12.101 227.844,12.483 228.707 C 12.676 229.141,12.833 229.529,12.833 229.569 C 12.833 229.609,13.096 230.211,13.417 230.905 C 13.737 231.600,14.000 232.206,14.000 232.253 C 14.000 232.714,18.880 242.564,19.033 242.411 C 19.068 242.376,19.109 242.506,19.123 242.700 C 19.138 242.895,19.212 243.098,19.287 243.152 C 19.362 243.206,19.516 243.438,19.630 243.667 C 19.744 243.896,19.986 244.308,20.168 244.583 C 20.350 244.858,20.580 245.284,20.678 245.529 C 20.819 245.879,21.006 245.998,21.554 246.085 C 22.225 246.191,22.501 246.254,24.500 246.755 C 25.934 247.115,29.123 247.854,30.583 248.165 C 30.950 248.243,31.775 248.430,32.417 248.580 C 33.602 248.858,34.484 249.058,35.833 249.356 C 36.246 249.447,36.846 249.587,37.167 249.667 C 37.487 249.747,38.125 249.896,38.583 249.999 C 39.042 250.102,39.829 250.290,40.333 250.417 C 41.544 250.721,42.284 250.888,45.167 251.507 C 47.422 251.992,48.189 252.181,50.208 252.747 C 51.049 252.983,51.214 252.894,50.667 252.500 C 50.483 252.368,50.333 252.170,50.333 252.059 C 50.333 251.949,50.090 251.613,49.792 251.313 C 49.494 251.013,49.362 250.831,49.500 250.908 C 49.637 250.986,49.581 250.885,49.375 250.685 C 49.169 250.484,49.000 250.262,49.000 250.190 C 49.000 250.119,48.738 249.766,48.417 249.405 C 48.096 249.045,47.834 248.664,47.833 248.559 C 47.833 248.454,47.616 248.136,47.350 247.851 C 47.084 247.566,46.900 247.333,46.941 247.333 C 47.018 247.333,46.016 245.816,45.841 245.667 C 45.787 245.621,45.408 245.058,45.000 244.417 C 44.592 243.775,44.214 243.213,44.161 243.167 C 44.108 243.121,43.966 242.840,43.845 242.542 C 43.725 242.244,43.579 242.000,43.521 242.000 C 43.464 242.000,43.154 241.512,42.833 240.917 C 42.512 240.321,42.194 239.834,42.125 239.834 C 42.056 239.833,42.000 239.745,42.000 239.638 C 42.000 239.531,41.898 239.325,41.773 239.180 C 41.648 239.035,41.225 238.317,40.833 237.583 C 40.441 236.850,40.066 236.175,39.999 236.083 C 39.559 235.478,36.543 229.671,35.367 227.167 C 33.955 224.158,33.776 223.764,33.251 222.500 C 32.633 221.010,32.441 220.566,31.937 219.454 C 31.697 218.924,31.500 218.417,31.500 218.327 C 31.500 218.236,31.434 218.032,31.353 217.873 C 31.034 217.245,30.491 215.815,29.820 213.833 C 29.556 213.054,29.114 211.751,28.837 210.937 C 28.560 210.123,28.333 209.350,28.333 209.219 C 28.333 209.084,28.251 209.031,28.145 209.097 C 28.030 209.168,27.989 209.123,28.039 208.982 C 28.084 208.854,28.029 208.563,27.916 208.333 C 27.804 208.104,27.659 207.506,27.595 207.004 C 27.531 206.502,27.397 205.785,27.296 205.410 L 27.114 204.729 25.956 204.515 C 25.319 204.397,24.487 204.205,24.107 204.088 C 23.727 203.971,23.004 203.787,22.500 203.679 C 20.265 203.202,18.626 202.834,15.750 202.160 C 14.925 201.967,13.762 201.699,13.167 201.564 C 12.571 201.429,11.783 201.251,11.417 201.168 C 11.050 201.084,10.337 200.928,9.833 200.820 C 9.329 200.712,8.579 200.529,8.167 200.414 C 7.754 200.299,6.967 200.113,6.417 200.001 C 5.867 199.889,5.199 199.730,4.933 199.649 C 3.981 199.356,3.684 199.444,3.754 199.999 M128.000 228.340 C 128.000 228.559,128.071 228.643,128.192 228.567 C 128.309 228.495,128.340 228.522,128.270 228.634 C 128.207 228.736,128.227 228.954,128.314 229.118 C 128.402 229.282,128.643 229.867,128.851 230.417 C 129.059 230.967,129.279 231.454,129.341 231.500 C 129.402 231.546,129.504 231.865,129.567 232.208 C 129.630 232.552,129.753 232.833,129.841 232.833 C 129.928 232.833,130.000 232.947,130.000 233.085 C 130.000 233.323,130.140 233.666,131.102 235.796 C 131.321 236.280,131.500 236.712,131.500 236.756 C 131.500 236.864,132.022 238.012,133.128 240.333 C 135.311 244.916,135.566 245.418,137.687 249.333 C 138.442 250.728,140.277 253.937,140.689 254.583 C 140.864 254.858,141.489 255.871,142.078 256.833 C 142.667 257.796,143.227 258.674,143.324 258.785 C 143.421 258.895,143.500 259.038,143.500 259.102 C 143.500 259.166,143.688 259.464,143.917 259.765 C 144.146 260.065,144.333 260.385,144.333 260.475 C 144.333 260.565,144.394 260.664,144.468 260.694 C 144.542 260.725,144.897 261.200,145.256 261.750 C 145.615 262.300,146.000 262.844,146.110 262.959 C 146.221 263.074,146.359 263.318,146.417 263.501 C 146.475 263.684,146.592 263.833,146.678 263.833 C 146.763 263.833,146.833 263.913,146.833 264.011 C 146.833 264.163,147.565 265.247,147.838 265.500 C 147.888 265.546,148.297 266.108,148.747 266.750 C 149.198 267.392,149.626 267.942,149.700 267.972 C 149.773 268.003,149.833 268.128,149.833 268.250 C 149.833 268.372,149.890 268.497,149.960 268.528 C 150.030 268.558,150.533 269.183,151.079 269.917 C 151.624 270.650,152.317 271.512,152.617 271.833 C 152.918 272.154,153.164 272.515,153.165 272.635 C 153.166 272.755,153.242 272.807,153.333 272.750 C 153.425 272.693,153.500 272.766,153.500 272.912 C 153.500 273.058,153.596 273.214,153.713 273.259 C 153.830 273.304,154.110 273.639,154.336 274.004 C 154.561 274.368,154.832 274.667,154.938 274.667 C 155.115 274.667,155.205 274.797,155.341 275.250 C 155.368 275.342,155.603 275.629,155.862 275.888 C 156.121 276.147,156.333 276.426,156.333 276.507 C 156.333 276.589,156.540 276.764,156.792 276.896 C 157.044 277.028,157.250 277.195,157.250 277.267 C 157.250 277.339,157.420 277.415,157.628 277.438 C 158.161 277.494,164.095 278.811,165.000 279.073 C 165.412 279.192,166.162 279.378,166.667 279.486 C 167.875 279.746,168.735 279.935,169.750 280.167 C 170.208 280.271,170.883 280.423,171.250 280.505 C 171.617 280.586,172.742 280.847,173.750 281.085 C 174.758 281.323,175.902 281.589,176.292 281.676 C 176.681 281.762,177.356 281.913,177.792 282.010 C 178.227 282.107,178.996 282.290,179.500 282.417 C 180.370 282.635,181.097 282.802,182.708 283.155 C 183.098 283.240,183.792 283.396,184.250 283.500 C 184.708 283.604,185.421 283.764,185.833 283.855 C 186.246 283.946,186.996 284.123,187.500 284.250 C 188.370 284.468,189.097 284.636,190.708 284.988 C 191.098 285.074,191.754 285.220,192.167 285.314 C 192.579 285.407,193.329 285.572,193.833 285.680 C 194.338 285.788,195.088 285.973,195.500 286.091 C 195.912 286.209,196.544 286.355,196.903 286.416 L 197.556 286.526 197.046 286.096 C 196.765 285.860,196.464 285.667,196.377 285.667 C 196.290 285.667,196.083 285.517,195.917 285.333 C 195.751 285.150,195.522 285.000,195.408 285.000 C 195.294 285.000,194.982 284.756,194.713 284.458 C 194.445 284.160,194.132 283.896,194.018 283.871 C 193.904 283.846,193.638 283.659,193.426 283.455 C 193.215 283.250,192.833 282.933,192.577 282.750 C 192.321 282.567,192.017 282.323,191.901 282.208 C 191.785 282.094,191.606 282.000,191.502 282.000 C 191.398 282.000,191.355 281.933,191.405 281.852 C 191.485 281.722,190.660 281.046,190.537 281.140 C 190.511 281.160,190.286 280.958,190.037 280.691 C 189.787 280.423,189.021 279.728,188.333 279.144 C 186.420 277.521,186.223 277.344,184.776 275.958 C 184.035 275.248,183.408 274.667,183.383 274.667 C 183.295 274.667,178.232 269.575,177.161 268.411 C 175.993 267.139,174.105 265.029,173.068 263.833 C 172.710 263.421,172.360 263.058,172.292 263.028 C 172.223 262.997,172.167 262.903,172.167 262.819 C 172.167 262.735,172.035 262.528,171.875 262.359 C 171.245 261.693,170.063 260.255,169.677 259.684 C 169.454 259.354,169.183 259.008,169.075 258.917 C 168.901 258.770,168.193 257.848,166.833 256.000 C 166.604 255.689,166.073 254.980,165.653 254.425 C 165.233 253.871,164.678 253.079,164.420 252.667 C 164.161 252.254,163.903 251.879,163.844 251.833 C 163.786 251.787,162.947 250.550,161.980 249.083 C 160.394 246.679,159.560 245.344,158.350 243.269 C 158.130 242.892,157.880 242.537,157.794 242.481 C 157.708 242.425,157.653 242.327,157.670 242.263 C 157.708 242.125,156.224 239.547,155.864 239.125 C 155.727 238.965,155.676 238.833,155.750 238.833 C 155.824 238.833,155.766 238.702,155.621 238.542 C 155.476 238.381,155.364 238.213,155.373 238.167 C 155.408 237.980,154.785 236.833,154.648 236.833 C 154.566 236.833,154.500 236.698,154.500 236.533 C 154.500 236.367,154.275 235.877,154.000 235.444 C 153.725 235.010,153.500 234.557,153.500 234.437 C 153.500 234.010,152.896 233.708,151.333 233.353 C 150.462 233.155,149.337 232.886,148.833 232.756 C 148.329 232.626,147.560 232.440,147.125 232.343 C 146.690 232.246,145.996 232.092,145.583 232.000 C 145.171 231.908,144.496 231.758,144.083 231.667 C 142.571 231.331,141.879 231.172,140.083 230.748 C 139.075 230.510,137.931 230.245,137.542 230.158 C 137.152 230.071,136.477 229.920,136.042 229.822 C 135.606 229.724,134.912 229.569,134.500 229.478 C 134.087 229.388,133.337 229.210,132.833 229.083 C 131.938 228.859,130.927 228.625,129.583 228.331 C 127.930 227.970,128.000 227.970,128.000 228.340 M253.809 279.287 C 252.951 279.964,252.118 280.626,251.956 280.759 C 251.795 280.891,251.627 281.000,251.583 281.000 C 251.540 281.000,251.372 281.108,251.210 281.241 C 251.049 281.373,250.504 281.782,250.000 282.150 C 249.496 282.517,249.002 282.887,248.904 282.972 C 248.805 283.057,248.430 283.322,248.070 283.562 C 247.711 283.801,246.967 284.297,246.417 284.665 C 245.867 285.032,245.276 285.427,245.105 285.542 C 244.933 285.656,244.695 285.844,244.575 285.958 C 244.455 286.073,244.308 286.167,244.247 286.167 C 244.187 286.167,243.826 286.379,243.444 286.639 C 242.126 287.537,240.337 288.667,240.235 288.667 C 240.178 288.667,239.796 288.893,239.386 289.170 C 238.975 289.447,238.364 289.823,238.028 290.005 C 237.369 290.363,237.009 290.580,236.292 291.053 C 236.040 291.220,235.833 291.311,235.833 291.255 C 235.833 291.199,235.672 291.304,235.475 291.488 C 235.278 291.671,235.064 291.789,235.000 291.750 C 234.936 291.711,234.722 291.829,234.525 292.012 C 234.328 292.196,234.167 292.301,234.167 292.245 C 234.167 292.189,233.939 292.306,233.661 292.504 C 233.382 292.702,233.056 292.879,232.936 292.897 C 232.815 292.914,232.529 293.052,232.301 293.201 C 232.072 293.351,231.599 293.593,231.250 293.739 C 230.511 294.048,230.559 294.153,231.535 294.362 C 231.928 294.446,232.512 294.580,232.833 294.658 C 233.154 294.737,235.292 295.226,237.583 295.744 C 239.875 296.263,242.275 296.821,242.917 296.984 C 243.558 297.147,244.496 297.371,245.000 297.482 C 246.874 297.893,247.267 297.981,248.000 298.151 C 251.727 299.014,254.932 299.744,256.250 300.030 C 256.708 300.129,257.421 300.304,257.833 300.419 C 260.353 301.122,261.189 301.030,261.968 299.965 C 262.088 299.801,262.253 299.667,262.335 299.667 C 262.593 299.667,263.658 298.880,263.548 298.771 C 263.491 298.713,263.607 298.667,263.806 298.667 C 264.022 298.667,264.167 298.562,264.167 298.407 C 264.167 298.264,264.242 298.193,264.333 298.250 C 264.425 298.307,264.500 298.274,264.500 298.177 C 264.500 298.079,264.594 297.998,264.708 297.996 C 264.880 297.994,267.253 296.191,268.594 295.044 C 268.783 294.882,269.223 294.525,269.572 294.250 C 271.585 292.662,272.328 292.055,273.012 291.438 C 273.431 291.059,274.285 290.300,274.910 289.750 C 275.536 289.200,276.430 288.412,276.898 288.000 C 279.318 285.868,283.395 281.840,283.265 281.710 C 283.220 281.664,281.548 281.564,279.550 281.486 C 274.461 281.287,270.227 280.921,267.167 280.415 C 266.387 280.286,265.225 280.098,264.583 279.997 C 263.942 279.896,263.079 279.748,262.667 279.669 C 262.254 279.590,261.429 279.440,260.833 279.337 C 260.237 279.233,259.337 279.043,258.833 278.915 C 258.329 278.788,257.343 278.542,256.642 278.369 L 255.367 278.056 253.809 279.287 M370.208 284.310 C 369.819 284.550,369.500 284.845,369.500 284.966 C 369.500 285.087,369.442 285.151,369.372 285.107 C 369.301 285.063,368.955 285.284,368.603 285.597 C 368.251 285.910,367.908 286.167,367.840 286.167 C 367.772 286.167,367.480 286.392,367.191 286.668 C 366.903 286.944,366.667 287.130,366.667 287.081 C 366.667 287.032,366.099 287.388,365.405 287.871 C 364.710 288.355,363.942 288.877,363.696 289.031 C 363.451 289.186,363.175 289.374,363.083 289.448 C 362.992 289.523,362.279 289.996,361.500 290.500 C 360.721 291.004,360.058 291.473,360.028 291.542 C 359.997 291.610,359.903 291.667,359.818 291.667 C 359.733 291.667,359.289 291.930,358.832 292.251 C 358.374 292.573,358.000 292.786,358.000 292.725 C 358.000 292.665,357.869 292.732,357.708 292.875 C 357.325 293.216,353.693 295.333,353.490 295.333 C 353.404 295.333,353.333 295.408,353.333 295.500 C 353.333 295.592,353.238 295.667,353.122 295.667 C 353.006 295.667,352.631 295.857,352.289 296.089 C 351.947 296.322,351.667 296.460,351.667 296.397 C 351.667 296.333,351.535 296.390,351.375 296.523 C 351.215 296.656,350.858 296.874,350.583 297.007 C 350.308 297.140,350.046 297.287,350.000 297.333 C 349.954 297.380,348.342 298.191,346.417 299.137 C 344.492 300.082,342.786 300.926,342.627 301.011 C 342.468 301.097,342.249 301.167,342.140 301.167 C 342.032 301.167,341.825 301.265,341.680 301.385 C 341.535 301.505,340.442 301.999,339.250 302.483 C 338.058 302.967,336.858 303.463,336.583 303.586 C 335.396 304.115,334.889 304.315,334.457 304.422 C 334.204 304.485,333.956 304.604,333.905 304.685 C 333.855 304.767,333.635 304.833,333.417 304.833 C 333.198 304.833,332.979 304.899,332.929 304.980 C 332.879 305.061,332.668 305.166,332.461 305.214 C 332.253 305.262,331.558 305.500,330.917 305.744 C 330.275 305.988,328.813 306.491,327.667 306.862 C 326.521 307.234,325.058 307.712,324.417 307.925 C 323.775 308.139,322.950 308.389,322.583 308.481 C 322.217 308.574,321.392 308.803,320.750 308.991 C 318.611 309.616,317.089 310.015,316.562 310.088 C 316.275 310.127,315.842 310.235,315.598 310.328 C 315.354 310.420,315.101 310.484,315.036 310.469 C 314.778 310.411,312.833 310.884,312.833 311.005 C 312.833 311.076,312.578 311.133,312.267 311.133 C 311.955 311.133,311.271 311.258,310.747 311.410 C 310.223 311.563,309.691 311.648,309.564 311.599 C 309.437 311.550,309.333 311.583,309.333 311.672 C 309.333 311.761,309.052 311.839,308.708 311.846 L 308.083 311.860 308.750 312.078 C 309.117 312.198,309.867 312.388,310.417 312.500 C 310.967 312.613,311.754 312.799,312.167 312.914 C 312.579 313.029,313.329 313.212,313.833 313.320 C 315.146 313.601,316.798 313.966,318.417 314.332 C 318.875 314.435,319.662 314.623,320.167 314.750 C 320.671 314.877,321.421 315.054,321.833 315.145 C 324.505 315.733,325.631 315.990,326.667 316.250 C 327.518 316.464,327.893 316.550,329.917 317.000 C 330.329 317.092,331.004 317.242,331.417 317.333 C 333.440 317.783,333.815 317.870,334.667 318.083 C 335.631 318.326,336.102 318.435,338.667 319.012 C 340.032 319.320,341.509 319.658,344.417 320.330 C 344.783 320.414,345.496 320.572,346.000 320.679 C 346.504 320.787,347.134 320.941,347.400 321.021 C 348.083 321.227,348.898 321.202,349.133 320.967 C 349.243 320.857,349.333 320.822,349.333 320.889 C 349.333 320.956,349.673 320.821,350.089 320.589 C 350.505 320.357,350.930 320.167,351.034 320.167 C 351.139 320.167,351.364 320.040,351.536 319.884 C 351.708 319.729,352.002 319.578,352.190 319.549 C 352.734 319.466,359.215 316.217,362.250 314.505 C 362.800 314.195,363.600 313.748,364.027 313.512 C 366.113 312.361,367.922 311.275,367.972 311.145 C 368.003 311.065,368.095 311.000,368.177 311.000 C 368.260 311.000,368.760 310.728,369.288 310.395 C 371.409 309.060,371.757 308.837,371.917 308.707 C 372.008 308.633,372.383 308.391,372.750 308.169 C 373.542 307.690,378.880 304.005,379.000 303.854 C 379.124 303.699,380.140 303.000,380.241 303.000 C 380.339 303.000,380.886 302.572,381.358 302.125 C 381.528 301.965,381.742 301.833,381.833 301.833 C 381.925 301.833,382.000 301.775,382.000 301.703 C 382.000 301.631,382.222 301.441,382.494 301.280 C 382.766 301.120,383.113 300.863,383.266 300.710 C 383.419 300.557,383.791 300.241,384.092 300.008 C 384.394 299.774,385.078 299.246,385.612 298.833 C 386.146 298.421,386.658 298.003,386.750 297.906 C 386.842 297.808,387.329 297.396,387.833 296.990 C 388.337 296.584,388.835 296.176,388.939 296.084 C 389.044 295.992,389.527 295.579,390.014 295.167 C 390.501 294.754,391.153 294.173,391.464 293.875 C 391.775 293.577,392.063 293.333,392.104 293.333 C 392.146 293.333,392.656 292.865,393.238 292.292 C 393.819 291.719,394.679 290.922,395.148 290.522 C 396.214 289.610,396.215 289.614,394.958 289.350 C 394.385 289.229,393.654 289.068,393.333 288.992 C 393.012 288.915,392.412 288.778,392.000 288.685 C 391.587 288.593,390.425 288.323,389.417 288.085 C 387.537 287.642,386.697 287.449,385.458 287.178 C 382.934 286.626,381.681 286.338,380.667 286.079 C 379.487 285.777,378.142 285.468,375.250 284.834 C 373.967 284.553,372.692 284.257,372.417 284.177 C 371.281 283.845,370.928 283.867,370.208 284.310 M296.875 313.448 C 297.035 313.490,297.298 313.490,297.458 313.448 C 297.619 313.406,297.487 313.372,297.167 313.372 C 296.846 313.372,296.715 313.406,296.875 313.448 M277.875 314.124 C 278.585 314.155,279.748 314.155,280.458 314.124 C 281.169 314.093,280.587 314.067,279.167 314.067 C 277.746 314.067,277.165 314.093,277.875 314.124 M284.375 314.124 C 285.085 314.155,286.248 314.155,286.958 314.124 C 287.669 314.093,287.087 314.067,285.667 314.067 C 284.246 314.067,283.665 314.093,284.375 314.124 M152.625 330.618 C 152.831 330.657,153.169 330.657,153.375 330.618 C 153.581 330.578,153.412 330.545,153.000 330.545 C 152.587 330.545,152.419 330.578,152.625 330.618 M177.711 330.620 C 177.964 330.658,178.339 330.657,178.544 330.617 C 178.749 330.578,178.542 330.546,178.083 330.548 C 177.625 330.549,177.457 330.581,177.711 330.620 " stroke="none" fill="#1c2c94" fill-rule="evenodd"></path><path id="path3" d="M34.111 64.846 C 33.948 65.037,33.733 65.372,33.633 65.591 C 33.533 65.810,33.387 65.950,33.309 65.902 C 33.231 65.853,33.167 65.931,33.167 66.073 C 33.167 66.216,33.110 66.334,33.042 66.334 C 32.973 66.335,32.730 66.616,32.501 66.959 C 32.273 67.303,32.046 67.621,31.998 67.667 C 31.949 67.712,31.789 67.939,31.642 68.171 C 31.495 68.403,31.216 68.778,31.022 69.004 C 30.575 69.528,26.500 75.483,26.500 75.613 C 26.500 75.667,26.238 76.076,25.917 76.522 C 25.596 76.969,25.333 77.409,25.333 77.500 C 25.333 77.592,25.258 77.667,25.167 77.667 C 25.075 77.667,25.000 77.734,25.000 77.817 C 25.000 77.899,24.702 78.443,24.339 79.025 C 23.975 79.607,23.372 80.608,22.998 81.250 C 22.624 81.892,22.134 82.717,21.909 83.083 C 21.685 83.450,21.350 84.050,21.167 84.417 C 20.983 84.783,20.651 85.383,20.429 85.750 C 20.208 86.117,19.304 87.838,18.422 89.576 C 17.540 91.313,16.760 92.813,16.689 92.909 C 16.619 93.005,16.291 93.683,15.962 94.417 C 15.632 95.150,15.100 96.313,14.781 97.000 C 13.966 98.752,12.597 101.949,11.746 104.083 C 11.490 104.725,11.218 105.321,11.141 105.408 C 11.063 105.495,11.000 105.724,11.000 105.917 C 11.000 106.109,10.938 106.338,10.862 106.425 C 10.787 106.512,10.623 106.921,10.499 107.333 C 10.375 107.746,10.227 108.158,10.171 108.250 C 10.115 108.342,9.974 108.717,9.858 109.083 C 9.667 109.686,9.364 110.501,8.991 111.417 C 8.916 111.600,8.775 112.013,8.676 112.333 C 8.577 112.654,8.196 113.840,7.828 114.968 C 7.142 117.069,6.650 118.856,6.615 119.375 C 6.604 119.535,6.545 119.667,6.484 119.667 C 6.422 119.667,6.330 119.835,6.279 120.042 C 6.228 120.248,6.064 120.867,5.915 121.417 C 5.766 121.967,5.612 122.638,5.572 122.909 C 5.531 123.180,5.424 123.476,5.333 123.567 C 5.241 123.659,5.173 123.850,5.180 123.992 C 5.187 124.134,5.228 124.165,5.271 124.060 C 5.324 123.930,5.519 123.914,5.883 124.010 C 6.176 124.088,7.129 124.307,8.000 124.498 C 10.127 124.963,10.914 125.144,12.000 125.417 C 13.036 125.677,14.382 125.984,16.792 126.512 C 18.403 126.864,19.130 127.032,20.000 127.250 C 20.504 127.377,21.254 127.557,21.667 127.650 C 22.079 127.744,23.054 127.967,23.833 128.145 C 26.446 128.745,26.333 128.736,26.333 128.341 C 26.333 128.148,26.443 127.726,26.577 127.405 C 26.712 127.084,26.756 126.862,26.676 126.911 C 26.595 126.961,26.670 126.711,26.841 126.356 C 27.013 126.001,27.171 125.443,27.193 125.116 C 27.215 124.789,27.293 124.559,27.367 124.604 C 27.440 124.649,27.506 124.626,27.514 124.552 C 27.559 124.117,27.681 123.640,27.975 122.750 C 28.157 122.200,28.571 120.925,28.894 119.917 C 29.722 117.333,30.917 114.105,31.686 112.377 C 31.859 111.988,32.000 111.593,32.000 111.500 C 32.000 111.406,32.066 111.199,32.147 111.039 C 32.228 110.880,32.369 110.563,32.459 110.333 C 32.550 110.104,32.821 109.490,33.062 108.969 C 33.303 108.448,33.500 107.989,33.500 107.950 C 33.500 107.911,33.739 107.363,34.032 106.731 C 34.325 106.100,34.573 105.546,34.583 105.500 C 34.615 105.358,35.990 102.431,36.149 102.167 C 36.232 102.029,36.850 100.829,37.522 99.500 C 38.195 98.171,38.790 97.046,38.844 97.000 C 38.899 96.954,39.150 96.504,39.402 96.000 C 39.655 95.496,40.066 94.746,40.316 94.333 C 40.565 93.921,40.953 93.246,41.177 92.833 C 41.400 92.421,41.627 92.046,41.681 92.000 C 41.735 91.954,42.103 91.354,42.500 90.667 C 42.897 89.979,43.274 89.379,43.338 89.333 C 43.403 89.287,43.620 88.950,43.821 88.583 C 44.434 87.465,47.971 82.172,48.776 81.167 C 48.886 81.029,49.656 80.017,50.486 78.917 C 51.910 77.032,52.869 75.793,53.424 75.123 C 53.557 74.962,53.667 74.772,53.667 74.702 C 53.667 74.632,53.798 74.461,53.958 74.322 C 54.119 74.183,54.512 73.741,54.833 73.339 C 55.154 72.937,55.585 72.443,55.792 72.243 C 55.998 72.042,56.167 71.834,56.167 71.781 C 56.167 71.727,56.410 71.435,56.708 71.132 C 57.349 70.480,58.183 69.492,57.839 69.792 C 57.516 70.073,57.216 70.056,55.530 69.660 C 54.734 69.473,53.746 69.244,53.333 69.150 C 52.921 69.057,52.171 68.877,51.667 68.750 C 51.163 68.623,50.413 68.446,50.000 68.355 C 49.587 68.264,48.875 68.104,48.417 68.000 C 47.543 67.801,46.591 67.588,45.333 67.312 C 44.921 67.221,44.171 67.043,43.667 66.917 C 43.163 66.790,42.412 66.610,42.000 66.516 C 41.587 66.423,40.612 66.198,39.833 66.018 C 39.054 65.837,37.854 65.570,37.167 65.424 C 35.220 65.011,34.313 64.742,34.440 64.616 C 34.503 64.552,34.522 64.500,34.481 64.500 C 34.441 64.500,34.274 64.656,34.111 64.846 M138.906 88.817 C 138.969 88.918,138.958 89.000,138.883 89.000 C 138.808 89.000,138.648 89.158,138.528 89.351 C 138.346 89.641,138.347 89.680,138.529 89.574 C 138.651 89.504,138.568 89.646,138.346 89.890 C 138.124 90.134,138.004 90.333,138.080 90.333 C 138.156 90.333,138.107 90.465,137.971 90.625 C 137.486 91.195,135.944 94.079,136.041 94.232 C 136.064 94.269,135.960 94.437,135.809 94.608 C 135.515 94.939,134.907 96.119,133.459 99.167 C 132.123 101.980,131.770 102.740,131.758 102.833 C 131.752 102.879,131.625 103.179,131.475 103.500 C 130.646 105.272,129.267 108.574,128.585 110.417 C 128.381 110.967,127.937 112.167,127.598 113.083 C 127.258 114.000,126.916 114.938,126.837 115.167 C 126.759 115.396,126.507 116.108,126.277 116.750 C 126.047 117.392,125.620 118.704,125.328 119.667 C 125.036 120.629,124.646 121.867,124.460 122.417 C 124.275 122.967,124.063 123.642,123.990 123.917 C 123.555 125.544,123.144 127.031,122.907 127.833 C 122.758 128.337,122.560 129.087,122.468 129.500 C 122.376 129.912,122.229 130.550,122.141 130.917 C 122.054 131.283,121.915 131.883,121.833 132.250 C 121.752 132.617,121.605 133.254,121.508 133.667 C 121.411 134.079,121.254 134.861,121.158 135.404 C 121.062 135.948,120.953 136.442,120.915 136.502 C 120.809 136.675,120.280 139.448,119.844 142.125 C 119.758 142.652,119.573 143.721,119.433 144.500 C 119.293 145.279,119.098 146.664,119.000 147.577 C 118.902 148.491,118.781 149.402,118.730 149.603 C 118.653 149.910,118.726 149.985,119.194 150.080 C 119.806 150.204,122.621 150.840,124.833 151.355 C 125.612 151.537,126.587 151.760,127.000 151.852 C 127.412 151.944,128.162 152.123,128.667 152.250 C 129.536 152.468,130.263 152.636,131.875 152.988 C 135.054 153.684,136.490 154.021,138.295 154.495 C 139.231 154.741,139.275 154.697,139.404 153.377 C 139.682 150.528,140.602 144.512,141.080 142.417 C 141.206 141.867,141.397 140.929,141.506 140.333 C 141.615 139.737,141.766 139.025,141.842 138.750 C 141.918 138.475,142.067 137.800,142.173 137.250 C 142.278 136.700,142.438 136.067,142.527 135.843 C 142.616 135.619,142.753 135.132,142.832 134.760 C 142.910 134.388,143.124 133.521,143.307 132.833 C 143.491 132.146,143.759 131.133,143.905 130.583 C 144.050 130.033,144.275 129.283,144.404 128.917 C 144.533 128.550,144.803 127.688,145.004 127.000 C 145.408 125.614,145.632 124.916,145.836 124.417 C 145.911 124.233,146.012 123.933,146.060 123.750 C 146.236 123.085,146.944 121.167,147.054 121.057 C 147.116 120.995,147.167 120.806,147.167 120.637 C 147.167 120.467,147.235 120.199,147.319 120.039 C 147.517 119.664,147.859 118.830,148.325 117.583 C 149.016 115.737,149.121 115.478,149.733 114.120 C 149.971 113.591,150.167 113.124,150.167 113.084 C 150.167 112.992,150.812 111.565,151.748 109.583 C 153.002 106.932,153.170 106.588,153.336 106.333 C 153.426 106.196,153.767 105.521,154.094 104.833 C 155.040 102.841,156.526 100.094,156.730 99.961 C 156.833 99.894,156.849 99.837,156.766 99.836 C 156.683 99.834,156.751 99.683,156.917 99.500 C 157.083 99.317,157.158 99.167,157.083 99.167 C 157.009 99.167,157.084 99.017,157.250 98.833 C 157.416 98.650,157.505 98.500,157.448 98.500 C 157.353 98.500,157.957 97.497,158.308 97.073 C 158.523 96.814,158.904 96.104,158.911 95.952 C 158.914 95.880,159.029 95.750,159.167 95.663 C 159.304 95.576,159.351 95.504,159.271 95.503 C 159.191 95.501,159.209 95.399,159.311 95.276 C 159.414 95.153,159.448 95.003,159.387 94.943 C 159.327 94.883,159.365 94.833,159.472 94.833 C 159.579 94.833,159.667 94.716,159.667 94.573 C 159.667 94.431,159.742 94.360,159.833 94.417 C 159.925 94.473,160.000 94.365,160.000 94.177 C 160.000 93.967,160.113 93.827,160.292 93.818 C 160.603 93.802,160.145 93.670,158.667 93.349 C 157.298 93.052,156.319 92.829,155.667 92.667 C 155.346 92.587,154.746 92.447,154.333 92.357 C 153.921 92.267,153.058 92.070,152.417 91.920 C 151.775 91.770,150.931 91.576,150.542 91.490 C 150.152 91.404,149.515 91.262,149.125 91.175 C 148.735 91.088,148.004 90.926,147.500 90.815 C 146.996 90.705,146.021 90.466,145.333 90.286 C 144.646 90.105,143.821 89.901,143.500 89.833 C 143.179 89.764,142.129 89.540,141.167 89.336 C 140.204 89.132,139.276 88.890,139.105 88.799 C 138.884 88.682,138.826 88.687,138.906 88.817 M4.519 126.695 C 4.509 126.848,4.457 127.110,4.404 127.278 C 4.313 127.567,4.318 127.568,4.499 127.286 C 4.603 127.123,4.655 126.861,4.614 126.703 C 4.546 126.445,4.537 126.444,4.519 126.695 M25.947 129.397 C 25.885 129.560,25.838 129.819,25.844 129.972 C 25.851 130.156,25.909 130.114,26.015 129.848 C 26.104 129.626,26.150 129.368,26.119 129.273 C 26.087 129.178,26.010 129.234,25.947 129.397 M117.392 170.250 C 117.392 171.075,117.420 171.434,117.455 171.047 C 117.490 170.660,117.490 169.985,117.456 169.547 C 117.422 169.109,117.393 169.425,117.392 170.250 " stroke="none" fill="#2b43ac" fill-rule="evenodd"></path><path id="path4" d="M292.250 5.608 C 292.705 5.703,293.692 5.927,295.083 6.253 C 295.725 6.403,296.569 6.595,296.958 6.680 C 298.303 6.971,299.092 7.154,301.583 7.751 C 304.211 8.381,304.890 8.538,306.250 8.828 C 307.281 9.048,310.276 9.733,312.167 10.182 C 313.772 10.563,314.521 10.733,315.833 11.013 C 316.337 11.120,316.975 11.277,317.250 11.361 C 317.525 11.444,318.313 11.628,319.000 11.768 C 319.688 11.908,320.887 12.171,321.667 12.351 C 322.446 12.532,323.421 12.756,323.833 12.850 C 324.246 12.943,324.996 13.123,325.500 13.250 C 326.351 13.464,326.727 13.550,328.750 14.000 C 329.162 14.092,329.837 14.242,330.250 14.333 C 331.808 14.679,332.466 14.831,334.167 15.236 C 335.129 15.465,336.629 15.813,337.500 16.010 C 338.371 16.207,339.871 16.550,340.833 16.772 C 344.940 17.719,344.798 17.693,344.901 17.525 C 344.949 17.447,344.673 17.283,344.286 17.161 C 343.900 17.040,343.490 16.869,343.375 16.783 C 343.260 16.697,343.166 16.691,343.164 16.771 C 343.163 16.851,343.106 16.841,343.039 16.749 C 342.896 16.554,341.847 16.167,341.460 16.167 C 341.314 16.167,341.169 16.102,341.139 16.023 C 341.064 15.830,338.222 14.834,338.098 14.957 C 338.044 15.011,338.000 14.968,338.000 14.861 C 338.000 14.754,337.944 14.680,337.875 14.696 C 337.806 14.712,337.563 14.647,337.333 14.552 C 336.728 14.301,335.846 13.990,335.083 13.759 C 334.717 13.647,334.304 13.513,334.167 13.460 C 334.029 13.406,333.767 13.325,333.583 13.278 C 333.400 13.231,332.837 13.047,332.333 12.868 C 331.829 12.690,331.117 12.460,330.750 12.357 C 330.383 12.255,329.596 12.015,329.000 11.824 C 328.404 11.634,327.804 11.451,327.667 11.419 C 327.529 11.386,326.967 11.234,326.417 11.080 C 325.867 10.927,325.154 10.745,324.833 10.676 C 324.045 10.506,322.251 10.034,321.333 9.754 C 320.627 9.539,319.714 9.349,318.885 9.244 C 318.684 9.219,318.436 9.146,318.333 9.083 C 318.172 8.983,317.233 8.799,315.833 8.592 C 315.604 8.558,315.079 8.452,314.667 8.355 C 314.254 8.259,313.504 8.107,313.000 8.017 C 312.496 7.927,311.483 7.738,310.750 7.597 C 309.286 7.316,308.816 7.240,307.083 7.004 C 306.442 6.916,305.354 6.767,304.667 6.671 C 302.835 6.417,300.134 6.125,299.750 6.140 C 299.567 6.147,298.270 6.006,296.869 5.827 C 294.732 5.553,291.177 5.385,292.250 5.608 M281.542 26.124 C 282.252 26.155,283.415 26.155,284.125 26.124 C 284.835 26.093,284.254 26.067,282.833 26.067 C 281.412 26.067,280.831 26.093,281.542 26.124 M21.225 246.532 C 21.330 246.835,21.660 247.478,21.958 247.961 C 22.256 248.443,22.500 248.878,22.500 248.926 C 22.500 248.974,22.650 249.175,22.833 249.372 C 23.017 249.569,23.167 249.851,23.167 250.000 C 23.167 250.149,23.301 250.416,23.465 250.594 C 23.628 250.771,24.038 251.411,24.374 252.014 C 24.710 252.618,25.254 253.518,25.581 254.014 C 25.909 254.511,26.269 255.057,26.380 255.229 C 26.492 255.400,26.680 255.641,26.798 255.764 C 26.915 255.887,27.005 256.031,26.996 256.084 C 26.981 256.177,29.158 259.500,29.343 259.667 C 29.394 259.712,30.010 260.575,30.713 261.583 C 32.011 263.446,33.690 265.694,34.430 266.561 C 34.654 266.824,34.965 267.255,35.121 267.520 C 35.277 267.784,35.464 268.000,35.536 268.000 C 35.608 268.000,35.667 268.078,35.667 268.174 C 35.667 268.270,35.835 268.518,36.042 268.726 C 36.248 268.933,36.642 269.393,36.917 269.747 C 37.717 270.778,41.160 274.839,42.006 275.750 C 42.431 276.208,43.110 276.956,43.515 277.412 C 44.246 278.236,44.825 278.841,47.473 281.557 C 49.237 283.365,53.823 287.746,54.917 288.668 C 55.375 289.054,55.900 289.530,56.083 289.727 C 56.267 289.923,56.867 290.457,57.417 290.913 C 57.967 291.369,58.454 291.782,58.500 291.830 C 58.546 291.877,59.033 292.292,59.583 292.750 C 60.133 293.208,60.608 293.639,60.639 293.708 C 60.669 293.777,60.764 293.833,60.849 293.833 C 60.992 293.833,61.655 294.362,62.363 295.042 C 62.530 295.202,62.735 295.333,62.819 295.333 C 62.903 295.333,62.997 295.396,63.028 295.473 C 63.058 295.549,63.908 296.233,64.917 296.992 C 65.925 297.751,66.975 298.547,67.250 298.761 C 67.525 298.975,68.500 299.673,69.417 300.313 C 70.333 300.953,71.174 301.557,71.285 301.655 C 71.395 301.753,71.532 301.833,71.588 301.833 C 71.644 301.833,71.788 301.927,71.908 302.042 C 72.028 302.156,72.266 302.340,72.438 302.449 C 72.610 302.559,73.372 303.065,74.131 303.574 C 74.891 304.083,75.585 304.500,75.673 304.500 C 75.761 304.500,75.833 304.566,75.833 304.646 C 75.833 304.727,76.058 304.886,76.333 305.000 C 76.608 305.114,76.833 305.264,76.833 305.334 C 76.833 305.404,76.965 305.505,77.125 305.559 C 77.285 305.613,77.893 305.959,78.475 306.329 C 79.057 306.698,79.595 307.000,79.670 307.000 C 79.744 307.000,79.831 307.063,79.861 307.141 C 79.911 307.268,82.036 308.548,84.000 309.634 C 85.611 310.525,86.617 311.070,87.417 311.484 C 87.875 311.722,88.287 311.955,88.333 312.003 C 88.379 312.050,89.954 312.847,91.833 313.773 C 95.006 315.337,95.742 315.688,96.836 316.156 C 97.064 316.253,97.362 316.399,97.500 316.480 C 97.638 316.562,97.938 316.704,98.167 316.797 C 98.396 316.890,98.883 317.094,99.250 317.249 C 99.867 317.512,100.272 317.689,101.833 318.381 C 102.154 318.523,102.754 318.766,103.167 318.921 C 103.579 319.077,104.250 319.352,104.656 319.534 C 105.063 319.716,105.513 319.889,105.656 319.919 C 105.800 319.949,106.471 320.205,107.148 320.487 C 107.825 320.769,108.506 321.000,108.662 321.000 C 108.817 321.000,108.996 321.051,109.059 321.114 C 109.209 321.264,109.769 321.463,113.833 322.809 C 117.430 323.999,117.830 324.123,119.833 324.664 C 120.521 324.850,121.421 325.109,121.833 325.239 C 122.246 325.369,123.558 325.709,124.750 325.994 C 125.942 326.280,127.179 326.578,127.500 326.657 C 129.216 327.077,129.757 327.197,131.667 327.579 C 134.556 328.157,135.256 328.291,136.500 328.501 C 137.096 328.601,138.146 328.786,138.833 328.912 C 142.137 329.516,149.614 330.388,153.167 330.583 C 153.946 330.626,155.371 330.735,156.333 330.825 C 159.212 331.094,171.916 331.046,175.750 330.750 C 183.334 330.166,188.851 329.547,192.167 328.909 C 192.854 328.777,194.167 328.545,195.083 328.394 C 196.767 328.116,197.271 328.025,199.083 327.667 C 200.791 327.329,201.391 327.200,202.167 327.000 C 202.579 326.894,203.854 326.585,205.000 326.313 C 207.025 325.833,207.603 325.686,209.167 325.250 C 209.579 325.135,210.254 324.948,210.667 324.834 C 211.079 324.721,211.604 324.570,211.833 324.500 C 212.063 324.430,212.588 324.278,213.000 324.163 C 214.579 323.724,214.929 323.619,215.333 323.462 C 215.563 323.372,216.409 323.083,217.214 322.819 L 218.678 322.339 219.797 322.771 C 220.413 323.009,221.142 323.296,221.417 323.410 C 221.692 323.524,222.179 323.715,222.500 323.835 C 222.821 323.955,223.155 324.116,223.242 324.193 C 223.329 324.270,223.557 324.333,223.750 324.333 C 223.943 324.333,224.171 324.399,224.258 324.480 C 224.447 324.653,225.574 325.067,228.833 326.158 C 230.162 326.604,231.438 327.042,231.667 327.132 C 231.896 327.223,232.646 327.464,233.333 327.669 C 234.021 327.873,234.771 328.098,235.000 328.167 C 235.229 328.237,235.717 328.375,236.083 328.474 C 236.450 328.573,237.350 328.835,238.083 329.057 C 238.817 329.279,240.092 329.624,240.917 329.823 C 241.742 330.022,242.754 330.273,243.167 330.380 C 243.579 330.487,243.976 330.557,244.048 330.535 C 244.121 330.513,244.322 330.571,244.494 330.664 C 244.747 330.799,248.378 331.596,250.333 331.946 C 250.563 331.987,251.237 332.123,251.833 332.248 C 253.187 332.533,254.555 332.772,256.167 333.006 C 256.854 333.106,257.829 333.253,258.333 333.334 C 258.837 333.414,259.887 333.557,260.667 333.650 C 261.446 333.744,263.021 333.933,264.167 334.072 C 266.510 334.356,269.197 334.588,273.000 334.835 C 276.396 335.055,289.092 335.052,292.167 334.830 C 297.075 334.475,298.962 334.309,300.833 334.067 C 301.887 333.931,303.350 333.745,304.083 333.655 C 306.023 333.415,307.787 333.171,308.833 332.998 C 309.337 332.915,310.275 332.764,310.917 332.664 C 311.558 332.564,312.571 332.372,313.167 332.237 C 314.431 331.951,318.280 331.176,319.256 331.011 C 319.626 330.948,320.015 330.844,320.120 330.779 C 320.295 330.671,320.608 330.593,322.583 330.172 C 323.322 330.014,325.297 329.492,326.583 329.115 C 327.042 328.980,327.867 328.748,328.417 328.599 C 328.967 328.449,329.604 328.262,329.833 328.183 C 330.063 328.104,330.587 327.946,331.000 327.834 C 331.412 327.721,331.900 327.561,332.083 327.478 C 332.267 327.394,332.567 327.297,332.750 327.260 C 332.933 327.224,333.871 326.922,334.833 326.589 C 335.796 326.257,336.958 325.872,337.417 325.734 C 337.875 325.596,338.475 325.376,338.750 325.246 C 339.025 325.116,340.000 324.737,340.917 324.405 C 341.833 324.072,342.669 323.730,342.774 323.644 C 342.879 323.558,343.029 323.503,343.107 323.521 C 343.186 323.540,343.587 323.403,344.000 323.219 C 344.412 323.034,345.031 322.782,345.375 322.658 C 345.719 322.534,346.000 322.373,346.000 322.300 C 346.000 322.227,346.108 322.167,346.239 322.167 C 346.371 322.167,346.652 322.101,346.864 322.020 C 347.076 321.939,347.291 321.883,347.341 321.895 C 347.391 321.907,347.619 321.794,347.848 321.644 C 348.077 321.494,348.411 321.334,348.590 321.288 C 348.810 321.233,348.747 321.199,348.400 321.186 C 348.116 321.175,347.666 321.101,347.400 321.021 C 347.134 320.941,346.504 320.787,346.000 320.679 C 345.496 320.572,344.783 320.414,344.417 320.330 C 341.509 319.658,340.032 319.320,338.667 319.012 C 336.102 318.435,335.631 318.326,334.667 318.083 C 333.734 317.849,332.618 317.592,331.417 317.333 C 329.545 316.931,327.730 316.517,326.667 316.250 C 326.162 316.123,325.412 315.946,325.000 315.855 C 322.328 315.267,321.202 315.010,320.167 314.750 C 319.662 314.623,318.875 314.435,318.417 314.332 C 316.798 313.966,315.146 313.601,313.833 313.320 C 313.329 313.212,312.579 313.029,312.167 312.914 C 311.754 312.799,310.967 312.613,310.417 312.500 C 309.867 312.387,309.052 312.182,308.605 312.044 C 308.159 311.906,307.747 311.859,307.689 311.938 C 307.631 312.018,307.133 312.110,306.583 312.143 C 306.033 312.175,305.546 312.262,305.500 312.335 C 305.454 312.408,304.845 312.509,304.146 312.559 C 303.447 312.609,302.397 312.726,301.813 312.819 C 299.119 313.246,296.699 313.515,294.167 313.671 C 292.654 313.764,290.517 313.912,289.417 314.000 C 282.288 314.567,267.935 313.783,260.000 312.394 C 259.221 312.257,258.133 312.070,257.583 311.977 C 256.629 311.816,256.073 311.713,254.000 311.313 C 253.496 311.216,252.708 311.064,252.250 310.976 C 251.792 310.888,251.042 310.715,250.583 310.591 C 250.125 310.467,249.168 310.237,248.456 310.080 C 247.327 309.830,246.599 309.500,247.177 309.500 C 247.514 309.500,254.016 305.570,254.139 305.292 C 254.169 305.223,254.264 305.167,254.350 305.167 C 254.502 305.167,256.335 304.016,256.500 303.817 C 256.546 303.762,256.766 303.620,256.990 303.502 C 257.213 303.385,257.475 303.222,257.573 303.141 C 257.670 303.060,258.219 302.685,258.792 302.308 C 259.365 301.931,259.833 301.553,259.833 301.468 C 259.833 301.383,259.890 301.347,259.958 301.389 C 260.027 301.430,260.344 301.285,260.662 301.065 C 260.980 300.846,261.164 300.667,261.070 300.667 C 260.977 300.667,260.812 300.754,260.705 300.861 C 260.507 301.060,259.664 300.930,257.833 300.419 C 257.421 300.304,256.708 300.129,256.250 300.030 C 254.932 299.744,251.727 299.014,248.000 298.151 C 247.267 297.981,246.874 297.893,245.000 297.482 C 244.496 297.371,243.558 297.147,242.917 296.984 C 242.275 296.821,239.875 296.263,237.583 295.744 C 235.292 295.226,233.117 294.730,232.750 294.643 C 232.383 294.556,231.815 294.426,231.487 294.353 C 231.159 294.281,230.809 294.171,230.709 294.109 C 230.609 294.048,230.427 294.096,230.305 294.216 C 230.120 294.399,229.723 294.617,229.333 294.750 C 228.892 294.900,225.425 296.478,223.427 297.438 C 222.975 297.655,222.539 297.833,222.458 297.833 C 222.378 297.833,221.886 298.030,221.365 298.271 C 220.843 298.512,220.229 298.783,220.000 298.874 C 219.771 298.965,219.453 299.105,219.294 299.186 C 219.135 299.267,218.931 299.333,218.840 299.333 C 218.750 299.333,218.280 299.512,217.796 299.731 C 217.312 299.949,216.654 300.219,216.333 300.331 C 216.012 300.442,215.600 300.596,215.417 300.673 C 215.233 300.749,214.596 300.973,214.000 301.169 C 213.404 301.366,212.429 301.700,211.833 301.911 C 211.237 302.122,209.963 302.536,209.000 302.831 C 208.037 303.125,206.725 303.536,206.083 303.743 C 205.442 303.951,203.942 304.358,202.750 304.648 C 201.558 304.938,200.321 305.260,200.000 305.364 C 199.679 305.468,199.267 305.570,199.083 305.591 C 198.900 305.611,198.450 305.707,198.083 305.804 C 196.913 306.113,195.962 306.319,194.083 306.669 C 193.075 306.857,191.762 307.114,191.167 307.240 C 189.981 307.492,188.633 307.714,186.583 307.995 C 185.850 308.096,184.762 308.246,184.167 308.329 C 183.571 308.412,182.258 308.561,181.250 308.659 C 180.242 308.757,178.254 308.965,176.833 309.120 C 173.046 309.534,158.092 309.534,154.250 309.119 C 152.783 308.960,150.833 308.753,149.917 308.659 C 147.605 308.420,145.583 308.174,144.500 307.999 C 143.996 307.917,142.983 307.766,142.250 307.663 C 141.517 307.561,140.429 307.376,139.833 307.253 C 138.695 307.018,137.312 306.744,135.917 306.478 C 135.458 306.390,134.821 306.254,134.500 306.175 C 134.179 306.095,133.504 305.945,133.000 305.841 C 132.496 305.738,131.708 305.548,131.250 305.420 C 130.792 305.292,130.117 305.112,129.750 305.021 C 127.974 304.581,126.209 304.120,125.833 303.999 C 125.604 303.925,124.742 303.661,123.917 303.412 C 121.076 302.556,115.448 300.650,114.583 300.251 C 114.308 300.125,113.199 299.678,112.118 299.258 C 111.036 298.838,109.799 298.338,109.368 298.147 C 108.936 297.956,108.283 297.667,107.917 297.505 C 107.550 297.343,106.837 297.017,106.333 296.781 C 105.829 296.545,104.892 296.120,104.250 295.837 C 103.608 295.554,102.821 295.185,102.500 295.017 C 102.179 294.850,100.679 294.085,99.167 293.319 C 97.654 292.553,96.379 291.887,96.333 291.838 C 96.245 291.745,96.226 291.734,94.417 290.748 C 93.775 290.399,92.855 289.862,92.372 289.556 C 91.889 289.250,91.420 289.000,91.330 289.000 C 91.240 289.000,91.167 288.934,91.167 288.853 C 91.167 288.772,91.035 288.664,90.875 288.613 C 90.597 288.525,89.795 288.067,89.424 287.785 C 89.328 287.712,88.837 287.396,88.333 287.083 C 87.829 286.770,87.341 286.455,87.249 286.382 C 86.724 285.967,84.145 284.333,84.016 284.333 C 83.931 284.333,83.836 284.270,83.806 284.192 C 83.775 284.115,83.337 283.762,82.833 283.409 C 81.996 282.822,81.237 282.256,80.715 281.831 C 80.605 281.741,80.442 281.667,80.354 281.667 C 80.266 281.667,80.169 281.606,80.139 281.532 C 80.108 281.458,79.746 281.156,79.333 280.862 C 78.457 280.236,77.455 279.480,76.750 278.913 C 76.475 278.692,75.669 278.051,74.958 277.490 C 74.248 276.929,73.667 276.402,73.667 276.318 C 73.667 276.235,73.590 276.167,73.496 276.167 C 73.401 276.167,73.083 275.947,72.787 275.679 C 72.250 275.192,71.870 274.865,71.139 274.263 C 70.816 273.997,68.976 272.352,67.396 270.917 C 67.194 270.733,65.728 269.299,64.139 267.728 C 60.741 264.370,58.887 262.381,55.852 258.833 C 55.106 257.962,54.399 257.137,54.280 257.000 C 54.080 256.769,52.971 255.375,52.583 254.869 C 52.492 254.749,52.297 254.523,52.151 254.367 C 52.005 254.211,51.685 253.783,51.440 253.417 C 51.196 253.050,50.978 252.784,50.956 252.825 C 50.917 252.899,50.074 252.709,48.417 252.255 C 47.958 252.130,46.496 251.793,45.167 251.507 C 42.284 250.888,41.544 250.721,40.333 250.417 C 39.829 250.290,39.042 250.102,38.583 249.999 C 38.125 249.896,37.487 249.747,37.167 249.667 C 36.547 249.512,35.347 249.237,34.250 248.998 C 33.883 248.918,33.058 248.730,32.417 248.580 C 31.775 248.430,30.931 248.238,30.542 248.154 C 28.522 247.716,25.881 247.103,24.500 246.753 C 23.395 246.472,22.270 246.215,21.558 246.080 L 21.033 245.981 21.225 246.532 M157.333 277.471 C 157.333 277.559,157.540 277.856,157.792 278.131 C 158.044 278.405,158.357 278.784,158.489 278.973 C 158.620 279.161,158.789 279.278,158.864 279.231 C 158.939 279.185,159.000 279.248,159.000 279.372 C 159.000 279.606,159.074 279.691,161.982 282.815 C 165.753 286.865,170.834 291.762,174.417 294.799 C 174.967 295.265,175.789 295.979,176.245 296.385 C 176.989 297.047,177.124 297.108,177.577 296.978 C 177.854 296.898,178.302 296.833,178.572 296.833 C 178.841 296.833,179.517 296.728,180.073 296.600 C 180.629 296.472,181.533 296.279,182.083 296.171 C 183.110 295.970,183.247 295.938,185.667 295.327 C 186.446 295.130,187.158 294.952,187.250 294.930 C 188.853 294.555,194.323 292.681,195.373 292.147 C 195.532 292.066,195.776 292.000,195.914 292.000 C 196.053 292.000,196.167 291.925,196.167 291.833 C 196.167 291.742,196.242 291.667,196.334 291.667 C 196.758 291.667,199.496 290.155,200.187 289.539 C 200.797 288.996,200.792 288.964,200.042 288.449 C 199.698 288.214,199.177 287.810,198.884 287.552 C 197.889 286.676,197.627 286.523,196.938 286.416 C 196.560 286.358,195.912 286.213,195.500 286.094 C 195.088 285.974,194.338 285.788,193.833 285.680 C 193.329 285.572,192.598 285.412,192.208 285.325 C 191.819 285.238,191.181 285.097,190.792 285.012 C 189.383 284.703,188.399 284.476,187.500 284.250 C 186.996 284.123,186.227 283.940,185.792 283.843 C 184.363 283.525,183.511 283.336,182.792 283.178 C 181.383 282.870,180.399 282.642,179.500 282.417 C 178.996 282.290,178.227 282.107,177.792 282.010 C 177.356 281.913,176.681 281.762,176.292 281.676 C 175.902 281.589,174.758 281.323,173.750 281.085 C 171.604 280.579,170.666 280.364,169.750 280.167 C 169.383 280.088,168.746 279.947,168.333 279.853 C 167.921 279.760,167.171 279.595,166.667 279.486 C 166.162 279.378,165.412 279.192,165.000 279.073 C 164.587 278.953,162.825 278.545,161.083 278.166 C 159.342 277.787,157.785 277.439,157.625 277.394 C 157.465 277.348,157.333 277.383,157.333 277.471 " stroke="none" fill="#16248c" fill-rule="evenodd"></path></g></svg>